<svg width="32" height="27" viewBox="0 0 32 27" fill="none" xmlns="http://www.w3.org/2000/svg">
<path fill-rule="evenodd" clip-rule="evenodd" d="M1.35352 23.2112C1.35352 23.0867 1.42387 22.9858 1.51066 22.9858H3.90336C3.99015 22.9858 4.0605 23.0867 4.0605 23.2112C4.0605 23.3357 3.99015 23.4365 3.90336 23.4365H1.51066C1.42387 23.4365 1.35352 23.3357 1.35352 23.2112Z" fill="#007BFF"/>
<path fill-rule="evenodd" clip-rule="evenodd" d="M16.2422 23.2112C16.2422 23.0867 16.3008 22.9858 16.3731 22.9858H18.3671C18.4394 22.9858 18.498 23.0867 18.498 23.2112C18.498 23.3357 18.4394 23.4365 18.3671 23.4365H16.3731C16.3008 23.4365 16.2422 23.3357 16.2422 23.2112Z" fill="#007BFF"/>
<path fill-rule="evenodd" clip-rule="evenodd" d="M-1.97009e-08 24.5634C-8.82039e-09 24.4389 0.07561 24.338 0.16888 24.338L4.79393 24.338C4.8872 24.338 4.96281 24.4389 4.96281 24.5634C4.96281 24.6878 4.8872 24.7887 4.79393 24.7887L0.16888 24.7887C0.07561 24.7887 -3.05814e-08 24.6878 -1.97009e-08 24.5634Z" fill="#007BFF"/>
<path fill-rule="evenodd" clip-rule="evenodd" d="M14.8887 24.5634C14.8887 24.4389 14.9574 24.338 15.0422 24.338L19.2468 24.338C19.3316 24.338 19.4003 24.4389 19.4003 24.5634C19.4003 24.6878 19.3316 24.7887 19.2468 24.7887L15.0422 24.7887C14.9574 24.7887 14.8887 24.6878 14.8887 24.5634Z" fill="#007BFF"/>
<path fill-rule="evenodd" clip-rule="evenodd" d="M0.902344 25.9154C0.902344 25.791 0.998575 25.6901 1.11728 25.6901L7.00371 25.6901C7.12242 25.6901 7.21865 25.791 7.21865 25.9154C7.21865 26.0399 7.12242 26.1408 7.00371 26.1408L1.11728 26.1408C0.998575 26.1408 0.902344 26.0399 0.902344 25.9154Z" fill="#007BFF"/>
<path fill-rule="evenodd" clip-rule="evenodd" d="M15.3398 25.9154C15.3398 25.791 15.4292 25.6901 15.5394 25.6901L21.0054 25.6901C21.1156 25.6901 21.205 25.791 21.205 25.9154C21.205 26.0399 21.1156 26.1408 21.0054 26.1408L15.5394 26.1408C15.4292 26.1408 15.3398 26.0399 15.3398 25.9154Z" fill="#007BFF"/>
<path fill-rule="evenodd" clip-rule="evenodd" d="M17.132 0.884612C16.7396 0.884612 16.3572 1.24365 16.3572 1.76922C16.3572 2.2948 16.7396 2.65384 17.132 2.65384C17.5245 2.65384 17.9068 2.2948 17.9068 1.76922C17.9068 1.24365 17.5245 0.884612 17.132 0.884612ZM15.4717 1.76922C15.4717 0.829123 16.1796 0 17.132 0C18.0845 0 18.7924 0.829123 18.7924 1.76922C18.7924 2.70932 18.0845 3.53845 17.132 3.53845C16.1796 3.53845 15.4717 2.70932 15.4717 1.76922Z" fill="#007BFF"/>
<path d="M17.2627 1.80273C19.8164 1.80286 22.2655 2.8163 24.0713 4.62012C25.6675 6.21473 26.6459 8.31181 26.8516 10.5391C26.8965 11.0255 26.4958 11.4228 26.0068 11.4229H8.51758C8.0286 11.4228 7.62796 11.0255 7.67285 10.5391C7.87847 8.3118 8.85688 6.21473 10.4531 4.62012C12.2591 2.81619 14.7088 1.80273 17.2627 1.80273ZM13.1992 5.41797C13.0917 5.24008 12.86 5.18069 12.6855 5.29395C11.3656 6.15086 10.3294 7.37074 9.70605 8.80176C9.62099 8.99703 9.72375 9.22042 9.92383 9.29395C10.1214 9.3665 10.34 9.26567 10.4248 9.07324C10.9842 7.80367 11.9031 6.71974 13.0713 5.95117C13.2482 5.83478 13.3085 5.59925 13.1992 5.41797ZM14.7373 4.73242C14.6717 4.5349 14.4588 4.42613 14.2637 4.49902C14.0547 4.57716 13.8491 4.66386 13.6475 4.75879C13.4561 4.84888 13.3862 5.08201 13.4873 5.26758C13.587 5.45019 13.8152 5.51766 14.0039 5.42969C14.1656 5.35433 14.3302 5.28516 14.4971 5.22168C14.6939 5.14674 14.8034 4.93216 14.7373 4.73242Z" fill="#007BFF"/>
<path d="M10.1202 25.1637C8.71252 25.1637 7.47693 24.9215 6.41338 24.4372C5.36548 23.9528 4.55218 23.2497 3.97349 22.3279C3.41043 21.3904 3.12891 20.2811 3.12891 18.9999C3.12891 17.7187 3.41043 16.6172 3.97349 15.6953C4.55218 14.7579 5.36548 14.047 6.41338 13.5626C7.47693 13.0782 8.71252 12.8361 10.1202 12.8361C11.5278 12.8361 12.7556 13.0782 13.8035 13.5626C14.867 14.047 15.6803 14.7579 16.2434 15.6953C16.8221 16.6172 17.1114 17.7187 17.1114 18.9999C17.1114 20.2811 16.8221 21.3904 16.2434 22.3279C15.6803 23.2497 14.867 23.9528 13.8035 24.4372C12.7556 24.9215 11.5278 25.1637 10.1202 25.1637ZM10.1202 20.2655C10.4017 20.2655 10.6206 20.1561 10.777 19.9374C10.9335 19.703 11.0117 19.3905 11.0117 18.9999C11.0117 18.6093 10.9335 18.3046 10.777 18.0859C10.6206 17.8515 10.4017 17.7343 10.1202 17.7343C9.83863 17.7343 9.61966 17.8515 9.46326 18.0859C9.30685 18.3046 9.22865 18.6093 9.22865 18.9999C9.22865 19.3905 9.30685 19.703 9.46326 19.9374C9.61966 20.1561 9.83863 20.2655 10.1202 20.2655ZM4.02041 18.6249C4.09861 18.6249 4.16117 18.6015 4.20809 18.5546C4.27065 18.4921 4.30193 18.4218 4.30193 18.3437C4.33321 17.4218 4.5991 16.6484 5.09959 16.0234C5.60009 15.3828 6.1866 14.9063 6.85913 14.5938C7.54731 14.2813 8.19639 14.1095 8.80636 14.0782C8.88456 14.0782 8.94712 14.0548 8.99405 14.0079C9.05661 13.9454 9.08789 13.8751 9.08789 13.797C9.08789 13.7188 9.05661 13.6563 8.99405 13.6095C8.94712 13.547 8.88456 13.5157 8.80636 13.5157C8.13383 13.547 7.40655 13.7423 6.62453 14.1016C5.85815 14.4454 5.19344 14.9766 4.63038 15.6953C4.06733 16.4141 3.77016 17.2968 3.73888 18.3437C3.73888 18.4218 3.76234 18.4921 3.80926 18.5546C3.87182 18.6015 3.94221 18.6249 4.02041 18.6249Z" fill="#007BFF"/>
<path d="M25.0088 25.1637C23.6012 25.1637 22.3656 24.9215 21.3021 24.4372C20.2542 23.9528 19.4409 23.2497 18.8622 22.3279C18.2991 21.3904 18.0176 20.2811 18.0176 18.9999C18.0176 17.7187 18.2991 16.6172 18.8622 15.6953C19.4409 14.7579 20.2542 14.047 21.3021 13.5626C22.3656 13.0782 23.6012 12.8361 25.0088 12.8361C26.4165 12.8361 27.6442 13.0782 28.6921 13.5626C29.7557 14.047 30.569 14.7579 31.132 15.6953C31.7107 16.6172 32.0001 17.7187 32.0001 18.9999C32.0001 20.2811 31.7107 21.3904 31.132 22.3279C30.569 23.2497 29.7557 23.9528 28.6921 24.4372C27.6442 24.9215 26.4165 25.1637 25.0088 25.1637ZM25.0088 20.2655C25.2904 20.2655 25.5093 20.1561 25.6657 19.9374C25.8221 19.703 25.9003 19.3905 25.9003 18.9999C25.9003 18.6093 25.8221 18.3046 25.6657 18.0859C25.5093 17.8515 25.2904 17.7343 25.0088 17.7343C24.7273 17.7343 24.5083 17.8515 24.3519 18.0859C24.1955 18.3046 24.1173 18.6093 24.1173 18.9999C24.1173 19.3905 24.1955 19.703 24.3519 19.9374C24.5083 20.1561 24.7273 20.2655 25.0088 20.2655ZM18.9091 18.6249C18.9873 18.6249 19.0498 18.6015 19.0968 18.5546C19.1593 18.4921 19.1906 18.4218 19.1906 18.3437C19.2219 17.4218 19.4878 16.6484 19.9883 16.0234C20.4888 15.3828 21.0753 14.9063 21.7478 14.5938C22.436 14.2813 23.0851 14.1095 23.695 14.0782C23.7732 14.0782 23.8358 14.0548 23.8827 14.0079C23.9453 13.9454 23.9766 13.8751 23.9766 13.797C23.9766 13.7188 23.9453 13.6563 23.8827 13.6095C23.8358 13.547 23.7732 13.5157 23.695 13.5157C23.0225 13.547 22.2952 13.7423 21.5132 14.1016C20.7468 14.4454 20.0821 14.9766 19.5191 15.6953C18.956 16.4141 18.6588 17.2968 18.6276 18.3437C18.6276 18.4218 18.651 18.4921 18.6979 18.5546C18.7605 18.6015 18.8309 18.6249 18.9091 18.6249Z" fill="#007BFF"/>
</svg>
