<svg width="163" height="66" viewBox="0 0 163 66" fill="none" xmlns="http://www.w3.org/2000/svg">
<path d="M15.756 55.8321C11.7347 55.8321 8.112 55.1734 4.888 53.8561C1.69867 52.5041 0.104 50.1641 0.104 46.8361C0.104 44.8947 0.606667 43.4214 1.612 42.4161C2.652 41.3761 4.056 40.8561 5.824 40.8561C6.89867 40.8561 7.88667 41.0467 8.788 41.4281C9.68933 41.7747 10.712 42.2774 11.856 42.9361C12.896 43.4907 13.728 43.9067 14.352 44.1841C15.0107 44.4614 15.704 44.6001 16.432 44.6001C16.744 44.6001 17.0213 44.5134 17.264 44.3401C17.5413 44.1321 17.68 43.8721 17.68 43.5601C17.68 43.1441 17.3333 42.7801 16.64 42.4681C15.9467 42.1561 14.7853 41.7574 13.156 41.2721C10.6253 40.5094 8.476 39.7467 6.708 38.9841C4.94 38.1867 3.38 37.0254 2.028 35.5001C0.676 33.9401 0 31.9641 0 29.5721C0 25.8281 1.42133 22.9334 4.264 20.8881C7.14133 18.8081 11.0413 17.7681 15.964 17.7681C18.148 17.7681 20.4187 18.0454 22.776 18.6001C25.168 19.1201 27.1787 20.0041 28.808 21.2521C30.472 22.5001 31.304 24.0947 31.304 26.0361C31.304 27.8041 30.7667 29.2427 29.692 30.3521C28.652 31.4614 27.248 32.0161 25.48 32.0161C24.3013 32.0161 23.2267 31.8601 22.256 31.5481C21.32 31.2014 20.228 30.7161 18.98 30.0921C18.148 29.6761 17.4893 29.3814 17.004 29.2081C16.5187 29.0001 16.0507 28.8961 15.6 28.8961C15.184 28.8961 14.8547 29.0001 14.612 29.2081C14.404 29.3814 14.3 29.6067 14.3 29.8841C14.3 30.3347 14.664 30.7334 15.392 31.0801C16.12 31.3921 17.3507 31.7907 19.084 32.2761C21.5453 32.9347 23.6427 33.6281 25.376 34.3561C27.1093 35.0841 28.6173 36.1761 29.9 37.6321C31.2173 39.0534 31.876 40.9081 31.876 43.1961C31.876 47.1134 30.4893 50.1987 27.716 52.4521C24.9427 54.7054 20.956 55.8321 15.756 55.8321ZM2.028 30.1441C2.20133 30.1441 2.34 30.0921 2.444 29.9881C2.58267 29.8494 2.652 29.6934 2.652 29.5201C2.652 26.6774 3.744 24.4587 5.928 22.8641C8.14667 21.2694 11.076 20.4721 14.716 20.4721C14.8893 20.4721 15.028 20.4201 15.132 20.3161C15.2707 20.1774 15.34 20.0214 15.34 19.8481C15.34 19.6747 15.2707 19.5361 15.132 19.4321C15.028 19.2934 14.8893 19.2241 14.716 19.2241C10.7987 19.2241 7.592 20.1427 5.096 21.9801C2.63467 23.7827 1.404 26.2961 1.404 29.5201C1.404 29.6934 1.456 29.8494 1.56 29.9881C1.69867 30.0921 1.85467 30.1441 2.028 30.1441ZM2.756 46.9401C2.756 45.8307 3.03333 44.9987 3.588 44.4441C4.14267 43.8547 4.836 43.5601 5.668 43.5601C5.876 43.5601 6.136 43.5947 6.448 43.6641C6.76 43.7334 7.00267 43.7681 7.176 43.7681C7.592 43.7681 7.8 43.5601 7.8 43.1441C7.8 42.8667 7.57467 42.6587 7.124 42.5201C6.67333 42.3467 6.20533 42.2601 5.72 42.2601C4.50667 42.2601 3.484 42.6761 2.652 43.5081C1.82 44.3054 1.404 45.4494 1.404 46.9401C1.404 47.2521 1.47333 47.5121 1.612 47.7201C1.75067 47.8934 1.924 47.9801 2.132 47.9801C2.548 47.9801 2.756 47.6334 2.756 46.9401Z" fill="white"/>
<path d="M46.8313 55.832C44.2313 55.832 41.8566 55.3293 39.7073 54.324C37.5926 53.3186 35.8939 51.7933 34.6113 49.748C33.3633 47.7026 32.7393 45.2066 32.7393 42.26C32.7393 39.3826 33.3459 36.904 34.5593 34.824C35.8073 32.744 37.4886 31.1666 39.6033 30.092C41.7526 29.0173 44.1619 28.48 46.8313 28.48C48.7379 28.48 50.6446 28.792 52.5513 29.416C54.4579 30.04 56.0353 30.9586 57.2833 32.172C58.5313 33.3506 59.1553 34.7893 59.1553 36.488C59.1553 37.8746 58.7393 39.0013 57.9073 39.868C57.1099 40.7 55.8619 41.116 54.1633 41.116C53.2273 41.116 52.4646 41.012 51.8753 40.804C51.2859 40.596 50.6793 40.3186 50.0553 39.972C49.7433 39.7986 49.4313 39.66 49.1193 39.556C48.8073 39.4173 48.4953 39.348 48.1833 39.348C47.5939 39.348 47.1259 39.5906 46.7793 40.076C46.4326 40.5613 46.2593 41.22 46.2593 42.052C46.2593 42.9533 46.4326 43.6466 46.7793 44.132C47.1606 44.6173 47.6633 44.86 48.2873 44.86C48.6686 44.86 49.0153 44.808 49.3273 44.704C49.6393 44.5653 50.0033 44.3573 50.4193 44.08C51.0086 43.6986 51.5633 43.404 52.0833 43.196C52.6379 42.988 53.3486 42.884 54.2153 42.884C55.8793 42.884 57.1099 43.352 57.9073 44.288C58.7393 45.1893 59.1553 46.2466 59.1553 47.46C59.1553 49.4706 58.4793 51.1 57.1273 52.348C55.8099 53.596 54.1979 54.48 52.2913 55C50.4193 55.5546 48.5993 55.832 46.8313 55.832ZM34.7153 41.324C35.0619 41.324 35.2699 41.116 35.3393 40.7C35.5126 38.6893 36.1193 36.9733 37.1593 35.552C38.1993 34.096 39.4473 33.004 40.9033 32.276C42.3593 31.5133 43.7633 31.1146 45.1153 31.08C45.2886 31.08 45.4273 31.028 45.5313 30.924C45.6699 30.7853 45.7393 30.6293 45.7393 30.456C45.7393 30.2826 45.6699 30.144 45.5313 30.04C45.4273 29.9013 45.2886 29.832 45.1153 29.832C43.6246 29.8666 42.0473 30.3 40.3833 31.132C38.7539 31.9293 37.3326 33.1426 36.1193 34.772C34.9406 36.4013 34.2646 38.3773 34.0913 40.7V40.804C34.0913 40.9426 34.1433 41.064 34.2473 41.168C34.3859 41.272 34.5419 41.324 34.7153 41.324Z" fill="white"/>
<path fill-rule="evenodd" clip-rule="evenodd" d="M59.8037 51.5C59.8037 51.2239 59.9596 51 60.152 51H65.4554C65.6478 51 65.8037 51.2239 65.8037 51.5C65.8037 51.7761 65.6478 52 65.4554 52H60.152C59.9596 52 59.8037 51.7761 59.8037 51.5Z" fill="#007BFF"/>
<path fill-rule="evenodd" clip-rule="evenodd" d="M92.8037 51.5C92.8037 51.2239 92.9337 51 93.094 51H97.5135C97.6738 51 97.8037 51.2239 97.8037 51.5C97.8037 51.7761 97.6738 52 97.5135 52H93.094C92.9337 52 92.8037 51.7761 92.8037 51.5Z" fill="#007BFF"/>
<path fill-rule="evenodd" clip-rule="evenodd" d="M56.8037 54.5C56.8037 54.2239 56.9713 54 57.178 54L67.4294 54C67.6361 54 67.8037 54.2239 67.8037 54.5C67.8037 54.7761 67.6361 55 67.4294 55L57.178 55C56.9713 55 56.8037 54.7761 56.8037 54.5Z" fill="#007BFF"/>
<path fill-rule="evenodd" clip-rule="evenodd" d="M89.8037 54.5C89.8037 54.2239 89.9561 54 90.144 54L99.4634 54C99.6514 54 99.8037 54.2239 99.8037 54.5C99.8037 54.7761 99.6514 55 99.4634 55L90.144 55C89.9561 55 89.8037 54.7761 89.8037 54.5Z" fill="#007BFF"/>
<path fill-rule="evenodd" clip-rule="evenodd" d="M58.8037 57.5C58.8037 57.2239 59.017 57 59.2801 57L72.3273 57C72.5904 57 72.8037 57.2239 72.8037 57.5C72.8037 57.7761 72.5904 58 72.3273 58L59.2801 58C59.017 58 58.8037 57.7761 58.8037 57.5Z" fill="#007BFF"/>
<path fill-rule="evenodd" clip-rule="evenodd" d="M90.8037 57.5C90.8037 57.2239 91.0018 57 91.2461 57L103.361 57C103.606 57 103.804 57.2239 103.804 57.5C103.804 57.7761 103.606 58 103.361 58L91.2461 58C91.0018 58 90.8037 57.7761 90.8037 57.5Z" fill="#007BFF"/>
<path d="M94.7754 0C96.8865 0 98.4561 1.83993 98.4561 3.92578C98.4559 6.0115 96.8864 7.85059 94.7754 7.85059C92.6646 7.85033 91.0959 6.01136 91.0957 3.92578C91.0957 1.84008 92.6645 0.000253721 94.7754 0ZM94.7754 1.66895C93.633 1.66909 92.707 2.67955 92.707 3.92578C92.7072 5.17187 93.6331 6.1815 94.7754 6.18164C95.9178 6.18164 96.8436 5.17196 96.8438 3.92578C96.8438 2.67947 95.9178 1.66895 94.7754 1.66895Z" fill="#007BFF"/>
<path d="M95.0652 4C100.726 4 106.156 6.24904 110.159 10.252C113.697 13.7902 115.865 18.4429 116.32 23.3848C116.42 24.4641 115.531 25.3447 114.447 25.3447H75.6834C74.5995 25.3446 73.7119 24.4641 73.8113 23.3848C74.2669 18.4428 76.4343 13.7902 79.9725 10.252C83.9753 6.24911 89.4044 4.00008 95.0652 4ZM86.0594 12.0225C85.8213 11.6272 85.3087 11.4948 84.9217 11.7461C81.9958 13.6474 79.699 16.354 78.3172 19.5293C78.1286 19.9626 78.3561 20.457 78.7996 20.6201C79.2374 20.7811 79.7211 20.5578 79.909 20.1309C81.1489 17.3141 83.186 14.9084 85.7752 13.2031C86.1671 12.9449 86.3014 12.4246 86.0594 12.0225ZM89.4695 10.499C89.324 10.061 88.852 9.82063 88.4197 9.98242C87.9565 10.1558 87.5006 10.3479 87.0535 10.5586C86.6292 10.7586 86.4744 11.2767 86.699 11.6885C86.92 12.0935 87.4254 12.243 87.8436 12.0479C88.2021 11.8805 88.5673 11.7259 88.9373 11.585C89.3735 11.4185 89.6165 10.9422 89.4695 10.499Z" fill="#007BFF"/>
<path d="M79.2353 55.832C76.1153 55.832 73.3766 55.2946 71.0193 54.22C68.6966 53.1453 66.8939 51.5853 65.6113 49.54C64.3633 47.46 63.7393 44.9986 63.7393 42.156C63.7393 39.3133 64.3633 36.8693 65.6113 34.824C66.8939 32.744 68.6966 31.1666 71.0193 30.092C73.3766 29.0173 76.1153 28.48 79.2353 28.48C82.3553 28.48 85.0766 29.0173 87.3993 30.092C89.7566 31.1666 91.5593 32.744 92.8073 34.824C94.0899 36.8693 94.7313 39.3133 94.7313 42.156C94.7313 44.9986 94.0899 47.46 92.8073 49.54C91.5593 51.5853 89.7566 53.1453 87.3993 54.22C85.0766 55.2946 82.3553 55.832 79.2353 55.832ZM79.2353 44.964C79.8593 44.964 80.3446 44.7213 80.6913 44.236C81.0379 43.716 81.2113 43.0226 81.2113 42.156C81.2113 41.2893 81.0379 40.6133 80.6913 40.128C80.3446 39.608 79.8593 39.348 79.2353 39.348C78.6113 39.348 78.1259 39.608 77.7793 40.128C77.4326 40.6133 77.2593 41.2893 77.2593 42.156C77.2593 43.0226 77.4326 43.716 77.7793 44.236C78.1259 44.7213 78.6113 44.964 79.2353 44.964ZM65.7153 41.324C65.8886 41.324 66.0273 41.272 66.1313 41.168C66.2699 41.0293 66.3393 40.8733 66.3393 40.7C66.4086 38.6546 66.9979 36.9386 68.1073 35.552C69.2166 34.1306 70.5166 33.0733 72.0073 32.38C73.5326 31.6866 74.9713 31.3053 76.3233 31.236C76.4966 31.236 76.6353 31.184 76.7393 31.08C76.8779 30.9413 76.9473 30.7853 76.9473 30.612C76.9473 30.4386 76.8779 30.3 76.7393 30.196C76.6353 30.0573 76.4966 29.988 76.3233 29.988C74.8326 30.0573 73.2206 30.4906 71.4873 31.288C69.7886 32.0506 68.3153 33.2293 67.0673 34.824C65.8193 36.4186 65.1606 38.3773 65.0913 40.7C65.0913 40.8733 65.1433 41.0293 65.2473 41.168C65.3859 41.272 65.5419 41.324 65.7153 41.324Z" fill="#007BFF"/>
<path d="M112.235 55.832C109.115 55.832 106.377 55.2946 104.019 54.22C101.697 53.1453 99.8939 51.5853 98.6113 49.54C97.3633 47.46 96.7393 44.9986 96.7393 42.156C96.7393 39.3133 97.3633 36.8693 98.6113 34.824C99.8939 32.744 101.697 31.1666 104.019 30.092C106.377 29.0173 109.115 28.48 112.235 28.48C115.355 28.48 118.077 29.0173 120.399 30.092C122.757 31.1666 124.559 32.744 125.807 34.824C127.09 36.8693 127.731 39.3133 127.731 42.156C127.731 44.9986 127.09 47.46 125.807 49.54C124.559 51.5853 122.757 53.1453 120.399 54.22C118.077 55.2946 115.355 55.832 112.235 55.832ZM112.235 44.964C112.859 44.964 113.345 44.7213 113.691 44.236C114.038 43.716 114.211 43.0226 114.211 42.156C114.211 41.2893 114.038 40.6133 113.691 40.128C113.345 39.608 112.859 39.348 112.235 39.348C111.611 39.348 111.126 39.608 110.779 40.128C110.433 40.6133 110.259 41.2893 110.259 42.156C110.259 43.0226 110.433 43.716 110.779 44.236C111.126 44.7213 111.611 44.964 112.235 44.964ZM98.7153 41.324C98.8886 41.324 99.0273 41.272 99.1313 41.168C99.2699 41.0293 99.3393 40.8733 99.3393 40.7C99.4086 38.6546 99.9979 36.9386 101.107 35.552C102.217 34.1306 103.517 33.0733 105.007 32.38C106.533 31.6866 107.971 31.3053 109.323 31.236C109.497 31.236 109.635 31.184 109.739 31.08C109.878 30.9413 109.947 30.7853 109.947 30.612C109.947 30.4386 109.878 30.3 109.739 30.196C109.635 30.0573 109.497 29.988 109.323 29.988C107.833 30.0573 106.221 30.4906 104.487 31.288C102.789 32.0506 101.315 33.2293 100.067 34.824C98.8193 36.4186 98.1606 38.3773 98.0913 40.7C98.0913 40.8733 98.1433 41.0293 98.2473 41.168C98.3859 41.272 98.5419 41.324 98.7153 41.324Z" fill="#007BFF"/>
<path d="M138.916 65.972C136.663 65.972 134.947 65.3827 133.768 64.204C132.589 63.06 132 61.344 132 59.056V35.084C132 33.0386 132.589 31.4786 133.768 30.404C134.981 29.2946 136.645 28.74 138.76 28.74C140.805 28.74 142.677 29.1213 144.376 29.884C143.717 30.5426 143.076 31.3226 142.452 32.224C141.828 33.0906 141.447 33.784 141.308 34.304L141.256 34.564C141.256 34.8066 141.308 34.9973 141.412 35.136C141.551 35.2746 141.707 35.344 141.88 35.344C142.192 35.344 142.469 35.1186 142.712 34.668C143.787 32.796 145.035 31.3053 146.456 30.196C147.912 29.052 149.715 28.48 151.864 28.48C155.157 28.48 157.705 29.7453 159.508 32.276C161.345 34.8066 162.264 38.1 162.264 42.156C162.264 44.7906 161.831 47.148 160.964 49.228C160.132 51.2733 158.901 52.8853 157.272 54.064C155.643 55.2427 153.701 55.832 151.448 55.832C149.299 55.832 147.6 55.4506 146.352 54.688C145.104 53.9253 143.891 52.868 142.712 51.516C142.504 51.2733 142.279 51.152 142.036 51.152C141.793 51.152 141.603 51.256 141.464 51.464C141.36 51.6373 141.343 51.8626 141.412 52.14C141.585 52.6253 142.053 53.2667 142.816 54.064C143.579 54.8613 144.567 55.6413 145.78 56.404V59.16C145.78 61.3786 145.191 63.06 144.012 64.204C142.833 65.3827 141.135 65.972 138.916 65.972ZM147.236 39.4C146.785 39.4 146.421 39.6426 146.144 40.128C145.867 40.5786 145.728 41.2546 145.728 42.156C145.728 43.0226 145.867 43.6813 146.144 44.132C146.421 44.5826 146.785 44.808 147.236 44.808C147.687 44.808 148.051 44.5826 148.328 44.132C148.605 43.6813 148.744 43.0226 148.744 42.156C148.744 41.2893 148.605 40.6133 148.328 40.128C148.051 39.6426 147.687 39.4 147.236 39.4ZM133.976 38.048C134.149 38.048 134.288 37.996 134.392 37.892C134.531 37.7533 134.6 37.5973 134.6 37.424C134.531 35.136 134.825 33.5413 135.484 32.64C136.177 31.704 137.356 31.2706 139.02 31.34C139.193 31.34 139.332 31.288 139.436 31.184C139.575 31.0453 139.644 30.8893 139.644 30.716C139.644 30.5426 139.575 30.404 139.436 30.3C139.332 30.1613 139.193 30.092 139.02 30.092C136.94 30.0573 135.449 30.6293 134.548 31.808C133.681 32.952 133.283 34.824 133.352 37.424C133.352 37.5973 133.404 37.7533 133.508 37.892C133.647 37.996 133.803 38.048 133.976 38.048Z" fill="white"/>
</svg>
