<svg width="256" height="256" viewBox="0 0 256 256" fill="none" xmlns="http://www.w3.org/2000/svg">
<rect width="256" height="256" fill="#181C2E"/>
<path fill-rule="evenodd" clip-rule="evenodd" d="M40.1201 188.845C40.1201 188.098 40.5422 187.493 41.063 187.493H55.4192C55.9399 187.493 56.362 188.098 56.362 188.845C56.362 189.592 55.9399 190.197 55.4192 190.197H41.063C40.5422 190.197 40.1201 189.592 40.1201 188.845Z" fill="#007BFF"/>
<path fill-rule="evenodd" clip-rule="evenodd" d="M129.452 188.845C129.452 188.098 129.804 187.493 130.238 187.493H142.201C142.635 187.493 142.987 188.098 142.987 188.845C142.987 189.592 142.635 190.197 142.201 190.197H130.238C129.804 190.197 129.452 189.592 129.452 188.845Z" fill="#007BFF"/>
<path fill-rule="evenodd" clip-rule="evenodd" d="M32 196.958C32 196.211 32.4537 195.605 33.0133 195.605L60.7635 195.605C61.3231 195.605 61.7768 196.211 61.7768 196.958C61.7768 197.704 61.3231 198.31 60.7635 198.31L33.0133 198.31C32.4537 198.31 32 197.704 32 196.958Z" fill="#007BFF"/>
<path fill-rule="evenodd" clip-rule="evenodd" d="M121.332 196.958C121.332 196.211 121.744 195.605 122.253 195.605L147.481 195.605C147.989 195.605 148.402 196.211 148.402 196.958C148.402 197.704 147.989 198.31 147.481 198.31L122.253 198.31C121.744 198.31 121.332 197.704 121.332 196.958Z" fill="#007BFF"/>
<path fill-rule="evenodd" clip-rule="evenodd" d="M37.4141 205.07C37.4141 204.324 37.9914 203.718 38.7037 203.718L74.0222 203.718C74.7344 203.718 75.3118 204.324 75.3118 205.07C75.3118 205.817 74.7344 206.422 74.0222 206.422L38.7037 206.422C37.9914 206.422 37.4141 205.817 37.4141 205.07Z" fill="#007BFF"/>
<path fill-rule="evenodd" clip-rule="evenodd" d="M124.039 205.07C124.039 204.324 124.575 203.718 125.237 203.718L158.032 203.718C158.694 203.718 159.23 204.324 159.23 205.07C159.23 205.817 158.694 206.422 158.032 206.422L125.237 206.422C124.575 206.422 124.039 205.817 124.039 205.07Z" fill="#007BFF"/>
<path fill-rule="evenodd" clip-rule="evenodd" d="M134.79 54.8853C132.435 54.8853 130.141 57.0395 130.141 60.193C130.141 63.3464 132.435 65.5006 134.79 65.5006C137.145 65.5006 139.439 63.3464 139.439 60.193C139.439 57.0395 137.145 54.8853 134.79 54.8853ZM124.828 60.193C124.828 54.5524 129.075 49.5776 134.79 49.5776C140.505 49.5776 144.752 54.5524 144.752 60.193C144.752 65.8335 140.505 70.8083 134.79 70.8083C129.075 70.8083 124.828 65.8335 124.828 60.193Z" fill="#007BFF"/>
<path d="M135.576 60.395C150.9 60.395 165.597 66.4756 176.433 77.3003C186.011 86.8685 191.879 99.4506 193.112 112.815C193.382 115.734 190.977 118.116 188.043 118.116H83.1094C80.1751 118.116 77.7708 115.734 78.04 112.815C79.2733 99.4506 85.1417 86.8685 94.7197 77.3003C105.556 66.4757 120.252 60.395 135.576 60.395ZM111.194 82.0884C110.55 81.0191 109.161 80.6622 108.113 81.3423C100.193 86.4838 93.9768 93.8027 90.2363 102.389C89.726 103.561 90.3408 104.898 91.541 105.339C92.7262 105.775 94.0362 105.172 94.5449 104.017C97.9012 96.3995 103.416 89.8942 110.425 85.2827C111.486 84.5843 111.85 83.176 111.194 82.0884ZM120.427 77.9702C120.033 76.7851 118.755 76.1331 117.584 76.5708C116.33 77.0398 115.096 77.5605 113.886 78.1304C112.737 78.6711 112.319 80.0714 112.927 81.1851C113.525 82.2807 114.892 82.6865 116.024 82.1587C116.995 81.7061 117.982 81.288 118.984 80.9067C120.166 80.457 120.825 79.1693 120.427 77.9702Z" fill="#007BFF"/>
<path d="M92.7208 200.56C84.275 200.56 76.8615 199.106 70.4803 196.2C64.1928 193.294 59.3131 189.076 55.8409 183.545C52.4626 177.92 50.7734 171.264 50.7734 163.577C50.7734 155.889 52.4626 149.28 55.8409 143.749C59.3131 138.125 64.1928 133.859 70.4803 130.953C76.8615 128.047 84.275 126.594 92.7208 126.594C101.167 126.594 108.533 128.047 114.821 130.953C121.202 133.859 126.082 138.125 129.46 143.749C132.932 149.28 134.668 155.889 134.668 163.577C134.668 171.264 132.932 177.92 129.46 183.545C126.082 189.076 121.202 193.294 114.821 196.2C108.533 199.106 101.167 200.56 92.7208 200.56ZM92.7208 171.17C94.41 171.17 95.7238 170.514 96.6622 169.201C97.6006 167.795 98.0698 165.92 98.0698 163.577C98.0698 161.233 97.6006 159.405 96.6622 158.093C95.7238 156.686 94.41 155.983 92.7208 155.983C91.0317 155.983 89.7179 156.686 88.7795 158.093C87.841 159.405 87.3718 161.233 87.3718 163.577C87.3718 165.92 87.841 167.795 88.7795 169.201C89.7179 170.514 91.0317 171.17 92.7208 171.17ZM56.1224 161.327C56.5916 161.327 56.967 161.186 57.2485 160.905C57.6239 160.53 57.8116 160.108 57.8116 159.639C57.9993 154.108 59.5946 149.468 62.5975 145.718C65.6005 141.874 69.1196 139.015 73.1548 137.14C77.2838 135.265 81.1783 134.234 84.8381 134.047C85.3073 134.047 85.6827 133.906 85.9642 133.625C86.3396 133.25 86.5273 132.828 86.5273 132.359C86.5273 131.89 86.3396 131.515 85.9642 131.234C85.6827 130.859 85.3073 130.672 84.8381 130.672C80.8029 130.859 76.4392 132.031 71.7471 134.187C67.1489 136.25 63.1606 139.437 59.7823 143.749C56.404 148.062 54.621 153.358 54.4333 159.639C54.4333 160.108 54.574 160.53 54.8556 160.905C55.2309 161.186 55.6532 161.327 56.1224 161.327Z" fill="#007BFF"/>
<path d="M182.053 200.56C173.607 200.56 166.194 199.106 159.812 196.2C153.525 193.294 148.645 189.076 145.173 183.545C141.795 177.92 140.105 171.264 140.105 163.577C140.105 155.889 141.795 149.28 145.173 143.749C148.645 138.125 153.525 133.859 159.812 130.953C166.194 128.047 173.607 126.594 182.053 126.594C190.499 126.594 197.865 128.047 204.153 130.953C210.534 133.859 215.414 138.125 218.792 143.749C222.264 149.28 224 155.889 224 163.577C224 171.264 222.264 177.92 218.792 183.545C215.414 189.076 210.534 193.294 204.153 196.2C197.865 199.106 190.499 200.56 182.053 200.56ZM182.053 171.17C183.742 171.17 185.056 170.514 185.994 169.201C186.933 167.795 187.402 165.92 187.402 163.577C187.402 161.233 186.933 159.405 185.994 158.093C185.056 156.686 183.742 155.983 182.053 155.983C180.364 155.983 179.05 156.686 178.111 158.093C177.173 159.405 176.704 161.233 176.704 163.577C176.704 165.92 177.173 167.795 178.111 169.201C179.05 170.514 180.364 171.17 182.053 171.17ZM145.454 161.327C145.924 161.327 146.299 161.186 146.581 160.905C146.956 160.53 147.144 160.108 147.144 159.639C147.331 154.108 148.927 149.468 151.93 145.718C154.933 141.874 158.452 139.015 162.487 137.14C166.616 135.265 170.51 134.234 174.17 134.047C174.639 134.047 175.015 133.906 175.296 133.625C175.672 133.25 175.859 132.828 175.859 132.359C175.859 131.89 175.672 131.515 175.296 131.234C175.015 130.859 174.639 130.672 174.17 130.672C170.135 130.859 165.771 132.031 161.079 134.187C156.481 136.25 152.493 139.437 149.114 143.749C145.736 148.062 143.953 153.358 143.765 159.639C143.765 160.108 143.906 160.53 144.188 160.905C144.563 161.186 144.985 161.327 145.454 161.327Z" fill="#007BFF"/>
</svg>
