<svg width="140" height="147" viewBox="0 0 140 147" fill="none" xmlns="http://www.w3.org/2000/svg">
<path d="M80.6757 66.1042C78.1783 84.9162 87.4703 101.67 101.428 103.522C115.386 105.375 128.726 91.6256 131.222 72.8136C133.72 54.0002 124.429 37.2482 110.47 35.3949C96.5117 33.5429 83.173 47.2922 80.6757 66.1042Z" fill="white" stroke="#262324" stroke-width="2.66667" stroke-miterlimit="10" stroke-linecap="round" stroke-linejoin="round"/>
<path d="M103.304 74.8029L116.512 73.7335C117.354 60.9362 112.144 50.1962 104.216 49.1442C95.7182 48.0162 87.3235 58.4442 85.4662 72.4362C83.6102 86.4269 88.9929 98.6829 97.4902 99.8109C104.918 100.798 112.265 92.9549 115.238 81.6215L103.304 74.8029Z" fill="#262324"/>
<path d="M139.826 37.1497C139.826 37.1497 118.758 4.75899 90.106 24.2083C90.106 24.2083 98.4433 3.82432 119.662 11.2203C140.489 18.4803 139.826 37.1497 139.826 37.1497Z" fill="#262324"/>
<path d="M1.73915 55.6274C-0.758183 74.4394 8.53382 91.1928 22.4925 93.0448C36.4498 94.8981 49.7898 81.1488 52.2858 62.3368C54.7831 43.5234 45.4925 26.7714 31.5338 24.9181C17.5752 23.0661 4.23648 36.8154 1.73915 55.6274Z" fill="white" stroke="#262324" stroke-width="2.66667" stroke-miterlimit="10" stroke-linecap="round" stroke-linejoin="round"/>
<path d="M24.367 64.3265L37.575 63.2559C38.4177 50.4599 33.207 39.7199 25.279 38.6679C16.7817 37.5399 8.38702 47.9679 6.52969 61.9585C4.67369 75.9505 10.0564 88.2065 18.5537 89.3345C25.9817 90.3199 33.3284 82.4772 36.3017 71.1439L24.367 64.3265Z" fill="#262324"/>
<path d="M57.5551 21.3484C57.5551 21.3484 33.0564 -4.05828 6.83105 18.5577C6.83105 18.5577 13.7164 -2.65828 34.9604 0.279055C56.8084 3.30039 57.5551 21.3484 57.5551 21.3484Z" fill="#262324"/>
<path d="M63.2425 87.8769C63.2425 87.8769 41.1211 77.3022 36.8425 93.9182C32.5638 110.534 60.9785 116.92 61.6785 105.797" stroke="#262324" stroke-width="2.66667" stroke-miterlimit="10" stroke-linecap="round" stroke-linejoin="round"/>
<path d="M9.10498 113.502C9.10498 113.502 20.7103 99.8194 37.8583 121.986C59.429 149.866 78.8956 105.649 101.764 130.339" stroke="#262324" stroke-width="2.66667" stroke-miterlimit="10" stroke-linecap="round" stroke-linejoin="round"/>
<path d="M96.355 145.156C97.015 134.678 102.78 126.344 114.204 130.757" stroke="#262324" stroke-width="2.66667" stroke-miterlimit="10" stroke-linecap="round" stroke-linejoin="round"/>
</svg>
