<svg width="207" height="178" viewBox="0 0 207 178" fill="none" xmlns="http://www.w3.org/2000/svg">
<path d="M93.5624 99.7103C93.5624 99.7103 76.3224 89.8463 72.3944 97.241C68.525 104.525 79.5704 114.724 79.5704 114.724" stroke="#262324" stroke-width="2.66667" stroke-miterlimit="10" stroke-linecap="round" stroke-linejoin="round"/>
<path d="M9.23427 146.033C17.4089 152.186 29.4169 151.86 37.9116 147.765C43.8729 144.892 49.6263 139.162 50.6609 129.665C52.9183 108.945 31.9156 103.256 25.1316 103.086C14.1449 102.813 0.290269 109.734 0.00360215 126.178C-0.144398 134.652 4.29027 142.312 9.23427 146.033Z" fill="#DE6848"/>
<path d="M165.326 151.104C173.501 157.258 185.509 156.931 194.003 152.836C199.965 149.963 205.719 144.234 206.753 134.736C209.01 114.016 188.007 108.327 181.223 108.158C170.237 107.884 156.383 114.806 156.095 131.25C155.947 139.723 160.382 147.383 165.326 151.104Z" fill="#DE6848"/>
<path d="M85.9492 137.667C85.9492 137.667 97.5452 111.572 105.02 133.727C105.02 133.727 113.464 112.25 126.76 138.726C126.76 138.726 121.544 152.34 107.775 154.307C94.0052 156.275 85.9492 137.667 85.9492 137.667Z" fill="#DE6848"/>
<path d="M85.9492 160.6C85.9492 160.6 97.5452 134.505 105.02 156.66C105.02 156.66 112.261 134.124 125.559 160.6C125.559 160.6 121.544 175.273 107.775 177.24C94.0052 179.208 85.9492 160.6 85.9492 160.6Z" fill="#DE6848"/>
<path d="M62.4912 131.146C62.4912 131.146 102.639 148.039 146.505 135.809C146.505 135.809 135.201 168.347 101.178 163.863C67.7699 159.461 62.4912 131.146 62.4912 131.146Z" fill="white" stroke="#262324" stroke-width="2.66667" stroke-miterlimit="10" stroke-linecap="round" stroke-linejoin="round"/>
<path d="M149.824 122.134C149.824 122.134 140.49 136.69 155.998 146.919" stroke="#262324" stroke-width="2.66667" stroke-miterlimit="10" stroke-linecap="round" stroke-linejoin="round"/>
<path d="M55.4277 141.778C55.4277 141.778 68.9464 130.995 57.5491 116.323" stroke="#262324" stroke-width="2.66667" stroke-miterlimit="10" stroke-linecap="round" stroke-linejoin="round"/>
<path d="M75.2899 135.278C75.2899 135.278 71.8205 144.778 73.4445 150.76" stroke="#262324" stroke-width="2.66667" stroke-miterlimit="10" stroke-linecap="round" stroke-linejoin="round"/>
<path d="M89.5614 138.725C89.5614 138.725 84.6228 148.713 86.2948 158.497" stroke="#262324" stroke-width="2.66667" stroke-miterlimit="10" stroke-linecap="round" stroke-linejoin="round"/>
<path d="M120.515 162.165C120.515 162.165 125.557 154.453 121.975 140.873" stroke="#262324" stroke-width="2.66667" stroke-miterlimit="10" stroke-linecap="round" stroke-linejoin="round"/>
<path d="M105.753 140.062C105.753 140.062 102.016 157.392 104.497 164.188" stroke="#262324" stroke-width="2.66667" stroke-miterlimit="10" stroke-linecap="round" stroke-linejoin="round"/>
<path d="M136.255 138.725C136.255 138.725 136.648 146.859 134.737 153.383" stroke="#262324" stroke-width="2.66667" stroke-miterlimit="10" stroke-linecap="round" stroke-linejoin="round"/>
<path d="M118.209 66.6276C117.271 87.4636 129.042 104.918 144.502 105.614C159.962 106.31 173.254 89.9836 174.193 69.1476C175.13 48.3116 163.358 30.857 147.899 30.161C132.439 29.465 119.146 45.7916 118.209 66.6276Z" fill="white" stroke="#262324" stroke-width="2.66667" stroke-miterlimit="10" stroke-linecap="round" stroke-linejoin="round"/>
<path d="M174.156 63.9516C174.156 63.9516 182.223 71.8409 192.059 61.2183" stroke="#262324" stroke-width="2.66667" stroke-miterlimit="10" stroke-linecap="round" stroke-linejoin="round"/>
<path d="M174.156 75.008C174.156 75.008 181.508 83.2507 188.999 75.0507" stroke="#262324" stroke-width="2.66667" stroke-miterlimit="10" stroke-linecap="round" stroke-linejoin="round"/>
<path d="M152.64 76.3331L166.999 73.9011C166.7 59.8091 159.97 48.5477 151.19 48.1531C141.778 47.7291 133.583 59.9477 132.884 75.4437C132.187 90.9397 139.251 103.845 148.663 104.269C156.888 104.64 164.184 95.3517 166.358 82.6584L152.64 76.3331Z" fill="#262324"/>
<path d="M182.557 22.7622C149.876 -14.4151 117.277 19.5169 117.277 19.5169C117.277 19.5169 129.716 -5.05246 158.881 0.942207C177.471 4.76354 182.557 22.7622 182.557 22.7622Z" fill="#262324"/>
<path d="M30.7808 62.6916C29.8435 83.5276 41.6142 100.982 57.0742 101.678C72.5342 102.374 85.8262 86.0476 86.7648 65.2116C87.7022 44.3756 75.9302 26.9209 60.4715 26.2249C45.0115 25.5289 31.7182 41.8556 30.7808 62.6916Z" fill="white" stroke="#262324" stroke-width="2.66667" stroke-miterlimit="10" stroke-linecap="round" stroke-linejoin="round"/>
<path d="M30.7813 62.6914C30.7813 62.6914 21.7559 71.8407 11.9199 61.2181" stroke="#262324" stroke-width="2.66667" stroke-miterlimit="10" stroke-linecap="round" stroke-linejoin="round"/>
<path d="M31.4591 73.5328C31.4591 73.5328 22.4725 83.2501 14.9805 75.0501" stroke="#262324" stroke-width="2.66667" stroke-miterlimit="10" stroke-linecap="round" stroke-linejoin="round"/>
<path d="M65.2136 72.397L79.5723 69.965C79.2736 55.873 72.543 44.6117 63.763 44.217C54.351 43.793 46.1563 56.0117 45.4576 71.5077C44.7603 87.0037 51.8243 99.909 61.2363 100.333C69.4616 100.704 76.7576 91.4157 78.931 78.7224L65.2136 72.397Z" fill="#262324"/>
<path d="M17.2881 22.7622C49.9694 -14.4151 82.5681 19.5169 82.5681 19.5169C82.5681 19.5169 70.1294 -5.05246 40.9641 0.942207C22.3748 4.76354 17.2881 22.7622 17.2881 22.7622Z" fill="#262324"/>
</svg>
