<svg width="164" height="158" viewBox="0 0 164 158" fill="none" xmlns="http://www.w3.org/2000/svg">
<path d="M100.929 66.1042C98.4318 84.9162 107.724 101.67 121.681 103.522C135.64 105.375 148.98 91.6256 151.476 72.8136C153.973 54.0002 144.682 37.2482 130.724 35.3949C116.765 33.5429 103.426 47.2922 100.929 66.1042Z" fill="white" stroke="#262324" stroke-width="2.66667" stroke-miterlimit="10" stroke-linecap="round" stroke-linejoin="round"/>
<path d="M123.557 74.8029L136.765 73.7335C137.608 60.9362 132.397 50.1962 124.469 49.1442C115.972 48.0162 107.577 58.4442 105.72 72.4362C103.864 86.4269 109.246 98.6829 117.744 99.8109C125.172 100.798 132.518 92.9549 135.492 81.6215L123.557 74.8029Z" fill="#262324"/>
<path d="M97.8136 26.876C97.8136 26.876 94.9683 40.6173 111.184 38.3267C131.359 35.476 145.512 8.28665 160.118 28.4C160.118 28.4 158.351 12.28 144.916 13.752C128.123 15.592 111.982 33.3507 97.8136 26.876Z" fill="#262324"/>
<path d="M125.945 82.5191C117.873 81.7858 109.77 81.9698 101.674 82.1058C104.424 93.6124 111.904 102.224 121.681 103.522C131.788 104.863 141.568 98.0218 147.144 87.0045C140.188 85.0165 133.212 83.1791 125.945 82.5191Z" fill="#C2A9BC" stroke="#262324" stroke-width="2.66667" stroke-miterlimit="10" stroke-linecap="round" stroke-linejoin="round"/>
<path d="M21.9926 55.6274C19.4952 74.4394 28.7872 91.1928 42.7446 93.0448C56.7032 94.8981 70.0432 81.1488 72.5392 62.3368C75.0366 43.5234 65.7459 26.7714 51.7872 24.9181C37.8286 23.0661 24.4899 36.8154 21.9926 55.6274Z" fill="white" stroke="#262324" stroke-width="2.66667" stroke-miterlimit="10" stroke-linecap="round" stroke-linejoin="round"/>
<path d="M52.3861 63.4323L65.5927 62.3616C66.4367 49.5656 61.2261 38.8256 53.2981 37.7736C44.8007 36.6456 36.4061 47.0736 34.5487 61.0643C32.6927 75.0563 38.0754 87.3123 46.5727 88.4403C54.0007 89.427 61.3474 81.583 64.3207 70.2496L52.3861 63.4323Z" fill="#262324"/>
<path d="M45.745 71.3712C38.0464 69.6872 30.1744 69.2992 22.3384 69.7645C24.6957 82.1965 32.4464 91.6779 42.745 93.0445C52.029 94.2765 61.0344 88.6032 66.7624 79.1325C60.1104 75.6819 53.1037 72.9805 45.745 71.3712Z" fill="#C2A9BC" stroke="#262324" stroke-width="2.66667" stroke-miterlimit="10" stroke-linecap="round" stroke-linejoin="round"/>
<path d="M77.8085 21.3484C77.8085 21.3484 53.3098 -4.05828 27.0845 18.5577C27.0845 18.5577 33.9698 -2.65828 55.2138 0.279055C77.0618 3.30039 77.8085 21.3484 77.8085 21.3484Z" fill="#262324"/>
<path d="M83.4954 87.8769C83.4954 87.8769 61.3741 77.3022 57.0954 93.9182C52.8167 110.534 81.2314 116.92 81.9314 105.797" stroke="#262324" stroke-width="2.66667" stroke-miterlimit="10" stroke-linecap="round" stroke-linejoin="round"/>
<path d="M146.566 115.901C146.566 115.901 58.3423 152.902 15.6196 92.9034" stroke="#262324" stroke-width="2.66667" stroke-miterlimit="10" stroke-linecap="round" stroke-linejoin="round"/>
<path d="M148.43 101.882C148.43 101.882 139.444 109 148.287 117.42C154.031 122.888 161.975 117.607 161.975 117.607" stroke="#262324" stroke-width="2.66667" stroke-miterlimit="10" stroke-linecap="round" stroke-linejoin="round"/>
<path d="M17.2015 80.0024C17.2015 80.0024 20.9335 89.3304 12.7962 91.5277C4.6575 93.7251 1.3335 86.9464 1.3335 86.9464" stroke="#262324" stroke-width="2.66667" stroke-miterlimit="10" stroke-linecap="round" stroke-linejoin="round"/>
<path d="M121.5 122.404C121.5 122.404 105.536 149.848 70.0769 141.943C44.0582 136.141 35.1636 111.272 35.1636 111.272C35.1636 111.272 71.4422 135.972 121.5 122.404Z" fill="white"/>
<path d="M121.5 122.404C121.5 122.404 105.536 149.848 70.0769 141.943C44.0582 136.141 35.1636 111.272 35.1636 111.272C35.1636 111.272 71.4422 135.972 121.5 122.404Z" stroke="#262324" stroke-width="2.66667" stroke-miterlimit="10" stroke-linecap="round" stroke-linejoin="round"/>
<path d="M109.597 145.259C109.597 145.259 92.7228 158.126 75.1521 155.89C57.5814 153.654 47.0654 137.126 47.0654 137.126" stroke="#262324" stroke-width="2.66667" stroke-miterlimit="10" stroke-linecap="round" stroke-linejoin="round"/>
<path d="M52.0707 120.071C51.5054 120.037 49.3854 127.323 50.944 132.66" stroke="#262324" stroke-width="2.66667" stroke-miterlimit="10" stroke-linecap="round" stroke-linejoin="round"/>
<path d="M64.1873 123.172C64.1873 123.172 61.2847 130.636 61.2847 139.038" stroke="#262324" stroke-width="2.66667" stroke-miterlimit="10" stroke-linecap="round" stroke-linejoin="round"/>
<path d="M77.3514 126.409L75.498 142.901" stroke="#262324" stroke-width="2.66667" stroke-miterlimit="10" stroke-linecap="round" stroke-linejoin="round"/>
<path d="M92.4681 126.409C92.4681 126.409 93.3134 133.365 90.4067 142.743" stroke="#262324" stroke-width="2.66667" stroke-miterlimit="10" stroke-linecap="round" stroke-linejoin="round"/>
<path d="M105.742 125.542C105.742 125.542 106.839 129.27 104.99 137.686" stroke="#262324" stroke-width="2.66667" stroke-miterlimit="10" stroke-linecap="round" stroke-linejoin="round"/>
</svg>
