<svg width="136" height="134" viewBox="0 0 136 134" fill="none" xmlns="http://www.w3.org/2000/svg">
<path d="M79.0957 6.60869C79.0957 6.60869 75.3771 17.578 102.433 17.4074C129.49 17.2367 135.984 19.9607 135.984 19.9607C135.984 19.9607 127.938 10.382 103.833 10.6127C79.7277 10.8434 79.0957 6.60869 79.0957 6.60869Z" fill="#262324"/>
<path d="M82.1796 58.4065C79.6822 77.2185 88.9742 93.9718 102.933 95.8238C116.89 97.6772 130.23 83.9278 132.726 65.1158C135.224 46.3025 125.933 29.5505 111.974 27.6972C98.0156 25.8452 84.6769 39.5945 82.1796 58.4065Z" fill="white" stroke="#262324" stroke-width="2.66667" stroke-miterlimit="10" stroke-linecap="round" stroke-linejoin="round"/>
<path d="M104.807 67.1051L118.015 66.0358C118.858 53.2385 113.647 42.4985 105.719 41.4465C97.2221 40.3185 88.8275 50.7465 86.9701 64.7385C85.1141 78.7291 90.4968 90.9851 98.9941 92.1131C106.422 93.0998 113.769 85.2571 116.742 73.9238L104.807 67.1051Z" fill="#262324"/>
<path d="M97.5395 49.1544C105.918 49.6598 114.271 50.4798 122.635 51.1678C125.938 51.4398 129.243 51.6798 132.55 51.9131C130.411 39.0224 122.53 29.0984 111.974 27.6971C100.557 26.1824 89.5568 35.1078 84.5635 48.7024C88.8915 48.7264 93.2195 48.8944 97.5395 49.1544Z" fill="#C2A9BC" stroke="#262324" stroke-width="2.66667" stroke-miterlimit="10" stroke-linecap="round" stroke-linejoin="round"/>
<path d="M105.839 64.9236C100.907 64.4462 95.9732 63.9862 91.0345 63.5729C87.9785 63.3169 84.8945 62.9689 81.8119 62.8396C81.1959 79.7836 90.0812 94.1182 102.932 95.8236C116.307 97.5996 129.105 85.0476 132.351 67.4463C123.507 66.6676 114.675 65.7782 105.839 64.9236Z" fill="#C2A9BC" stroke="#262324" stroke-width="2.66667" stroke-miterlimit="10" stroke-linecap="round" stroke-linejoin="round"/>
<path d="M69.1943 5.69763C69.1943 5.69763 69.8237 17.263 43.8117 9.81497C17.7997 2.3683 10.813 3.24297 10.813 3.24297C10.813 3.24297 21.1397 -3.8157 44.2917 2.89497C67.445 9.60563 69.1943 5.69763 69.1943 5.69763Z" fill="#262324"/>
<path d="M52.2802 54.7531C49.6202 73.5438 36.1629 87.1758 22.2216 85.2025C8.27891 83.2291 -0.866426 66.3971 1.79357 47.6078C4.45224 28.8171 17.9109 15.1838 31.8522 17.1571C45.7936 19.1305 54.9402 35.9625 52.2802 54.7531Z" fill="white" stroke="#262324" stroke-width="2.66667" stroke-miterlimit="10" stroke-linecap="round" stroke-linejoin="round"/>
<path d="M28.146 57.0395L15.714 52.4529C18.346 39.9022 26.2567 30.9609 34.1753 32.0822C42.662 33.2835 47.9393 45.5862 45.962 59.5609C43.9833 73.5355 35.4993 83.8902 27.0127 82.6889C19.594 81.6395 14.6287 72.1089 14.8167 60.3929L28.146 57.0395Z" fill="#262324"/>
<path d="M39.9781 41.7082C31.7727 39.9388 23.5074 38.4802 15.2661 36.8922C12.0127 36.2642 8.76473 35.6055 5.51807 34.9402C11.0474 23.1015 21.3101 15.6655 31.8527 17.1575C43.2567 18.7722 51.4474 30.3295 52.5967 44.7668C48.4221 43.6242 44.2087 42.6202 39.9781 41.7082Z" fill="#C2A9BC" stroke="#262324" stroke-width="2.66667" stroke-miterlimit="10" stroke-linecap="round" stroke-linejoin="round"/>
<path d="M27.74 54.661C32.6187 55.529 37.4947 56.413 42.3613 57.345C45.3733 57.921 48.4373 58.417 51.44 59.121C47.4733 75.605 35.056 87.0196 22.2213 85.2036C8.86267 83.313 -0.0853272 67.7783 1.52801 49.953C10.2547 51.5836 19 53.105 27.74 54.661Z" fill="#C2A9BC" stroke="#262324" stroke-width="2.66667" stroke-miterlimit="10" stroke-linecap="round" stroke-linejoin="round"/>
<path d="M64.7456 80.1794C64.7456 80.1794 42.6243 69.6047 38.3456 86.2207C34.0683 102.837 62.4816 109.222 63.1816 98.0994" stroke="#262324" stroke-width="2.66667" stroke-miterlimit="10" stroke-linecap="round" stroke-linejoin="round"/>
<path d="M46.377 130.428C46.377 130.428 55.793 109.216 88.8476 118.635" stroke="#262324" stroke-width="2.66667" stroke-miterlimit="10" stroke-linecap="round" stroke-linejoin="round"/>
<path d="M94.8256 109.416C94.8256 109.416 81.463 121.885 97.991 127.958" stroke="#262324" stroke-width="2.66667" stroke-miterlimit="10" stroke-linecap="round" stroke-linejoin="round"/>
<path d="M54.3862 127.958C54.3862 127.958 72.3209 139.941 77.2436 124.408" stroke="#262324" stroke-width="2.66667" stroke-miterlimit="10" stroke-linecap="round" stroke-linejoin="round"/>
</svg>
