<svg width="164" height="147" viewBox="0 0 164 147" fill="none" xmlns="http://www.w3.org/2000/svg">
<path d="M100.93 66.1045C98.4322 84.9165 107.724 101.67 121.682 103.522C135.64 105.375 148.98 91.6258 151.476 72.8138C153.974 54.0005 144.683 37.2485 130.724 35.3952C116.766 33.5432 103.427 47.2925 100.93 66.1045Z" fill="white" stroke="#262324" stroke-width="2.66667" stroke-miterlimit="10" stroke-linecap="round" stroke-linejoin="round"/>
<path d="M123.557 74.8031L136.765 73.7324C137.608 60.9364 132.397 50.1964 124.469 49.1444C115.972 48.0164 107.577 58.4444 105.72 72.4351C103.864 86.4271 109.246 98.6831 117.744 99.8111C125.172 100.796 132.518 92.9538 135.492 81.6204L123.557 74.8031Z" fill="#262324"/>
<path d="M160.08 37.1494C160.08 37.1494 139.012 4.75875 110.36 24.2081C110.36 24.2081 118.697 3.82408 139.916 11.2201C160.743 18.4801 160.08 37.1494 160.08 37.1494Z" fill="#262324"/>
<path d="M21.9931 55.6277C19.4957 74.4397 28.7877 91.193 42.7451 93.045C56.7037 94.8983 70.0437 81.149 72.5397 62.337C75.0371 43.5237 65.7464 26.7717 51.7877 24.9184C37.8291 23.0664 24.4904 36.8157 21.9931 55.6277Z" fill="white" stroke="#262324" stroke-width="2.66667" stroke-miterlimit="10" stroke-linecap="round" stroke-linejoin="round"/>
<path d="M44.6204 64.3266L57.8284 63.2559C58.6711 50.4599 53.4604 39.7199 45.5324 38.6679C37.0351 37.5399 28.6404 47.9679 26.7831 61.9586C24.9271 75.9506 30.3098 88.2066 38.8071 89.3346C46.2351 90.3212 53.5818 82.4772 56.5551 71.1439L44.6204 64.3266Z" fill="#262324"/>
<path d="M77.8085 21.3484C77.8085 21.3484 53.3098 -4.05828 27.0845 18.5577C27.0845 18.5577 33.9698 -2.65828 55.2138 0.279055C77.0618 3.30039 77.8085 21.3484 77.8085 21.3484Z" fill="#262324"/>
<path d="M146.566 115.901C146.566 115.901 58.3423 152.902 15.6196 92.9037" stroke="#262324" stroke-width="2.66667" stroke-miterlimit="10" stroke-linecap="round" stroke-linejoin="round"/>
<path d="M148.43 101.882C148.43 101.882 139.445 109.002 148.287 117.421C154.031 122.889 161.975 117.607 161.975 117.607" stroke="#262324" stroke-width="2.66667" stroke-miterlimit="10" stroke-linecap="round" stroke-linejoin="round"/>
<path d="M17.2015 81.0024C17.2015 81.0024 20.9335 90.3304 12.7962 92.5277C4.6575 94.7251 1.3335 87.9464 1.3335 87.9464" stroke="#262324" stroke-width="2.66667" stroke-miterlimit="10" stroke-linecap="round" stroke-linejoin="round"/>
<path d="M107.741 134.243C107.741 134.243 90.8663 147.11 73.2957 144.874C55.725 142.638 45.209 126.11 45.209 126.11" stroke="#262324" stroke-width="2.66667" stroke-miterlimit="10" stroke-linecap="round" stroke-linejoin="round"/>
<path d="M83.4959 87.8774C83.4959 87.8774 61.3745 77.3027 57.0959 93.9187C52.8172 110.535 81.2319 116.92 81.9319 105.797" stroke="#262324" stroke-width="2.66667" stroke-miterlimit="10" stroke-linecap="round" stroke-linejoin="round"/>
</svg>
