<svg width="217" height="183" viewBox="0 0 217 183" fill="none" xmlns="http://www.w3.org/2000/svg">
<path d="M83.4941 158.824C83.4941 158.824 83.9155 182.007 102.627 182.024C119.434 182.04 121.762 161.801 121.762 161.801L83.4941 158.824Z" fill="#DE6848"/>
<path d="M82.1152 141.075C82.1152 141.075 95.4672 115.95 102.942 138.104C102.942 138.104 110.183 115.568 123.479 142.044C123.479 142.044 119.466 156.718 105.697 158.686C91.9272 160.652 82.1152 141.075 82.1152 141.075Z" fill="#DE6848"/>
<path d="M160.813 130.876C160.813 130.876 97.8981 165.145 51.4688 124.281" stroke="#262324" stroke-width="2.66667" stroke-miterlimit="10" stroke-linecap="round" stroke-linejoin="round"/>
<path d="M160.812 118.376C160.812 118.376 155.896 140.372 178.559 149.066" stroke="#262324" stroke-width="2.66667" stroke-miterlimit="10" stroke-linecap="round" stroke-linejoin="round"/>
<path d="M49.7461 109.936C49.7461 109.936 57.5475 133.768 33.1328 139.924" stroke="#262324" stroke-width="2.66667" stroke-miterlimit="10" stroke-linecap="round" stroke-linejoin="round"/>
<path d="M145.256 137.363C145.256 137.363 134.125 168.891 101.655 168.891C73.6947 168.891 62.0947 131.942 62.0947 131.942C62.0947 131.942 83.7467 156.711 145.256 137.363Z" fill="#262324"/>
<path d="M145.256 137.363C145.256 137.363 134.125 168.891 101.655 168.891C73.6947 168.891 62.0947 131.942 62.0947 131.942C62.0947 131.942 83.7467 156.711 145.256 137.363Z" stroke="#262324" stroke-width="2.66667" stroke-miterlimit="10" stroke-linecap="round" stroke-linejoin="round"/>
<path d="M71.3481 150.353C64.9827 141.137 62.0947 131.941 62.0947 131.941C62.0947 131.941 93.1694 155.42 145.256 137.362C145.256 137.362 143.152 143.314 138.113 150.045C124.412 155.042 99.7961 160.452 71.3481 150.353Z" fill="white" stroke="#262324" stroke-width="2.66667" stroke-miterlimit="10" stroke-linecap="round" stroke-linejoin="round"/>
<path d="M99.2311 99.4325C81.2352 88.1378 67.9978 96.9991 85.2391 114.446" stroke="#262324" stroke-width="2.66667" stroke-miterlimit="10" stroke-linecap="round" stroke-linejoin="round"/>
<path d="M8.43834 133.837C22.1783 143.054 44.0343 137.594 46.417 118.833C48.4863 99.8365 29.2317 94.6205 23.0117 94.4658C2.53034 92.8192 -8.79899 119.993 8.43834 133.837Z" fill="#DE6848"/>
<path d="M175.144 142.72C190.131 152.775 213.972 146.817 216.571 126.353C218.828 105.632 197.826 99.9426 191.042 99.7733C168.699 97.9773 156.342 127.619 175.144 142.72Z" fill="#DE6848"/>
<path d="M123.877 66.3496C122.359 116.028 176.911 118.478 179.861 68.8683C181.377 19.1923 126.825 16.7416 123.877 66.3496Z" fill="white" stroke="#262324" stroke-width="2.66667" stroke-miterlimit="10" stroke-linecap="round" stroke-linejoin="round"/>
<path d="M179.824 63.6738C179.824 63.6738 187.891 71.5631 197.727 60.9404" stroke="#262324" stroke-width="2.66667" stroke-miterlimit="10" stroke-linecap="round" stroke-linejoin="round"/>
<path d="M179.824 74.7297C179.824 74.7297 187.176 82.9723 194.667 74.7723" stroke="#262324" stroke-width="2.66667" stroke-miterlimit="10" stroke-linecap="round" stroke-linejoin="round"/>
<path d="M158.309 76.0548L172.667 73.6228C171.77 38.5495 139.962 40.7575 138.554 75.1668C136.762 107.556 166.181 115.419 172.026 82.3802L158.309 76.0548Z" fill="#262324"/>
<path d="M36.45 62.4138C34.9327 112.092 89.4847 114.542 92.434 64.9325C93.9513 15.2565 39.398 12.8058 36.45 62.4138Z" fill="white" stroke="#262324" stroke-width="2.66667" stroke-miterlimit="10" stroke-linecap="round" stroke-linejoin="round"/>
<path d="M36.4492 62.4136C36.4492 62.4136 27.4239 71.5629 17.5879 60.9402" stroke="#262324" stroke-width="2.66667" stroke-miterlimit="10" stroke-linecap="round" stroke-linejoin="round"/>
<path d="M37.1271 73.2549C37.1271 73.2549 28.1404 82.9723 20.6484 74.7723" stroke="#262324" stroke-width="2.66667" stroke-miterlimit="10" stroke-linecap="round" stroke-linejoin="round"/>
<path d="M70.882 72.1193L85.2407 69.6873C84.3433 34.6139 52.5353 36.8219 51.1273 71.2313C49.3353 103.621 78.754 111.483 84.5993 78.4446L70.882 72.1193Z" fill="#262324"/>
<path d="M22.957 22.4839C55.6384 -14.6934 88.237 19.2386 88.237 19.2386C79.8877 -1.65478 34.2837 -12.0268 22.957 22.4839Z" fill="#262324"/>
<path d="M126 22.4839C158.681 -14.6934 191.28 19.2386 191.28 19.2386C182.931 -1.65478 137.327 -12.0268 126 22.4839Z" fill="#262324"/>
</svg>
