<svg width="142" height="150" viewBox="0 0 142 150" fill="none" xmlns="http://www.w3.org/2000/svg">
<path d="M80.6757 66.1042C78.1783 84.9162 87.4703 101.67 101.428 103.522C115.386 105.375 128.726 91.6256 131.222 72.8136C133.72 54.0002 124.429 37.2482 110.47 35.3949C96.5117 33.5429 83.173 47.2922 80.6757 66.1042Z" fill="white" stroke="#262324" stroke-width="2.66667" stroke-miterlimit="10" stroke-linecap="round" stroke-linejoin="round"/>
<path d="M103.304 74.8031L116.51 73.7324C117.354 60.9364 112.144 50.1964 104.216 49.1444C95.7182 48.0164 87.3235 58.4444 85.4662 72.4351C83.6102 86.4271 88.9929 98.6831 97.4902 99.8111C104.918 100.796 112.265 92.9538 115.238 81.6204L103.304 74.8031Z" fill="#262324"/>
<path d="M82.5035 21.3485C82.5035 21.3485 80.4222 40.3431 100.85 36.5511C121.278 32.7605 131.747 16.5591 141.722 28.0485C141.722 28.0485 139.829 10.6751 112.082 23.3765C84.8608 35.8405 82.5035 21.3485 82.5035 21.3485Z" fill="#262324"/>
<path d="M1.73915 55.6277C-0.758181 74.4397 8.53382 91.193 22.4912 93.045C36.4498 94.8983 49.7898 81.149 52.2858 62.337C54.7831 43.5237 45.4925 26.7717 31.5338 24.9184C17.5752 23.0664 4.23649 36.8157 1.73915 55.6277Z" fill="white" stroke="#262324" stroke-width="2.66667" stroke-miterlimit="10" stroke-linecap="round" stroke-linejoin="round"/>
<path d="M24.367 64.3261L37.5737 63.2554C38.4177 50.4594 33.207 39.7194 25.279 38.6674C16.7817 37.5394 8.38702 47.9674 6.52969 61.9581C4.67369 75.9501 10.0564 88.2061 18.5537 89.3341C25.9817 90.3208 33.3284 82.4768 36.3017 71.1434L24.367 64.3261Z" fill="#262324"/>
<path d="M57.5551 21.3484C57.5551 21.3484 33.0564 -4.05828 6.83105 18.5577C6.83105 18.5577 13.7164 -2.65828 34.9604 0.279055C56.8084 3.30039 57.5551 21.3484 57.5551 21.3484Z" fill="#262324"/>
<path d="M21.9863 127.817C21.9863 127.817 55.0823 105.95 88.177 135.79" stroke="#262324" stroke-width="2.66667" stroke-miterlimit="10" stroke-linecap="round" stroke-linejoin="round"/>
<path d="M86.9952 147.696C83.8112 139.052 89.1872 131.084 98.6939 133.205" stroke="#262324" stroke-width="2.66667" stroke-miterlimit="10" stroke-linecap="round" stroke-linejoin="round"/>
<path d="M63.2425 87.8771C63.2425 87.8771 41.1211 77.3025 36.8425 93.9185C32.5638 110.534 60.9785 116.92 61.6785 105.797" stroke="#262324" stroke-width="2.66667" stroke-miterlimit="10" stroke-linecap="round" stroke-linejoin="round"/>
</svg>
