<svg width="189" height="175" viewBox="0 0 189 175" fill="none" xmlns="http://www.w3.org/2000/svg">
<path d="M82.9764 99.7103C82.9764 99.7103 65.7364 89.8463 61.8084 97.241C57.9391 104.525 68.9844 114.724 68.9844 114.724" stroke="#262324" stroke-width="2.66667" stroke-miterlimit="10" stroke-linecap="round" stroke-linejoin="round"/>
<path d="M13.6288 151.104C21.8035 157.258 33.8115 156.931 42.3061 152.836C48.2675 149.963 54.0221 144.234 55.0555 134.736C57.3128 114.016 36.3101 108.327 29.5261 108.158C18.5395 107.884 4.68613 114.806 4.39813 131.248C4.25013 139.723 8.6848 147.383 13.6288 151.104Z" fill="#DE6848"/>
<path d="M147.389 151.523C155.563 157.677 167.571 157.35 176.066 153.255C182.027 150.382 187.781 144.653 188.815 135.155C191.073 114.435 170.07 108.746 163.286 108.577C152.299 108.303 138.445 115.225 138.158 131.669C138.01 140.142 142.445 147.802 147.389 151.523Z" fill="#DE6848"/>
<path d="M76.585 148.859C76.585 148.859 80.805 112.247 91.5663 128.133C91.5663 128.133 99.793 110.971 113.764 147.245C113.764 147.245 115.053 174.887 96.5917 174.769C74.8623 174.629 76.585 148.859 76.585 148.859Z" fill="#DE6848"/>
<path d="M82.7955 152.268C84.1635 162.399 89.0088 163.191 95.1741 162.357C101.339 161.525 106.491 159.383 105.123 149.252C103.754 139.12 97.6475 131.583 91.4808 132.416C85.3155 133.249 81.4275 142.137 82.7955 152.268Z" fill="#262324"/>
<path d="M107.623 66.6276C106.685 87.4636 118.456 104.918 133.916 105.614C149.376 106.31 162.668 89.9836 163.607 69.1476C164.544 48.3116 152.772 30.857 137.313 30.161C121.853 29.465 108.56 45.7916 107.623 66.6276Z" fill="white" stroke="#262324" stroke-width="2.66667" stroke-miterlimit="10" stroke-linecap="round" stroke-linejoin="round"/>
<path d="M163.57 63.9521C163.57 63.9521 171.637 71.8414 181.473 61.2188" stroke="#262324" stroke-width="2.66667" stroke-miterlimit="10" stroke-linecap="round" stroke-linejoin="round"/>
<path d="M163.57 75.008C163.57 75.008 170.922 83.2507 178.413 75.0507" stroke="#262324" stroke-width="2.66667" stroke-miterlimit="10" stroke-linecap="round" stroke-linejoin="round"/>
<path d="M142.054 76.3331L156.413 73.9011C156.114 59.8091 149.384 48.5477 140.604 48.1517C131.192 47.7291 122.997 59.9477 122.298 75.4437C121.601 90.9397 128.665 103.845 138.077 104.269C146.302 104.64 153.598 95.3517 155.772 82.6584L142.054 76.3331Z" fill="#262324"/>
<path d="M171.971 22.7622C139.29 -14.4151 106.691 19.5169 106.691 19.5169C106.691 19.5169 119.13 -5.05246 148.295 0.942207C166.885 4.76354 171.971 22.7622 171.971 22.7622Z" fill="#262324"/>
<path d="M20.1949 62.6916C19.2576 83.5276 31.0282 100.982 46.4882 101.678C61.9482 102.374 75.2402 86.0476 76.1789 65.2116C77.1162 44.3756 65.3442 26.9209 49.8856 26.2249C34.4256 25.5289 21.1322 41.8556 20.1949 62.6916Z" fill="white" stroke="#262324" stroke-width="2.66667" stroke-miterlimit="10" stroke-linecap="round" stroke-linejoin="round"/>
<path d="M20.1953 62.6919C20.1953 62.6919 11.17 71.8412 1.33398 61.2185" stroke="#262324" stroke-width="2.66667" stroke-miterlimit="10" stroke-linecap="round" stroke-linejoin="round"/>
<path d="M20.8732 73.5328C20.8732 73.5328 11.8865 83.2501 4.39453 75.0501" stroke="#262324" stroke-width="2.66667" stroke-miterlimit="10" stroke-linecap="round" stroke-linejoin="round"/>
<path d="M54.6277 72.3975L68.9864 69.9655C68.6877 55.8735 61.957 44.6122 53.177 44.2175C43.765 43.7935 35.5704 56.0122 34.8717 71.5082C34.1744 87.0042 41.2384 99.9095 50.6504 100.334C58.8757 100.704 66.1717 91.4162 68.345 78.7229L54.6277 72.3975Z" fill="#262324"/>
<path d="M6.70215 22.7622C39.3835 -14.4151 71.9821 19.5169 71.9821 19.5169C71.9821 19.5169 59.5435 -5.05246 30.3781 0.942207C11.7888 4.76354 6.70215 22.7622 6.70215 22.7622Z" fill="#262324"/>
</svg>
