<svg width="207" height="164" viewBox="0 0 207 164" fill="none" xmlns="http://www.w3.org/2000/svg">
<path d="M93.5623 101.469C93.5623 101.469 76.3223 91.6051 72.3943 98.9998C68.525 106.284 79.5716 116.482 79.5716 116.482" stroke="#262324" stroke-width="2.66667" stroke-miterlimit="10" stroke-linecap="round" stroke-linejoin="round"/>
<path d="M9.23427 147.791C17.4089 153.945 29.4169 153.618 37.9116 149.523C43.8729 146.65 49.6276 140.921 50.6609 131.423C52.9183 110.703 31.9156 105.014 25.1316 104.845C14.1449 104.571 0.291602 111.493 0.00360215 127.935C-0.144398 136.41 4.29027 144.07 9.23427 147.791Z" fill="#DE6848"/>
<path d="M165.326 152.862C173.501 159.016 185.509 158.689 194.003 154.594C199.965 151.721 205.719 145.992 206.753 136.496C209.01 115.774 188.007 110.085 181.223 109.916C170.237 109.642 156.383 116.564 156.095 133.008C155.947 141.481 160.382 149.142 165.326 152.862Z" fill="#DE6848"/>
<path d="M84.7402 147.051C84.7402 147.051 96.3362 120.958 103.811 143.111C103.811 143.111 111.052 120.575 124.35 147.051C124.35 147.051 120.335 161.724 106.566 163.691C92.7962 165.659 84.7402 147.051 84.7402 147.051Z" fill="#DE6848"/>
<path d="M62.4902 136.845C62.4902 136.845 100.569 162.811 146.598 139.993" stroke="#262324" stroke-width="2.66667" stroke-miterlimit="10" stroke-linecap="round" stroke-linejoin="round"/>
<path d="M149.917 126.317C149.917 126.317 140.584 140.873 156.092 151.103" stroke="#262324" stroke-width="2.66667" stroke-miterlimit="10" stroke-linecap="round" stroke-linejoin="round"/>
<path d="M58.8007 120.412C58.8007 120.412 69.7487 135.441 50.8301 149.377" stroke="#262324" stroke-width="2.66667" stroke-miterlimit="10" stroke-linecap="round" stroke-linejoin="round"/>
<path d="M118.209 68.3859C117.27 89.2219 129.042 106.677 144.502 107.373C159.962 108.069 173.254 91.7419 174.193 70.9059C175.13 50.0699 163.358 32.6153 147.899 31.9193C132.439 31.2233 119.146 47.5499 118.209 68.3859Z" fill="white" stroke="#262324" stroke-width="2.66667" stroke-miterlimit="10" stroke-linecap="round" stroke-linejoin="round"/>
<path d="M174.156 65.7104C174.156 65.7104 182.223 73.5997 192.059 62.9771" stroke="#262324" stroke-width="2.66667" stroke-miterlimit="10" stroke-linecap="round" stroke-linejoin="round"/>
<path d="M174.156 76.7663C174.156 76.7663 181.508 85.009 188.999 76.809" stroke="#262324" stroke-width="2.66667" stroke-miterlimit="10" stroke-linecap="round" stroke-linejoin="round"/>
<path d="M152.64 78.0911L166.999 75.6591C166.7 61.5671 159.97 50.3058 151.19 49.9111C141.778 49.4871 133.583 61.7058 132.886 77.2018C132.187 92.6978 139.251 105.603 148.663 106.027C156.888 106.398 164.184 97.1098 166.358 84.4165L152.64 78.0911Z" fill="#262324"/>
<path d="M174.156 65.7101C174.156 65.7101 176.767 34.4421 147.105 31.0541C124.349 28.4541 117.277 65.5448 117.277 65.5448C117.277 65.5448 146.2 72.2368 174.156 65.7101Z" fill="#BBD2DA" stroke="#262324" stroke-width="2.66667" stroke-miterlimit="10" stroke-linecap="round" stroke-linejoin="round"/>
<path d="M182.557 22.7622C149.876 -14.4151 117.277 19.5169 117.277 19.5169C117.277 19.5169 129.716 -5.05246 158.881 0.942207C177.471 4.76354 182.557 22.7622 182.557 22.7622Z" fill="#262324"/>
<path d="M30.7808 64.4499C29.8435 85.2859 41.6155 102.741 57.0742 103.437C72.5342 104.133 85.8262 87.8059 86.7648 66.9699C87.7022 46.1339 75.9302 28.6792 60.4715 27.9832C45.0115 27.2872 31.7195 43.6139 30.7808 64.4499Z" fill="white" stroke="#262324" stroke-width="2.66667" stroke-miterlimit="10" stroke-linecap="round" stroke-linejoin="round"/>
<path d="M30.7813 64.4499C30.7813 64.4499 21.7559 73.5993 11.9199 62.9766" stroke="#262324" stroke-width="2.66667" stroke-miterlimit="10" stroke-linecap="round" stroke-linejoin="round"/>
<path d="M31.4591 75.2911C31.4591 75.2911 22.4725 85.0084 14.9805 76.8084" stroke="#262324" stroke-width="2.66667" stroke-miterlimit="10" stroke-linecap="round" stroke-linejoin="round"/>
<path d="M65.2136 74.1553L79.5723 71.7233C79.2736 57.6313 72.543 46.37 63.763 45.9753C54.351 45.5513 46.1563 57.77 45.4576 73.266C44.7603 88.762 51.8243 101.667 61.2363 102.091C69.4616 102.462 76.7576 93.174 78.931 80.4807L65.2136 74.1553Z" fill="#262324"/>
<path d="M86.8026 65.5448C86.8026 65.5448 88.5266 30.3901 58.7732 27.9421C32.0226 25.7408 30.7812 64.4501 30.7812 64.4501C30.7812 64.4501 56.5266 68.5274 86.8026 65.5448Z" fill="#BBD2DA" stroke="#262324" stroke-width="2.66667" stroke-miterlimit="10" stroke-linecap="round" stroke-linejoin="round"/>
<path d="M98.7241 22.7621C98.7241 22.7621 99.5507 34.4608 89.2294 34.2581C74.6241 33.9715 49.9267 -17.0819 23.2188 18.0821C23.2188 18.0821 30.5041 1.53681 47.3841 2.03681C64.2627 2.53681 89.2294 39.8848 98.7241 22.7621Z" fill="#262324"/>
</svg>
