<svg width="165" height="160" viewBox="0 0 165 160" fill="none" xmlns="http://www.w3.org/2000/svg">
<path d="M100.929 61.8342C98.4318 80.6462 107.724 97.3996 121.681 99.2516C135.64 101.105 148.98 87.3556 151.476 68.5436C153.973 49.7302 144.682 32.9782 130.724 31.1249C116.765 29.2729 103.426 43.0222 100.929 61.8342Z" fill="white" stroke="#262324" stroke-width="2.66667" stroke-miterlimit="10" stroke-linecap="round" stroke-linejoin="round"/>
<path d="M123.557 70.5331L136.765 69.4624C137.608 56.6664 132.397 45.9264 124.469 44.8744C115.972 43.7464 107.577 54.1744 105.72 68.1664C103.864 82.1571 109.246 94.4131 117.744 95.5411C125.172 96.5264 132.518 88.6837 135.492 77.3504L123.557 70.5331Z" fill="#262324"/>
<path d="M114.885 6.40477C114.885 6.40477 131.919 37.1568 164.366 26.8981C164.366 26.8981 147.122 40.6421 124.563 28.6394C105.093 18.2808 114.885 6.40477 114.885 6.40477Z" fill="#262324"/>
<path d="M21.9926 51.3579C19.4952 70.1699 28.7872 86.9232 42.7446 88.7752C56.7032 90.6272 70.0432 76.8792 72.5392 58.0672C75.0366 39.2539 65.7459 22.5019 51.7872 20.6485C37.8286 18.7965 24.4899 32.5459 21.9926 51.3579Z" fill="white" stroke="#262324" stroke-width="2.66667" stroke-miterlimit="10" stroke-linecap="round" stroke-linejoin="round"/>
<path d="M44.6204 60.0565L57.8284 58.9858C58.6711 46.1898 53.4604 35.4498 45.5324 34.3978C37.0351 33.2698 28.6404 43.6978 26.7831 57.6885C24.9271 71.6805 30.3098 83.9365 38.8071 85.0645C46.2351 86.0498 53.5818 78.2072 56.5551 66.8738L44.6204 60.0565Z" fill="#262324"/>
<path d="M26.4175 11.1681C26.4175 11.1681 51.8908 26.2868 74.4375 0.000121406C74.4375 0.000121406 79.0601 22.1535 49.3601 22.2828C31.1201 22.3615 26.4175 11.1681 26.4175 11.1681Z" fill="#262324"/>
<path d="M146.566 111.631C146.566 111.631 58.3423 148.633 15.6196 88.6339" stroke="#262324" stroke-width="2.66667" stroke-miterlimit="10" stroke-linecap="round" stroke-linejoin="round"/>
<path d="M148.43 97.6121C148.43 97.6121 139.444 104.732 148.287 113.151C154.031 118.619 161.975 113.337 161.975 113.337" stroke="#262324" stroke-width="2.66667" stroke-miterlimit="10" stroke-linecap="round" stroke-linejoin="round"/>
<path d="M17.2015 76.7326C17.2015 76.7326 20.9335 86.0606 12.7962 88.258C4.6575 90.4553 1.3335 83.6766 1.3335 83.6766" stroke="#262324" stroke-width="2.66667" stroke-miterlimit="10" stroke-linecap="round" stroke-linejoin="round"/>
<path d="M121.5 119.134C121.5 119.134 108.617 144.263 77.3516 143.038C43.7876 141.723 35.1636 108.002 35.1636 108.002C35.1636 108.002 71.4422 132.702 121.5 119.134Z" fill="#262324"/>
<path d="M121.5 119.134C121.5 119.134 108.617 144.263 77.3516 143.038C43.7876 141.723 35.1636 108.002 35.1636 108.002C35.1636 108.002 71.4422 132.702 121.5 119.134Z" stroke="#262324" stroke-width="2.66667" stroke-miterlimit="10" stroke-linecap="round" stroke-linejoin="round"/>
<path d="M105.427 129.454C101.979 127.049 98.2271 125.561 93.9711 125.695C89.8365 125.826 85.4365 126.942 81.6071 128.486C75.2605 131.042 71.1738 135.838 68.9458 141.946C71.5591 142.534 74.3511 142.921 77.3511 143.038C91.9485 143.61 102.535 138.438 109.679 132.759C108.296 131.611 106.9 130.482 105.427 129.454Z" fill="#C2A9BC" stroke="#262324" stroke-width="2.66667" stroke-miterlimit="10" stroke-linecap="round" stroke-linejoin="round"/>
<path d="M107.69 147.373C107.69 147.373 90.8155 160.241 73.2449 158.004C55.6742 155.768 45.1582 139.24 45.1582 139.24" stroke="#262324" stroke-width="2.66667" stroke-miterlimit="10" stroke-linecap="round" stroke-linejoin="round"/>
<path d="M83.4954 83.6074C83.4954 83.6074 61.3741 73.0327 57.0954 89.6487C52.8167 106.265 81.2314 112.65 81.9314 101.527" stroke="#262324" stroke-width="2.66667" stroke-miterlimit="10" stroke-linecap="round" stroke-linejoin="round"/>
</svg>
