<svg width="141" height="158" viewBox="0 0 141 158" fill="none" xmlns="http://www.w3.org/2000/svg">
<path d="M81.4008 62.7024C78.9034 81.5144 88.1954 98.2677 102.153 100.12C116.111 101.973 129.451 88.2237 131.947 69.4117C134.445 50.5984 125.154 33.8464 111.195 31.9931C97.2368 30.1411 83.8981 43.8904 81.4008 62.7024Z" fill="white" stroke="#262324" stroke-width="2.66667" stroke-miterlimit="10" stroke-linecap="round" stroke-linejoin="round"/>
<path d="M104.029 71.4012L117.237 70.3306C118.079 57.5346 112.869 46.7946 104.941 45.7426C96.4433 44.6146 88.0486 55.0426 86.1913 69.0332C84.3353 83.0252 89.718 95.2812 98.2153 96.4092C105.643 97.3946 112.99 89.5519 115.963 78.2186L104.029 71.4012Z" fill="#262324"/>
<path d="M2.46425 52.2258C-0.033085 71.0378 9.25891 87.7912 23.2176 89.6432C37.1749 91.4965 50.5149 77.7472 53.0109 58.9352C55.5082 40.1218 46.2176 23.3698 32.2589 21.5165C18.3002 19.6645 4.96158 33.4138 2.46425 52.2258Z" fill="white" stroke="#262324" stroke-width="2.66667" stroke-miterlimit="10" stroke-linecap="round" stroke-linejoin="round"/>
<path d="M25.0921 60.9242L38.3001 59.8536C39.1428 47.0576 33.9321 36.3176 26.0041 35.2656C17.5068 34.1376 9.11212 44.5656 7.25479 58.5562C5.39879 72.5482 10.7815 84.8042 19.2788 85.9322C26.7068 86.9189 34.0535 79.0749 37.0268 67.7416L25.0921 60.9242Z" fill="#262324"/>
<path d="M78.6998 24.4744C78.6998 24.4744 75.8545 38.2157 92.0705 35.925C112.245 33.0744 126.398 5.88504 141.004 25.9984C141.004 25.9984 139.237 9.87838 125.802 11.3504C109.009 13.1904 92.8678 30.949 78.6998 24.4744Z" fill="#262324"/>
<path d="M61.9227 19.9243C61.9227 19.9243 62.8533 33.9256 47.1053 29.4296C27.5147 23.8363 17.2293 -5.03839 0 12.8789C0 12.8789 3.96267 -2.84772 17.0693 0.45628C33.4493 4.58428 47 24.3923 61.9227 19.9243Z" fill="#262324"/>
<path d="M80.8135 60.5992C80.8135 60.5992 88.2748 30.2699 111.196 31.9939C133.224 33.6499 131.867 56.8339 131.867 56.8339C131.867 56.8339 111.715 69.4006 80.8135 60.5992Z" fill="#C2A9BC" stroke="#262324" stroke-width="2.66667" stroke-miterlimit="10" stroke-linecap="round" stroke-linejoin="round"/>
<path d="M53.2388 56.834C53.2388 56.834 53.8055 27.094 33.9135 21.6247C14.0215 16.1553 6.86279 37.2286 6.86279 37.2286C6.86279 37.2286 20.8401 55.5793 53.2388 56.834Z" fill="#C2A9BC" stroke="#262324" stroke-width="2.66667" stroke-miterlimit="10" stroke-linecap="round" stroke-linejoin="round"/>
<path d="M63.9676 84.475C63.9676 84.475 41.8462 73.9004 37.5676 90.5164C33.2889 107.132 61.7036 113.518 62.4036 102.395" stroke="#262324" stroke-width="2.66667" stroke-miterlimit="10" stroke-linecap="round" stroke-linejoin="round"/>
<path d="M98.4474 146.955C98.4474 146.955 89.6674 113.875 55.4954 113.298C25.3847 112.788 20.082 140.687 20.082 140.687C20.082 140.687 55.0234 128.834 98.4474 146.955Z" fill="white"/>
<path d="M98.4474 146.955C98.4474 146.955 89.6674 113.875 55.4954 113.298C25.3847 112.788 20.082 140.687 20.082 140.687C20.082 140.687 55.0234 128.834 98.4474 146.955Z" stroke="#262324" stroke-width="2.66667" stroke-miterlimit="10" stroke-linecap="round" stroke-linejoin="round"/>
<path d="M32.534 137.611C32.534 137.611 30.358 129.311 30.8714 123.031" stroke="#262324" stroke-width="2.66667" stroke-miterlimit="10" stroke-linecap="round" stroke-linejoin="round"/>
<path d="M44.3658 136.45C44.3658 136.45 41.6391 124.685 42.7045 115.061" stroke="#262324" stroke-width="2.66667" stroke-miterlimit="10" stroke-linecap="round" stroke-linejoin="round"/>
<path d="M55.4991 136.819L55.4951 113.298" stroke="#262324" stroke-width="2.66667" stroke-miterlimit="10" stroke-linecap="round" stroke-linejoin="round"/>
<path d="M69.0244 138.514C69.0244 138.514 72.5137 125.129 71.7871 117.122" stroke="#262324" stroke-width="2.66667" stroke-miterlimit="10" stroke-linecap="round" stroke-linejoin="round"/>
<path d="M80.8135 141.344C80.8135 141.344 84.1815 134.289 83.7015 123.852" stroke="#262324" stroke-width="2.66667" stroke-miterlimit="10" stroke-linecap="round" stroke-linejoin="round"/>
<path d="M32.918 146.955C32.918 146.955 57.2726 164.664 80.814 151.478" stroke="#262324" stroke-width="2.66667" stroke-miterlimit="10" stroke-linecap="round" stroke-linejoin="round"/>
</svg>
