<svg width="140" height="159" viewBox="0 0 140 159" fill="none" xmlns="http://www.w3.org/2000/svg">
<path d="M80.6757 66.104C78.1783 84.916 87.4703 101.669 101.428 103.521C115.386 105.375 128.726 91.6253 131.222 72.8133C133.72 54 124.429 37.248 110.47 35.3947C96.5117 33.5427 83.173 47.292 80.6757 66.104Z" fill="white" stroke="#262324" stroke-width="2.66667" stroke-miterlimit="10" stroke-linecap="round" stroke-linejoin="round"/>
<path d="M98.8079 69.7838L112.016 68.7131C112.859 55.9171 107.648 45.1771 99.7199 44.1251C91.2226 42.9971 82.8279 53.4251 80.9706 67.4171C79.1146 81.4078 84.4973 93.6638 92.9946 94.7918C100.423 95.7771 107.769 87.9345 110.743 76.6011L98.8079 69.7838Z" fill="#262324"/>
<path d="M139.826 37.1494C139.826 37.1494 118.758 4.75875 90.106 24.2081C90.106 24.2081 98.4433 3.82408 119.662 11.2201C140.489 18.4801 139.826 37.1494 139.826 37.1494Z" fill="#262324"/>
<path d="M1.73915 55.6274C-0.758183 74.4394 8.53382 91.1927 22.4925 93.0447C36.4498 94.8967 49.7898 81.1487 52.2858 62.3367C54.7831 43.5234 45.4925 26.7714 31.5338 24.9181C17.5752 23.0661 4.23648 36.8154 1.73915 55.6274Z" fill="white" stroke="#262324" stroke-width="2.66667" stroke-miterlimit="10" stroke-linecap="round" stroke-linejoin="round"/>
<path d="M21.8109 59.3072L35.0189 58.2366C35.8615 45.4406 30.6509 34.7006 22.7229 33.6486C14.2255 32.5206 5.83087 42.9486 3.97354 56.9392C2.11754 70.9312 7.5002 83.1872 15.9975 84.3152C23.4255 85.3006 30.7722 77.4579 33.7455 66.1246L21.8109 59.3072Z" fill="#262324"/>
<path d="M57.5551 21.3484C57.5551 21.3484 33.0564 -4.05828 6.83105 18.5577C6.83105 18.5577 13.7164 -2.65828 34.9604 0.279055C56.8084 3.30039 57.5551 21.3484 57.5551 21.3484Z" fill="#262324"/>
<path d="M63.2425 87.8771C63.2425 87.8771 41.1211 77.3025 36.8425 93.9185C32.5638 110.534 60.9785 116.92 61.6785 105.797" stroke="#262324" stroke-width="2.66667" stroke-miterlimit="10" stroke-linecap="round" stroke-linejoin="round"/>
<path d="M32.1929 138.763C32.1929 138.763 63.5862 88.5834 96.3555 138.763H32.1929Z" fill="#C2A9BC" stroke="#262324" stroke-width="2.66667" stroke-miterlimit="10" stroke-linecap="round" stroke-linejoin="round"/>
<path d="M65.4729 131.581C71.0129 127.488 78.1462 125.456 85.2195 125.28C56.8209 99.4092 32.1929 138.764 32.1929 138.764H58.6875C60.4902 136.012 62.7649 133.583 65.4729 131.581Z" fill="#262324" stroke="#262324" stroke-width="2.66667" stroke-miterlimit="10" stroke-linecap="round" stroke-linejoin="round"/>
<path d="M37.6636 147.351C37.6636 147.351 63.0449 168.352 90.1062 147.351" stroke="#262324" stroke-width="2.66667" stroke-miterlimit="10" stroke-linecap="round" stroke-linejoin="round"/>
</svg>
