<svg width="164" height="174" viewBox="0 0 164 174" fill="none" xmlns="http://www.w3.org/2000/svg">
<path d="M148.035 83.0127C150.532 64.1994 141.24 47.4474 127.282 45.5954C113.324 43.742 99.9843 57.4914 97.4883 76.3034" stroke="#262324" stroke-width="2.66667" stroke-miterlimit="10" stroke-linecap="round" stroke-linejoin="round"/>
<path d="M160.08 37.1494C160.08 37.1494 139.012 4.75875 110.36 24.2081C110.36 24.2081 118.697 3.82408 139.916 11.2201C160.743 18.4801 160.08 37.1494 160.08 37.1494Z" fill="#262324"/>
<path d="M69.0984 72.5359C71.5958 53.7239 62.3038 36.9706 48.3464 35.1186C34.3878 33.2652 21.0478 47.0146 18.5518 65.8266" stroke="#262324" stroke-width="2.66667" stroke-miterlimit="10" stroke-linecap="round" stroke-linejoin="round"/>
<path d="M77.8085 21.3484C77.8085 21.3484 53.3098 -4.05828 27.0845 18.5577C27.0845 18.5577 33.9698 -2.65828 55.2138 0.279055C77.0618 3.30039 77.8085 21.3484 77.8085 21.3484Z" fill="#262324"/>
<path d="M83.4959 87.8771C83.4959 87.8771 61.3745 77.3025 57.0959 93.9185C52.8172 110.534 81.2319 116.92 81.9319 105.797" stroke="#262324" stroke-width="2.66667" stroke-miterlimit="10" stroke-linecap="round" stroke-linejoin="round"/>
<path d="M146.566 115.901C146.566 115.901 58.3423 152.902 15.6196 92.9034" stroke="#262324" stroke-width="2.66667" stroke-miterlimit="10" stroke-linecap="round" stroke-linejoin="round"/>
<path d="M148.43 101.882C148.43 101.882 139.445 109.002 148.287 117.42C154.031 122.888 161.975 117.607 161.975 117.607" stroke="#262324" stroke-width="2.66667" stroke-miterlimit="10" stroke-linecap="round" stroke-linejoin="round"/>
<path d="M17.2015 81.0024C17.2015 81.0024 20.9335 90.3304 12.7948 92.5277C4.6575 94.7251 1.3335 87.9464 1.3335 87.9464" stroke="#262324" stroke-width="2.66667" stroke-miterlimit="10" stroke-linecap="round" stroke-linejoin="round"/>
<path d="M121.5 123.404C121.5 123.404 106.93 165.781 69.6076 158.023C36.7209 151.187 35.1636 112.272 35.1636 112.272C35.1636 112.272 71.4422 136.972 121.5 123.404Z" fill="white"/>
<path d="M121.5 123.404C121.5 123.404 106.93 165.781 69.6076 158.023C36.7209 151.187 35.1636 112.272 35.1636 112.272C35.1636 112.272 71.4422 136.972 121.5 123.404Z" stroke="#262324" stroke-width="2.66667" stroke-miterlimit="10" stroke-linecap="round" stroke-linejoin="round"/>
<path d="M105.536 161.156C105.536 161.156 88.6617 174.022 71.0911 171.786C53.5204 169.55 43.0044 153.022 43.0044 153.022" stroke="#262324" stroke-width="2.66667" stroke-miterlimit="10" stroke-linecap="round" stroke-linejoin="round"/>
<path d="M48.2655 119.528C48.2655 119.528 44.6388 130.168 44.2495 138.757" stroke="#262324" stroke-width="2.66667" stroke-miterlimit="10" stroke-linecap="round" stroke-linejoin="round"/>
<path d="M60.9823 124.047C60.9823 124.047 56.2317 139.218 55.937 152.453" stroke="#262324" stroke-width="2.66667" stroke-miterlimit="10" stroke-linecap="round" stroke-linejoin="round"/>
<path d="M73.1692 126.332L69.6079 158.023" stroke="#262324" stroke-width="2.66667" stroke-miterlimit="10" stroke-linecap="round" stroke-linejoin="round"/>
<path d="M88.1633 127.427C88.1633 127.427 89.9407 146.335 87.938 156.939" stroke="#262324" stroke-width="2.66667" stroke-miterlimit="10" stroke-linecap="round" stroke-linejoin="round"/>
<path d="M101.437 126.559C101.437 126.559 104.039 136.905 101.938 150.849" stroke="#262324" stroke-width="2.66667" stroke-miterlimit="10" stroke-linecap="round" stroke-linejoin="round"/>
</svg>
