<svg width="476" height="505" viewBox="0 0 476 505" fill="none" xmlns="http://www.w3.org/2000/svg">
<path d="M374.25 477.817C374.25 492.357 310.274 504.145 231.357 504.145C152.438 504.145 88.4619 492.357 88.4619 477.817C88.4619 463.277 152.438 451.489 231.357 451.489C310.274 451.489 374.25 463.277 374.25 477.817Z" fill="#262324"/>
<path d="M217.13 295.79C220.684 291.568 220.148 285.267 215.93 281.707C211.709 278.144 205.401 278.679 201.838 282.9C201.201 283.655 186.1 301.71 175.132 328.798C161.773 361.787 160.38 394.018 170.95 422.662C158.06 426.647 132.412 437.228 142.056 456.33C149.466 471.01 175.944 452.486 187.642 436.831C187.805 436.764 187.97 436.708 188.132 436.632C192.834 434.407 194.996 428.987 193.254 424.194C193.174 422.983 192.746 421.967 191.932 421.191C164.602 359.515 216.577 296.448 217.13 295.79Z" fill="#C2A9BC" stroke="#262324" stroke-width="2.66667" stroke-miterlimit="10" stroke-linecap="round" stroke-linejoin="round"/>
<path d="M192.727 339.025C202.447 313.606 216.841 296.134 217.13 295.79C220.683 291.569 220.147 285.268 215.93 281.708C211.709 278.144 205.401 278.678 201.838 282.9C201.201 283.656 186.099 301.71 175.131 328.797C174.941 329.269 174.777 329.74 174.59 330.21C180.842 332.708 186.867 335.897 192.727 339.025Z" fill="#262324"/>
<path d="M205.127 433.556C205.119 433.524 205.107 433.503 205.099 433.471C204.449 428.849 201.821 424.516 197.16 421.721C195.172 419.907 193.273 419.876 193.273 419.876C193.273 419.876 179.279 451.392 154.135 445.121C143.3 442.419 151.143 431.567 151.143 431.567C151.143 431.567 150.679 431.697 149.899 431.968H149.9C149.9 431.968 139.071 433.859 130.513 438.196C120.427 443.308 112.48 451.808 114.355 464.453C117.816 487.827 150.052 484.364 161.861 479.748C171.887 475.828 176.013 464.02 186.824 456.3C188.565 461.201 192.288 472.036 193.273 477.728C193.273 477.728 196.592 479.171 201.209 477.728C201.209 477.728 208.467 446.231 205.127 433.556Z" fill="#DE6848"/>
<path d="M205.127 433.556C205.119 433.524 205.107 433.503 205.099 433.471C204.449 428.849 201.821 424.516 197.16 421.721C195.172 419.907 193.273 419.876 193.273 419.876C193.273 419.876 179.279 451.392 154.135 445.121C143.3 442.419 151.143 431.567 151.143 431.567C151.143 431.567 150.679 431.697 149.899 431.968H149.9C149.9 431.968 139.071 433.859 130.513 438.196C120.427 443.308 112.48 451.808 114.355 464.453C117.816 487.827 150.052 484.364 161.861 479.748C171.887 475.828 176.013 464.02 186.824 456.3C188.565 461.201 192.288 472.036 193.273 477.728C193.273 477.728 196.592 479.171 201.209 477.728C201.209 477.728 208.467 446.231 205.127 433.556Z" stroke="#262324" stroke-width="2.66667" stroke-miterlimit="10" stroke-linecap="round" stroke-linejoin="round"/>
<path d="M114.604 456.042C114.604 456.042 116.193 473.357 141.442 474.078C166.69 474.799 171.02 459.921 185.158 451.489C199.298 443.058 206.484 443.099 205.128 433.555" stroke="#262324" stroke-width="2.66667" stroke-miterlimit="10" stroke-linecap="round" stroke-linejoin="round"/>
<path d="M283.61 422.663C294.18 394.017 292.787 361.788 279.43 328.797C268.46 301.711 253.359 283.656 252.722 282.9C249.163 278.683 242.866 278.149 238.646 281.704C234.424 285.257 233.882 291.563 237.43 295.788C237.964 296.425 289.962 359.503 262.628 421.191C261.814 421.967 261.386 422.983 261.304 424.195C259.566 428.988 261.726 434.408 266.43 436.632C266.59 436.708 266.754 436.764 266.916 436.831C278.615 452.485 305.094 471.009 312.504 456.331C322.148 437.228 296.502 426.647 283.61 422.663Z" fill="#C2A9BC" stroke="#262324" stroke-width="2.66667" stroke-miterlimit="10" stroke-linecap="round" stroke-linejoin="round"/>
<path d="M266.327 352.767C272.894 351.411 279.369 349.617 285.731 347.457C284.059 341.277 281.961 335.051 279.429 328.798C268.461 301.71 253.359 283.655 252.722 282.901C249.163 278.683 242.866 278.149 238.646 281.703C234.425 285.257 233.882 291.562 237.429 295.789C237.758 296.179 257.466 320.093 266.327 352.767Z" fill="#262324"/>
<path d="M249.433 433.556C249.441 433.524 249.453 433.503 249.461 433.471C250.112 428.849 252.739 424.516 257.4 421.721C259.388 419.907 261.287 419.876 261.287 419.876C261.287 419.876 275.281 451.392 300.425 445.121C311.26 442.419 303.417 431.567 303.417 431.567C303.417 431.567 303.881 431.697 304.661 431.968H304.66C304.66 431.968 315.489 433.859 324.047 438.196C334.133 443.308 342.08 451.808 340.207 464.453C336.744 487.827 304.508 484.364 292.699 479.748C282.673 475.828 278.547 464.02 267.736 456.3C265.995 461.201 262.272 472.036 261.287 477.728C261.287 477.728 257.968 479.171 253.351 477.728C253.351 477.728 246.093 446.231 249.433 433.556Z" fill="#DE6848"/>
<path d="M249.433 433.556C249.441 433.524 249.453 433.503 249.461 433.471C250.112 428.849 252.739 424.516 257.4 421.721C259.388 419.907 261.287 419.876 261.287 419.876C261.287 419.876 275.281 451.392 300.425 445.121C311.26 442.419 303.417 431.567 303.417 431.567C303.417 431.567 303.881 431.697 304.661 431.968H304.66C304.66 431.968 315.489 433.859 324.047 438.196C334.133 443.308 342.08 451.808 340.207 464.453C336.744 487.827 304.508 484.364 292.699 479.748C282.673 475.828 278.547 464.02 267.736 456.3C265.995 461.201 262.272 472.036 261.287 477.728C261.287 477.728 257.968 479.171 253.351 477.728C253.351 477.728 246.093 446.231 249.433 433.556Z" stroke="#262324" stroke-width="2.66667" stroke-miterlimit="10" stroke-linecap="round" stroke-linejoin="round"/>
<path d="M339.957 456.042C339.957 456.042 338.367 473.357 313.118 474.078C287.87 474.799 283.541 459.921 269.402 451.489C255.263 443.058 248.077 443.099 249.433 433.555" stroke="#262324" stroke-width="2.66667" stroke-miterlimit="10" stroke-linecap="round" stroke-linejoin="round"/>
<path d="M117.458 258.734C124.697 258.011 129.47 256.451 129.913 256.303C134.494 254.762 136.961 249.799 135.421 245.218C133.885 240.647 128.941 238.186 124.372 239.696C124.037 239.802 105.546 245.584 87.9237 236.319C74.5637 229.294 64.713 215.348 58.645 194.874C57.2717 190.238 52.3943 187.594 47.7663 188.968C43.1317 190.34 40.4877 195.212 41.861 199.847C49.3597 225.154 62.2063 242.684 80.0437 251.952C93.945 259.176 107.865 259.691 117.458 258.734Z" fill="#C2A9BC" stroke="#262324" stroke-width="2.66667" stroke-miterlimit="10" stroke-linecap="round" stroke-linejoin="round"/>
<path d="M95.5916 239.457C110.529 244.017 124.086 239.787 124.373 239.696C128.941 238.185 133.885 240.647 135.421 245.217C136.962 249.8 134.496 254.763 129.913 256.303C129.47 256.451 124.697 258.012 117.458 258.733C110.996 259.379 102.564 259.345 93.501 257.052C93.9703 251.167 94.881 245.32 95.5916 239.457Z" fill="#262324"/>
<path d="M64.1444 191.851C64.1444 191.851 74.6124 188.824 71.5231 200.603C67.7044 215.163 34.0098 219.876 32.2684 204.257C31.5844 198.135 64.1444 191.851 64.1444 191.851Z" fill="white" stroke="#262324" stroke-width="2.66667" stroke-miterlimit="10" stroke-linecap="round" stroke-linejoin="round"/>
<path d="M68.7587 157.031C68.7587 157.031 61.7947 165.847 61.992 150.406C62.2253 132.251 63.6987 122.407 52.408 123.264C42.08 124.047 45.7147 156.171 45.7147 156.171C45.7147 156.171 40.452 135.25 34.1707 129.368C27.8893 123.487 22.2733 128.496 21.1213 133.999C19.9693 139.503 30.8773 162.43 30.8773 162.43C30.8773 162.43 21.7867 150.144 15.0227 144.458C8.26001 138.77 2.95334 140.899 1.41734 148.236C-0.119995 155.575 20.1173 174.131 20.1173 174.131C24.68 198.066 34.1587 206.202 54.712 199.395C75.2653 192.588 73.3267 185.164 75.7787 176.619C78.2307 168.074 84.0187 164.351 84.0187 164.351C84.0187 164.351 94.1773 156.64 88.4387 151.984C78.4493 143.878 68.7587 157.031 68.7587 157.031Z" fill="white" stroke="#262324" stroke-width="2.66667" stroke-miterlimit="10" stroke-linecap="round" stroke-linejoin="round"/>
<path d="M54.6306 156.029C54.6306 156.029 39.2853 153.471 24.4893 167.743Z" fill="white"/>
<path d="M54.6306 156.029C54.6306 156.029 39.2853 153.471 24.4893 167.743" stroke="#262324" stroke-width="2.66667" stroke-miterlimit="10" stroke-linecap="round" stroke-linejoin="round"/>
<path d="M358.378 255.139C351.14 254.416 346.366 252.856 345.924 252.708C341.341 251.167 338.876 246.204 340.416 241.622C341.952 237.052 346.896 234.591 351.465 236.102C351.8 236.207 370.29 241.99 387.913 232.724C401.273 225.699 411.124 211.754 417.192 191.279C418.565 186.643 423.442 183.999 428.07 185.374C432.705 186.746 435.349 191.618 433.976 196.252C426.477 221.559 413.63 239.09 395.793 248.358C381.892 255.582 367.972 256.096 358.378 255.139Z" fill="#C2A9BC" stroke="#262324" stroke-width="2.66667" stroke-miterlimit="10" stroke-linecap="round" stroke-linejoin="round"/>
<path d="M380.245 235.863C365.308 240.424 351.751 236.192 351.464 236.103C346.895 234.591 341.952 237.052 340.416 241.623C338.875 246.205 341.341 251.168 345.924 252.708C346.367 252.857 351.14 254.417 358.377 255.139C364.841 255.784 373.273 255.751 382.336 253.457C381.867 247.572 380.956 241.725 380.245 235.863Z" fill="#262324"/>
<path d="M411.693 188.256C411.693 188.256 401.225 185.23 404.314 197.008C408.133 211.568 441.826 216.282 443.569 200.663C444.253 194.54 411.693 188.256 411.693 188.256Z" fill="white" stroke="#262324" stroke-width="2.66667" stroke-miterlimit="10" stroke-linecap="round" stroke-linejoin="round"/>
<path d="M407.078 153.436C407.078 153.436 414.042 162.252 413.845 146.811C413.611 128.656 412.138 118.812 423.429 119.67C433.757 120.452 430.122 152.576 430.122 152.576C430.122 152.576 435.385 131.655 441.666 125.774C447.947 119.892 453.563 124.902 454.715 130.404C455.867 135.908 444.959 158.835 444.959 158.835C444.959 158.835 454.05 146.55 460.814 140.863C467.577 135.175 472.883 137.304 474.419 144.642C475.957 151.98 455.719 170.536 455.719 170.536C451.157 194.471 441.678 202.607 421.125 195.8C400.571 188.994 402.51 181.57 400.058 173.024C397.606 164.479 391.818 160.756 391.818 160.756C391.818 160.756 381.659 153.046 387.397 148.39C397.386 140.282 407.078 153.436 407.078 153.436Z" fill="white" stroke="#262324" stroke-width="2.66667" stroke-miterlimit="10" stroke-linecap="round" stroke-linejoin="round"/>
<path d="M421.206 152.434C421.206 152.434 436.551 149.877 451.349 164.149Z" fill="white"/>
<path d="M421.206 152.434C421.206 152.434 436.551 149.877 451.349 164.149" stroke="#262324" stroke-width="2.66667" stroke-miterlimit="10" stroke-linecap="round" stroke-linejoin="round"/>
<path d="M149.424 307.9C193.61 341.156 258.508 339.391 304.423 317.26C336.643 301.732 367.747 270.766 373.338 219.435C385.538 107.439 272.019 76.6896 235.346 75.7762C175.964 74.2989 101.086 111.706 99.5351 200.583C98.7351 246.383 122.704 287.79 149.424 307.9Z" fill="#C2A9BC" stroke="#262324" stroke-width="2.66667" stroke-miterlimit="10" stroke-linecap="round" stroke-linejoin="round"/>
<path d="M326.637 108.814C294.452 84.8432 254.461 76.2512 235.345 75.7765C218.668 75.3605 200.766 78.0138 183.61 84.0125C206.536 100.671 255.05 125.44 326.637 108.814Z" fill="#262324"/>
<path d="M305.545 71.6017C305.545 71.6017 318.845 35.9297 347.027 49.9643C375.208 64.0003 384.645 55.9643 392.915 45.3083L392.417 61.4057L403.047 65.6377C403.047 65.6377 393.069 86.4737 367.732 82.4483C342.395 78.423 336.253 48.9683 312.359 71.899C288.464 94.8297 305.545 71.6017 305.545 71.6017Z" fill="#C2A9BC" stroke="#262324" stroke-width="2.66667" stroke-miterlimit="10" stroke-linecap="round" stroke-linejoin="round"/>
<path d="M284.027 48.2068C284.027 48.2068 355.25 66.0975 350.087 96.6842C345.952 121.18 194.648 113.006 190.706 63.2122C187.723 25.5455 284.027 48.2068 284.027 48.2068Z" fill="#DE6848" stroke="#262324" stroke-width="2.66667" stroke-miterlimit="10" stroke-linecap="round" stroke-linejoin="round"/>
<path d="M223.247 60.5759C223.247 60.5759 263.068 88.8546 319.624 83.0839C319.624 83.0839 340.978 15.5612 287.307 2.86524C233.635 -9.83209 223.247 60.5759 223.247 60.5759Z" fill="#DE6848" stroke="#262324" stroke-width="2.66667" stroke-miterlimit="10" stroke-linecap="round" stroke-linejoin="round"/>
<path d="M231.529 33.9397C225.151 47.6903 223.246 60.5757 223.246 60.5757C223.246 60.5757 263.067 88.8543 319.625 83.0837C319.625 83.0837 323.851 69.701 323.813 53.7343C284.399 58.7637 251.717 45.5983 231.529 33.9397Z" fill="#C2A9BC" stroke="#262324" stroke-width="2.66667" stroke-miterlimit="10" stroke-linecap="round" stroke-linejoin="round"/>
<path d="M242.36 69.0187C242.36 69.0187 250.727 29.4213 258.553 30.3227C266.381 31.2227 270.523 59.416 270.523 59.416C270.523 59.416 276.735 56.9026 283.6 62.692C283.6 62.692 305.34 37.9093 310.217 41.4173C315.095 44.9266 308.407 86.8293 300.984 91.9773C293.56 97.124 281.644 81.788 281.644 81.788C281.644 81.788 271.396 81.872 264.785 78.8373C264.785 78.8373 238.188 85.4333 242.36 69.0187Z" fill="#C2A9BC"/>
<path d="M242.36 69.0187C242.36 69.0187 250.727 29.4213 258.553 30.3227C266.381 31.2227 270.523 59.416 270.523 59.416C270.523 59.416 276.735 56.9026 283.6 62.692C283.6 62.692 305.34 37.9093 310.217 41.4173C315.095 44.9266 308.407 86.8293 300.984 91.9773C293.56 97.124 281.644 81.788 281.644 81.788C281.644 81.788 271.396 81.872 264.785 78.8373C264.785 78.8373 238.188 85.4333 242.36 69.0187Z" stroke="#262324" stroke-width="2.66667" stroke-miterlimit="10" stroke-linecap="round" stroke-linejoin="round"/>
<path d="M270.522 59.4153C270.522 59.4153 260.346 67.0873 264.785 78.8367" stroke="#262324" stroke-width="2.66667" stroke-miterlimit="10" stroke-linecap="round" stroke-linejoin="round"/>
<path d="M283.6 62.6923C283.6 62.6923 287.908 74.5297 281.644 81.7883" stroke="#262324" stroke-width="2.66667" stroke-miterlimit="10" stroke-linecap="round" stroke-linejoin="round"/>
<path d="M227.896 229.802C227.896 229.802 210.656 219.938 206.728 227.333C202.859 234.617 213.906 244.815 213.906 244.815" stroke="#262324" stroke-width="2.66667" stroke-miterlimit="10" stroke-linecap="round" stroke-linejoin="round"/>
<path d="M143.568 276.125C151.743 282.278 163.751 281.951 172.246 277.857C178.207 274.983 183.962 269.254 184.995 259.757C187.252 239.037 166.25 233.347 159.466 233.178C148.479 232.905 134.626 239.826 134.338 256.269C134.19 264.743 138.624 272.403 143.568 276.125Z" fill="#DE6848"/>
<path d="M299.66 281.196C307.835 287.349 319.843 287.022 328.337 282.928C334.299 280.054 340.053 274.325 341.087 264.829C343.344 244.108 322.341 238.418 315.557 238.249C304.571 237.976 290.717 244.897 290.429 261.341C290.281 269.814 294.716 277.476 299.66 281.196Z" fill="#DE6848"/>
<path d="M219.074 275.384C219.074 275.384 230.67 249.291 238.145 271.444C238.145 271.444 245.386 248.908 258.684 275.384C258.684 275.384 254.669 290.058 240.9 292.024C227.13 293.992 219.074 275.384 219.074 275.384Z" fill="#DE6848"/>
<path d="M196.824 265.178C196.824 265.178 234.903 291.144 280.932 268.326" stroke="#262324" stroke-width="2.66667" stroke-miterlimit="10" stroke-linecap="round" stroke-linejoin="round"/>
<path d="M284.251 254.65C284.251 254.65 274.918 269.206 290.426 279.436" stroke="#262324" stroke-width="2.66667" stroke-miterlimit="10" stroke-linecap="round" stroke-linejoin="round"/>
<path d="M193.135 248.745C193.135 248.745 204.083 263.774 185.164 277.71" stroke="#262324" stroke-width="2.66667" stroke-miterlimit="10" stroke-linecap="round" stroke-linejoin="round"/>
<path d="M252.543 196.719C251.604 217.555 263.376 235.01 278.836 235.706C294.296 236.402 307.588 220.075 308.527 199.239C309.464 178.403 297.692 160.948 282.233 160.252C266.773 159.556 253.48 175.883 252.543 196.719Z" fill="white" stroke="#262324" stroke-width="2.66667" stroke-miterlimit="10" stroke-linecap="round" stroke-linejoin="round"/>
<path d="M308.49 194.043C308.49 194.043 316.557 201.933 326.393 191.31" stroke="#262324" stroke-width="2.66667" stroke-miterlimit="10" stroke-linecap="round" stroke-linejoin="round"/>
<path d="M308.49 205.099C308.49 205.099 315.842 213.342 323.333 205.142" stroke="#262324" stroke-width="2.66667" stroke-miterlimit="10" stroke-linecap="round" stroke-linejoin="round"/>
<path d="M286.974 206.424L301.333 203.992C301.034 189.9 294.304 178.639 285.524 178.244C276.112 177.82 267.917 190.039 267.22 205.535C266.521 221.031 273.585 233.936 282.997 234.36C291.222 234.731 298.518 225.443 300.692 212.75L286.974 206.424Z" fill="#262324"/>
<path d="M308.49 194.043C308.49 194.043 311.101 162.775 281.439 159.387C258.683 156.787 251.611 193.878 251.611 193.878C251.611 193.878 280.534 200.57 308.49 194.043Z" fill="#BBD2DA" stroke="#262324" stroke-width="2.66667" stroke-miterlimit="10" stroke-linecap="round" stroke-linejoin="round"/>
<path d="M316.891 151.095C284.21 113.918 251.611 147.85 251.611 147.85C251.611 147.85 264.05 123.281 293.215 129.275C311.805 133.097 316.891 151.095 316.891 151.095Z" fill="#262324"/>
<path d="M165.115 192.783C164.177 213.619 175.949 231.074 191.408 231.77C206.868 232.466 220.16 216.139 221.099 195.303C222.036 174.467 210.264 157.012 194.805 156.316C179.345 155.62 166.053 171.947 165.115 192.783Z" fill="white" stroke="#262324" stroke-width="2.66667" stroke-miterlimit="10" stroke-linecap="round" stroke-linejoin="round"/>
<path d="M165.115 192.783C165.115 192.783 156.09 201.933 146.254 191.31" stroke="#262324" stroke-width="2.66667" stroke-miterlimit="10" stroke-linecap="round" stroke-linejoin="round"/>
<path d="M165.793 203.624C165.793 203.624 156.806 213.342 149.314 205.142" stroke="#262324" stroke-width="2.66667" stroke-miterlimit="10" stroke-linecap="round" stroke-linejoin="round"/>
<path d="M199.548 202.489L213.906 200.057C213.608 185.965 206.877 174.703 198.097 174.309C188.685 173.885 180.49 186.103 179.792 201.599C179.094 217.095 186.158 230.001 195.57 230.425C203.796 230.795 211.092 221.507 213.265 208.814L199.548 202.489Z" fill="#262324"/>
<path d="M221.137 193.878C221.137 193.878 222.861 158.723 193.107 156.275C166.357 154.074 165.115 192.783 165.115 192.783C165.115 192.783 190.861 196.861 221.137 193.878Z" fill="#BBD2DA" stroke="#262324" stroke-width="2.66667" stroke-miterlimit="10" stroke-linecap="round" stroke-linejoin="round"/>
<path d="M233.058 151.095C233.058 151.095 233.885 162.794 223.563 162.591C208.958 162.305 184.261 111.251 157.553 146.415C157.553 146.415 164.838 129.87 181.718 130.37C198.597 130.87 223.563 168.218 233.058 151.095Z" fill="#262324"/>
</svg>
