<svg width="476" height="505" viewBox="0 0 476 505" fill="none" xmlns="http://www.w3.org/2000/svg">
<path d="M374.249 477.817C374.249 492.357 310.273 504.145 231.356 504.145C152.437 504.145 88.4609 492.357 88.4609 477.817C88.4609 463.277 152.437 451.489 231.356 451.489C310.273 451.489 374.249 463.277 374.249 477.817Z" fill="#262324"/>
<path d="M217.129 295.79C220.683 291.568 220.147 285.267 215.929 281.707C211.708 278.144 205.4 278.679 201.837 282.9C201.2 283.655 186.099 301.71 175.131 328.798C161.772 361.787 160.379 394.018 170.949 422.662C158.059 426.647 132.411 437.228 142.055 456.33C149.465 471.01 175.943 452.486 187.641 436.831C187.804 436.764 187.969 436.708 188.131 436.632C192.833 434.407 194.995 428.987 193.253 424.194C193.173 422.983 192.745 421.967 191.931 421.191C164.601 359.515 216.576 296.448 217.129 295.79Z" fill="#C2A9BC" stroke="#262324" stroke-width="2.66667" stroke-miterlimit="10" stroke-linecap="round" stroke-linejoin="round"/>
<path d="M192.726 339.025C202.446 313.606 216.84 296.134 217.129 295.79C220.682 291.569 220.146 285.268 215.929 281.708C211.708 278.144 205.4 278.678 201.837 282.9C201.2 283.656 186.098 301.71 175.13 328.797C174.94 329.269 174.776 329.74 174.589 330.21C180.841 332.708 186.866 335.897 192.726 339.025Z" fill="#262324"/>
<path d="M205.126 433.556C205.118 433.524 205.106 433.503 205.098 433.471C204.448 428.849 201.82 424.516 197.159 421.721C195.171 419.907 193.272 419.876 193.272 419.876C193.272 419.876 179.278 451.392 154.134 445.121C143.299 442.419 151.142 431.567 151.142 431.567C151.142 431.567 150.678 431.697 149.898 431.968H149.899C149.899 431.968 139.07 433.859 130.512 438.196C120.426 443.308 112.479 451.808 114.354 464.453C117.815 487.827 150.051 484.364 161.86 479.748C171.886 475.828 176.012 464.02 186.823 456.3C188.564 461.201 192.287 472.036 193.272 477.728C193.272 477.728 196.591 479.171 201.208 477.728C201.208 477.728 208.466 446.231 205.126 433.556Z" fill="#DE6848"/>
<path d="M205.126 433.556C205.118 433.524 205.106 433.503 205.098 433.471C204.448 428.849 201.82 424.516 197.159 421.721C195.171 419.907 193.272 419.876 193.272 419.876C193.272 419.876 179.278 451.392 154.134 445.121C143.299 442.419 151.142 431.567 151.142 431.567C151.142 431.567 150.678 431.697 149.898 431.968H149.899C149.899 431.968 139.07 433.859 130.512 438.196C120.426 443.308 112.479 451.808 114.354 464.453C117.815 487.827 150.051 484.364 161.86 479.748C171.886 475.828 176.012 464.02 186.823 456.3C188.564 461.201 192.287 472.036 193.272 477.728C193.272 477.728 196.591 479.171 201.208 477.728C201.208 477.728 208.466 446.231 205.126 433.556Z" stroke="#262324" stroke-width="2.66667" stroke-miterlimit="10" stroke-linecap="round" stroke-linejoin="round"/>
<path d="M114.603 456.042C114.603 456.042 116.192 473.357 141.441 474.078C166.689 474.799 171.019 459.921 185.157 451.489C199.297 443.058 206.483 443.099 205.127 433.555" stroke="#262324" stroke-width="2.66667" stroke-miterlimit="10" stroke-linecap="round" stroke-linejoin="round"/>
<path d="M283.609 422.663C294.179 394.017 292.786 361.788 279.429 328.797C268.459 301.711 253.358 283.656 252.721 282.9C249.162 278.683 242.865 278.149 238.645 281.704C234.423 285.257 233.881 291.563 237.429 295.788C237.963 296.425 289.961 359.503 262.627 421.191C261.813 421.967 261.385 422.983 261.303 424.195C259.565 428.988 261.725 434.408 266.429 436.632C266.589 436.708 266.753 436.764 266.915 436.831C278.614 452.485 305.093 471.009 312.503 456.331C322.147 437.228 296.501 426.647 283.609 422.663Z" fill="#C2A9BC" stroke="#262324" stroke-width="2.66667" stroke-miterlimit="10" stroke-linecap="round" stroke-linejoin="round"/>
<path d="M266.326 352.767C272.893 351.411 279.368 349.617 285.73 347.457C284.058 341.277 281.96 335.051 279.428 328.798C268.46 301.71 253.358 283.655 252.721 282.901C249.162 278.683 242.865 278.149 238.645 281.703C234.424 285.257 233.881 291.562 237.428 295.789C237.757 296.179 257.465 320.093 266.326 352.767Z" fill="#262324"/>
<path d="M249.432 433.556C249.44 433.524 249.452 433.503 249.46 433.471C250.111 428.849 252.738 424.516 257.399 421.721C259.387 419.907 261.286 419.876 261.286 419.876C261.286 419.876 275.28 451.392 300.424 445.121C311.259 442.419 303.416 431.567 303.416 431.567C303.416 431.567 303.88 431.697 304.66 431.968H304.659C304.659 431.968 315.488 433.859 324.046 438.196C334.132 443.308 342.079 451.808 340.206 464.453C336.743 487.827 304.507 484.364 292.698 479.748C282.672 475.828 278.546 464.02 267.735 456.3C265.994 461.201 262.271 472.036 261.286 477.728C261.286 477.728 257.967 479.171 253.35 477.728C253.35 477.728 246.092 446.231 249.432 433.556Z" fill="#DE6848"/>
<path d="M249.432 433.556C249.44 433.524 249.452 433.503 249.46 433.471C250.111 428.849 252.738 424.516 257.399 421.721C259.387 419.907 261.286 419.876 261.286 419.876C261.286 419.876 275.28 451.392 300.424 445.121C311.259 442.419 303.416 431.567 303.416 431.567C303.416 431.567 303.88 431.697 304.66 431.968H304.659C304.659 431.968 315.488 433.859 324.046 438.196C334.132 443.308 342.079 451.808 340.206 464.453C336.743 487.827 304.507 484.364 292.698 479.748C282.672 475.828 278.546 464.02 267.735 456.3C265.994 461.201 262.271 472.036 261.286 477.728C261.286 477.728 257.967 479.171 253.35 477.728C253.35 477.728 246.092 446.231 249.432 433.556Z" stroke="#262324" stroke-width="2.66667" stroke-miterlimit="10" stroke-linecap="round" stroke-linejoin="round"/>
<path d="M339.956 456.042C339.956 456.042 338.366 473.357 313.117 474.078C287.869 474.799 283.54 459.921 269.401 451.489C255.262 443.058 248.076 443.099 249.432 433.555" stroke="#262324" stroke-width="2.66667" stroke-miterlimit="10" stroke-linecap="round" stroke-linejoin="round"/>
<path d="M117.457 258.734C124.696 258.011 129.469 256.451 129.912 256.303C134.493 254.762 136.96 249.799 135.42 245.218C133.884 240.647 128.94 238.186 124.371 239.696C124.036 239.802 105.545 245.584 87.9227 236.319C74.5627 229.294 64.712 215.348 58.644 194.874C57.2707 190.238 52.3934 187.594 47.7654 188.968C43.1307 190.34 40.4867 195.212 41.86 199.847C49.3587 225.154 62.2054 242.684 80.0427 251.952C93.944 259.176 107.864 259.691 117.457 258.734Z" fill="#C2A9BC" stroke="#262324" stroke-width="2.66667" stroke-miterlimit="10" stroke-linecap="round" stroke-linejoin="round"/>
<path d="M95.5907 239.457C110.528 244.017 124.085 239.787 124.372 239.696C128.94 238.185 133.884 240.647 135.42 245.217C136.961 249.8 134.495 254.763 129.912 256.303C129.469 256.451 124.696 258.012 117.457 258.733C110.995 259.379 102.563 259.345 93.5 257.052C93.9693 251.167 94.88 245.32 95.5907 239.457Z" fill="#262324"/>
<path d="M64.1435 191.851C64.1435 191.851 74.6115 188.824 71.5221 200.603C67.7035 215.163 34.0088 219.876 32.2675 204.257C31.5835 198.135 64.1435 191.851 64.1435 191.851Z" fill="white" stroke="#262324" stroke-width="2.66667" stroke-miterlimit="10" stroke-linecap="round" stroke-linejoin="round"/>
<path d="M68.7577 157.031C68.7577 157.031 61.7937 165.847 61.991 150.406C62.2244 132.251 63.6977 122.407 52.407 123.264C42.079 124.047 45.7137 156.171 45.7137 156.171C45.7137 156.171 40.451 135.25 34.1697 129.368C27.8884 123.487 22.2724 128.496 21.1204 133.999C19.9684 139.503 30.8764 162.43 30.8764 162.43C30.8764 162.43 21.7857 150.144 15.0217 144.458C8.25903 138.77 2.95236 140.899 1.41636 148.236C-0.120972 155.575 20.1164 174.131 20.1164 174.131C24.679 198.066 34.1577 206.202 54.711 199.395C75.2644 192.588 73.3257 185.164 75.7777 176.619C78.2297 168.074 84.0177 164.351 84.0177 164.351C84.0177 164.351 94.1764 156.64 88.4377 151.984C78.4484 143.878 68.7577 157.031 68.7577 157.031Z" fill="white" stroke="#262324" stroke-width="2.66667" stroke-miterlimit="10" stroke-linecap="round" stroke-linejoin="round"/>
<path d="M54.6296 156.029C54.6296 156.029 39.2843 153.471 24.4883 167.743Z" fill="white"/>
<path d="M54.6296 156.029C54.6296 156.029 39.2843 153.471 24.4883 167.743" stroke="#262324" stroke-width="2.66667" stroke-miterlimit="10" stroke-linecap="round" stroke-linejoin="round"/>
<path d="M358.377 255.139C351.139 254.416 346.365 252.856 345.923 252.708C341.34 251.167 338.875 246.204 340.415 241.622C341.951 237.052 346.895 234.591 351.464 236.102C351.799 236.207 370.289 241.99 387.912 232.724C401.272 225.699 411.123 211.754 417.191 191.279C418.564 186.643 423.441 183.999 428.069 185.374C432.704 186.746 435.348 191.618 433.975 196.252C426.476 221.559 413.629 239.09 395.792 248.358C381.891 255.582 367.971 256.096 358.377 255.139Z" fill="#C2A9BC" stroke="#262324" stroke-width="2.66667" stroke-miterlimit="10" stroke-linecap="round" stroke-linejoin="round"/>
<path d="M380.244 235.863C365.307 240.424 351.75 236.192 351.463 236.103C346.894 234.591 341.951 237.052 340.415 241.623C338.874 246.205 341.34 251.168 345.923 252.708C346.366 252.857 351.139 254.417 358.376 255.139C364.84 255.784 373.272 255.751 382.335 253.457C381.866 247.572 380.955 241.725 380.244 235.863Z" fill="#262324"/>
<path d="M411.692 188.256C411.692 188.256 401.224 185.23 404.313 197.008C408.132 211.568 441.825 216.282 443.568 200.663C444.252 194.54 411.692 188.256 411.692 188.256Z" fill="white" stroke="#262324" stroke-width="2.66667" stroke-miterlimit="10" stroke-linecap="round" stroke-linejoin="round"/>
<path d="M407.077 153.436C407.077 153.436 414.041 162.252 413.844 146.811C413.61 128.656 412.137 118.812 423.428 119.67C433.756 120.452 430.121 152.576 430.121 152.576C430.121 152.576 435.384 131.655 441.665 125.774C447.946 119.892 453.562 124.902 454.714 130.404C455.866 135.908 444.958 158.835 444.958 158.835C444.958 158.835 454.049 146.55 460.813 140.863C467.576 135.175 472.882 137.304 474.418 144.642C475.956 151.98 455.718 170.536 455.718 170.536C451.156 194.471 441.677 202.607 421.124 195.8C400.57 188.994 402.509 181.57 400.057 173.024C397.605 164.479 391.817 160.756 391.817 160.756C391.817 160.756 381.658 153.046 387.396 148.39C397.385 140.282 407.077 153.436 407.077 153.436Z" fill="white" stroke="#262324" stroke-width="2.66667" stroke-miterlimit="10" stroke-linecap="round" stroke-linejoin="round"/>
<path d="M421.205 152.434C421.205 152.434 436.55 149.877 451.348 164.149Z" fill="white"/>
<path d="M421.205 152.434C421.205 152.434 436.55 149.877 451.348 164.149" stroke="#262324" stroke-width="2.66667" stroke-miterlimit="10" stroke-linecap="round" stroke-linejoin="round"/>
<path d="M149.423 307.9C193.609 341.156 258.507 339.391 304.422 317.26C336.642 301.732 367.746 270.766 373.337 219.435C385.537 107.439 272.018 76.6896 235.345 75.7762C175.963 74.2989 101.085 111.706 99.5341 200.583C98.7341 246.383 122.703 287.79 149.423 307.9Z" fill="#C2A9BC" stroke="#262324" stroke-width="2.66667" stroke-miterlimit="10" stroke-linecap="round" stroke-linejoin="round"/>
<path d="M326.636 108.814C294.451 84.8432 254.46 76.2512 235.344 75.7765C218.667 75.3605 200.765 78.0138 183.609 84.0125C206.535 100.671 255.049 125.44 326.636 108.814Z" fill="#262324"/>
<path d="M305.544 71.6017C305.544 71.6017 318.844 35.9297 347.026 49.9643C375.207 64.0003 384.644 55.9643 392.914 45.3083L392.416 61.4057L403.046 65.6377C403.046 65.6377 393.068 86.4737 367.731 82.4483C342.394 78.423 336.252 48.9683 312.358 71.899C288.463 94.8297 305.544 71.6017 305.544 71.6017Z" fill="#C2A9BC" stroke="#262324" stroke-width="2.66667" stroke-miterlimit="10" stroke-linecap="round" stroke-linejoin="round"/>
<path d="M284.026 48.2068C284.026 48.2068 355.249 66.0975 350.086 96.6842C345.951 121.18 194.647 113.006 190.705 63.2122C187.722 25.5455 284.026 48.2068 284.026 48.2068Z" fill="#DE6848" stroke="#262324" stroke-width="2.66667" stroke-miterlimit="10" stroke-linecap="round" stroke-linejoin="round"/>
<path d="M223.246 60.5759C223.246 60.5759 263.067 88.8546 319.623 83.0839C319.623 83.0839 340.977 15.5612 287.306 2.86524C233.634 -9.83209 223.246 60.5759 223.246 60.5759Z" fill="#DE6848" stroke="#262324" stroke-width="2.66667" stroke-miterlimit="10" stroke-linecap="round" stroke-linejoin="round"/>
<path d="M231.528 33.9397C225.15 47.6903 223.245 60.5757 223.245 60.5757C223.245 60.5757 263.066 88.8543 319.624 83.0837C319.624 83.0837 323.85 69.701 323.812 53.7343C284.398 58.7637 251.716 45.5983 231.528 33.9397Z" fill="#C2A9BC" stroke="#262324" stroke-width="2.66667" stroke-miterlimit="10" stroke-linecap="round" stroke-linejoin="round"/>
<path d="M242.359 69.0187C242.359 69.0187 250.726 29.4213 258.552 30.3227C266.38 31.2227 270.522 59.416 270.522 59.416C270.522 59.416 276.734 56.9026 283.599 62.692C283.599 62.692 305.339 37.9093 310.216 41.4173C315.094 44.9266 308.406 86.8293 300.983 91.9773C293.559 97.124 281.643 81.788 281.643 81.788C281.643 81.788 271.395 81.872 264.784 78.8373C264.784 78.8373 238.187 85.4333 242.359 69.0187Z" fill="#C2A9BC"/>
<path d="M242.359 69.0187C242.359 69.0187 250.726 29.4213 258.552 30.3227C266.38 31.2227 270.522 59.416 270.522 59.416C270.522 59.416 276.734 56.9026 283.599 62.692C283.599 62.692 305.339 37.9093 310.216 41.4173C315.094 44.9266 308.406 86.8293 300.983 91.9773C293.559 97.124 281.643 81.788 281.643 81.788C281.643 81.788 271.395 81.872 264.784 78.8373C264.784 78.8373 238.187 85.4333 242.359 69.0187Z" stroke="#262324" stroke-width="2.66667" stroke-miterlimit="10" stroke-linecap="round" stroke-linejoin="round"/>
<path d="M270.521 59.4153C270.521 59.4153 260.345 67.0873 264.784 78.8367" stroke="#262324" stroke-width="2.66667" stroke-miterlimit="10" stroke-linecap="round" stroke-linejoin="round"/>
<path d="M283.599 62.6923C283.599 62.6923 287.907 74.5297 281.643 81.7883" stroke="#262324" stroke-width="2.66667" stroke-miterlimit="10" stroke-linecap="round" stroke-linejoin="round"/>
<path d="M224.975 223.044C224.975 223.044 207.735 213.18 203.807 220.574C199.938 227.858 210.983 238.057 210.983 238.057" stroke="#262324" stroke-width="2.66667" stroke-miterlimit="10" stroke-linecap="round" stroke-linejoin="round"/>
<path d="M155.628 274.437C163.802 280.591 175.81 280.264 184.305 276.169C190.266 273.296 196.021 267.567 197.054 258.069C199.312 237.349 178.309 231.66 171.525 231.491C160.538 231.217 146.685 238.139 146.397 254.581C146.249 263.056 150.684 270.716 155.628 274.437Z" fill="#DE6848"/>
<path d="M289.388 274.857C297.562 281.01 309.57 280.683 318.065 276.589C324.026 273.715 329.78 267.986 330.814 258.489C333.072 237.769 312.069 232.079 305.285 231.91C294.298 231.637 280.444 238.558 280.157 255.002C280.009 263.475 284.444 271.135 289.388 274.857Z" fill="#DE6848"/>
<path d="M218.584 272.193C218.584 272.193 222.804 235.581 233.565 251.466C233.565 251.466 241.792 234.305 255.763 270.578C255.763 270.578 257.052 298.221 238.591 298.102C216.861 297.962 218.584 272.193 218.584 272.193Z" fill="#DE6848"/>
<path d="M224.795 275.601C226.163 285.732 231.008 286.524 237.173 285.691C243.339 284.859 248.491 282.716 247.123 272.585C245.753 262.453 239.647 254.916 233.48 255.749C227.315 256.583 223.427 265.471 224.795 275.601Z" fill="#262324"/>
<path d="M249.622 189.961C248.684 210.797 260.455 228.252 275.915 228.948C291.375 229.644 304.667 213.317 305.606 192.481C306.543 171.645 294.771 154.19 279.312 153.494C263.852 152.798 250.559 169.125 249.622 189.961Z" fill="white" stroke="#262324" stroke-width="2.66667" stroke-miterlimit="10" stroke-linecap="round" stroke-linejoin="round"/>
<path d="M305.569 187.285C305.569 187.285 313.636 195.174 323.472 184.552" stroke="#262324" stroke-width="2.66667" stroke-miterlimit="10" stroke-linecap="round" stroke-linejoin="round"/>
<path d="M305.569 198.341C305.569 198.341 312.921 206.584 320.412 198.384" stroke="#262324" stroke-width="2.66667" stroke-miterlimit="10" stroke-linecap="round" stroke-linejoin="round"/>
<path d="M284.053 199.666L298.412 197.234C298.113 183.142 291.383 171.881 282.603 171.485C273.191 171.062 264.996 183.281 264.297 198.777C263.6 214.273 270.664 227.178 280.076 227.602C288.301 227.973 295.597 218.685 297.771 205.992L284.053 199.666Z" fill="#262324"/>
<path d="M313.97 146.095C281.289 108.918 248.69 142.85 248.69 142.85C248.69 142.85 261.129 118.281 290.294 124.275C308.884 128.097 313.97 146.095 313.97 146.095Z" fill="#262324"/>
<path d="M162.194 186.025C161.257 206.861 173.027 224.316 188.487 225.012C203.947 225.708 217.239 209.381 218.178 188.545C219.115 167.709 207.343 150.254 191.885 149.558C176.425 148.862 163.131 165.189 162.194 186.025Z" fill="white" stroke="#262324" stroke-width="2.66667" stroke-miterlimit="10" stroke-linecap="round" stroke-linejoin="round"/>
<path d="M162.194 186.025C162.194 186.025 153.169 195.174 143.333 184.552" stroke="#262324" stroke-width="2.66667" stroke-miterlimit="10" stroke-linecap="round" stroke-linejoin="round"/>
<path d="M162.872 196.866C162.872 196.866 153.886 206.583 146.394 198.383" stroke="#262324" stroke-width="2.66667" stroke-miterlimit="10" stroke-linecap="round" stroke-linejoin="round"/>
<path d="M196.627 195.731L210.985 193.299C210.687 179.207 203.956 167.945 195.176 167.551C185.764 167.127 177.569 179.345 176.871 194.841C176.173 210.337 183.237 223.243 192.649 223.667C200.875 224.037 208.171 214.749 210.344 202.056L196.627 195.731Z" fill="#262324"/>
<path d="M148.701 146.095C181.383 108.918 213.981 142.85 213.981 142.85C213.981 142.85 201.543 118.281 172.377 124.275C153.788 128.097 148.701 146.095 148.701 146.095Z" fill="#262324"/>
</svg>
