<svg width="405" height="523" viewBox="0 0 405 523" fill="none" xmlns="http://www.w3.org/2000/svg">
<path d="M137.92 306.967C174.74 342.907 234.837 348.992 279.837 334.029C311.415 323.529 343.796 298.652 355.057 251.949C379.628 150.052 278.532 108.184 244.799 102.983C190.179 94.56 116.636 120.177 104.64 202.007C98.4586 244.175 115.655 285.233 137.92 306.967Z" fill="#C2A9BC" stroke="#262324" stroke-width="2.66667" stroke-miterlimit="10" stroke-linecap="round" stroke-linejoin="round"/>
<path d="M74.6338 494.454C74.6338 510.024 136.882 522.646 213.668 522.646C290.454 522.646 352.702 510.024 352.702 494.454C352.702 478.883 290.454 466.262 213.668 466.262C136.882 466.262 74.6338 478.883 74.6338 494.454Z" fill="#262324"/>
<path d="M180.479 319.957C177.961 321.818 119.205 366.791 154.911 476.343C155.819 479.13 157.97 481.163 160.55 482.03C162.302 482.619 164.251 482.671 166.145 482.055C170.823 480.53 173.381 475.501 171.855 470.821C158.745 430.595 157.951 394.21 169.559 365.601C178.253 344.178 190.986 334.355 191.113 334.258" fill="#C2A9BC"/>
<path d="M180.479 319.957C177.961 321.818 119.205 366.791 154.911 476.343C155.819 479.13 157.97 481.163 160.55 482.03C162.302 482.619 164.251 482.671 166.145 482.055C170.823 480.53 173.381 475.501 171.855 470.821C158.745 430.595 157.951 394.21 169.559 365.601C178.253 344.178 190.986 334.355 191.113 334.258" stroke="#262324" stroke-width="2.66667" stroke-miterlimit="10" stroke-linecap="round" stroke-linejoin="round"/>
<path d="M177.586 350.078C184.483 339.375 191.021 334.328 191.113 334.258L180.478 319.956C179.571 320.627 171.367 326.892 162.91 339.754C167.634 343.438 172.469 346.982 177.586 350.078Z" fill="#262324"/>
<path d="M173.756 425.826C173.756 425.826 140.891 414.752 136.987 428.012C133.907 438.476 134.034 455.388 134.255 463.459C129.306 463.884 115.926 463.07 110.384 465.159C97.2964 470.094 101.89 485.495 101.89 485.495C131.183 504.819 174.092 483.195 174.092 483.195C172.3 453.612 173.756 425.826 173.756 425.826Z" fill="#BBD2DA" stroke="#262324" stroke-width="2.66667" stroke-miterlimit="10" stroke-linecap="round" stroke-linejoin="round"/>
<path d="M101.22 477.289C100.764 481.709 101.891 485.496 101.891 485.496C131.183 504.82 174.093 483.194 174.093 483.194C173.945 480.741 173.82 478.302 173.713 475.889C138.763 489.946 115.641 485.238 101.22 477.289Z" fill="white" stroke="#262324" stroke-width="2.66667" stroke-miterlimit="10" stroke-linecap="round" stroke-linejoin="round"/>
<path d="M131.113 435.893C131.113 435.893 127.534 407.829 129.788 399.289C132.04 390.749 144.474 392.236 144.474 392.236C144.474 392.236 139.442 401.297 152.886 403.339C158.714 404.224 160.953 402.292 161.77 400.273C162.498 398.473 162.096 396.607 162.096 396.607C163.322 392.709 176.277 396.441 178.213 400.905C181.761 409.089 180.985 440.961 172.336 444.18C160.67 448.52 138.884 447.805 131.113 435.893Z" fill="white" stroke="#262324" stroke-width="2.66667" stroke-miterlimit="10" stroke-linecap="round" stroke-linejoin="round"/>
<path d="M142.488 397.145C142.488 397.145 137.881 398.293 136.341 403.146C134.49 408.982 136.882 441.503 136.882 441.503" stroke="#262324" stroke-width="2.66667" stroke-miterlimit="10" stroke-linecap="round" stroke-linejoin="round"/>
<path d="M149.029 402.282C149.029 402.282 145.481 404.567 145.357 408.451C145.234 412.336 146.905 445.515 146.905 445.515" stroke="#262324" stroke-width="2.66667" stroke-miterlimit="10" stroke-linecap="round" stroke-linejoin="round"/>
<path d="M155.966 403.548C155.966 403.548 159.868 405.509 160.951 409.723C161.952 413.62 159.867 446.544 159.867 446.544" stroke="#262324" stroke-width="2.66667" stroke-miterlimit="10" stroke-linecap="round" stroke-linejoin="round"/>
<path d="M169.223 445.151C169.223 445.151 174.897 413.222 170.707 405.407C168.465 401.226 161.771 400.274 161.771 400.274" stroke="#262324" stroke-width="2.66667" stroke-miterlimit="10" stroke-linecap="round" stroke-linejoin="round"/>
<path d="M122.565 255.321C122.609 255.653 124.836 273.537 113.437 288.131C104.79 299.2 90.3928 305.909 70.6408 308.073C66.1702 308.563 62.9435 312.584 63.4328 317.055C63.5208 317.865 63.7248 318.633 64.0275 319.347C65.3928 322.573 68.7542 324.664 72.4155 324.263C96.8248 321.589 115.004 312.732 126.444 297.936C142.088 277.704 138.833 253.997 138.686 252.999" fill="#C2A9BC"/>
<path d="M122.565 255.321C122.609 255.653 124.836 273.537 113.437 288.131C104.79 299.2 90.3928 305.909 70.6408 308.073C66.1702 308.563 62.9435 312.584 63.4328 317.055C63.5208 317.865 63.7248 318.633 64.0275 319.347C65.3928 322.573 68.7542 324.664 72.4155 324.263C96.8248 321.589 115.004 312.732 126.444 297.936C142.088 277.704 138.833 253.997 138.686 252.999" stroke="#262324" stroke-width="2.66667" stroke-miterlimit="10" stroke-linecap="round" stroke-linejoin="round"/>
<path d="M37.6707 292.547C37.6707 292.547 44.588 300.383 30.484 297.644C13.9013 294.424 5.13335 291.444 4.04801 301.924C3.05468 311.508 33.0667 313.503 33.0667 313.503C33.0667 313.503 11.2027 314.398 4.77868 319.174C-1.64665 323.95 2.00935 329.922 6.85734 331.887C11.704 333.854 36.34 328.123 36.34 328.123C36.34 328.123 24.208 334.438 17.88 339.687C11.5533 344.938 12.624 350.148 19.0867 352.771C25.5507 355.392 45.2707 339.912 45.2707 339.912C67.9387 339.698 76.9587 332.368 74.1307 312.423C71.3027 292.479 64.184 293.024 56.7667 289.364C49.3493 285.704 46.8987 279.788 46.8987 279.788C46.8987 279.788 41.5227 269.211 36.3093 273.692C27.2333 281.495 37.6707 292.547 37.6707 292.547Z" fill="white" stroke="#262324" stroke-width="2.66667" stroke-miterlimit="10" stroke-linecap="round" stroke-linejoin="round"/>
<path d="M68.786 302.539C68.786 302.539 67.75 292.453 78.0207 297.232C90.718 303.14 89.4527 334.769 74.8647 333.777C69.1474 333.389 68.786 302.539 68.786 302.539Z" fill="white" stroke="#262324" stroke-width="2.66667" stroke-miterlimit="10" stroke-linecap="round" stroke-linejoin="round"/>
<path d="M35.1957 303.371C35.1957 303.371 30.0051 320.558 39.6704 333.801" stroke="#262324" stroke-width="2.66667" stroke-miterlimit="10" stroke-linecap="round" stroke-linejoin="round"/>
<path d="M336.088 353.725C336.088 353.725 346.002 350.409 337.982 362.329C328.552 376.346 322.391 383.26 331.618 388.344C340.058 392.994 353.592 366.133 353.592 366.133C353.592 366.133 347.458 389.297 349.352 397.076C351.246 404.854 358.17 403.816 361.871 400.117C365.571 396.42 368.332 368.817 368.332 368.817C368.332 368.817 370.982 385.133 373.351 393.006C375.719 400.88 380.935 401.925 385.87 396.994C390.803 392.064 382.67 365.188 382.67 365.188C391.308 344.229 388.074 333.066 368.604 327.897C349.135 322.726 346.863 329.494 340.6 334.898C334.339 340.302 327.936 340.253 327.936 340.253C327.936 340.253 316.099 341.081 318.195 347.629C321.843 359.03 336.088 353.725 336.088 353.725Z" fill="white" stroke="#262324" stroke-width="2.66667" stroke-miterlimit="10" stroke-linecap="round" stroke-linejoin="round"/>
<path d="M375.474 345.536C375.474 345.536 373.568 355.104 376.453 355.184C379.34 355.262 375.474 345.536 375.474 345.536Z" fill="#262324"/>
<path d="M358.079 339.899C358.079 339.899 350.201 343.793 352.005 346.041C353.809 348.289 358.079 339.899 358.079 339.899Z" fill="#262324"/>
<path d="M365.856 344.204C365.856 344.204 366.96 354.728 362.184 354.766C359.963 354.783 365.856 344.204 365.856 344.204Z" fill="#262324"/>
<path d="M205.783 70.6951L198.485 105.123C198.485 105.123 255.267 147.496 324.045 140.787L340.996 108.19L269.489 50.2911L205.783 70.6951Z" fill="white" stroke="#262324" stroke-width="2.66667" stroke-miterlimit="10" stroke-linecap="round" stroke-linejoin="round"/>
<g opacity="0.199997">
<mask id="mask0_709_2798" style="mask-type:luminance" maskUnits="userSpaceOnUse" x="202" y="50" width="138" height="86">
<path d="M202.812 50.2907H339.644V135.329H202.812V50.2907Z" fill="white"/>
</mask>
<g mask="url(#mask0_709_2798)">
<path d="M205.885 69.9915L202.812 91.0582C202.812 91.0582 256.905 141.424 325.684 134.714L339.644 108.64L269.489 50.2915L205.885 69.9915Z" fill="#262324"/>
</g>
</g>
<path d="M241.314 61.03C288.57 180.231 435.506 124.951 396.57 48.1434C364.179 -15.7526 301.701 34.1834 264.651 17.0007C211.421 -7.68596 186.857 -3.05929 175.313 29.8874C161.766 68.5474 193.573 83.0447 193.573 83.0447C193.573 83.0447 216.693 95.394 256.855 90.9234" fill="#BBD2DA"/>
<path d="M241.314 61.03C288.57 180.231 435.506 124.951 396.57 48.1434C364.179 -15.7526 301.701 34.1834 264.651 17.0007C211.421 -7.68596 186.857 -3.05929 175.313 29.8874C161.766 68.5474 193.573 83.0447 193.573 83.0447C193.573 83.0447 216.693 95.394 256.855 90.9234" stroke="#262324" stroke-width="2.66667" stroke-miterlimit="10" stroke-linecap="round" stroke-linejoin="round"/>
<path d="M255.567 12.9567C255.567 12.9567 281.294 -7.18327 300.087 19.6754C300.087 19.6754 278.163 25.5581 255.567 12.9567Z" fill="#262324"/>
<path d="M293.646 21.0469C293.646 21.0469 350.562 13.9563 346.266 111.503L364.178 95.8989L382.29 102.171C382.29 102.171 374.04 0.0695969 296.794 15.5149L293.646 21.0469Z" fill="#262324"/>
<path d="M244.404 323.406C242.852 326.126 207.276 391.003 284.199 476.791C286.155 478.973 288.944 479.963 291.655 479.715C293.495 479.546 295.299 478.805 296.783 477.477C300.447 474.191 300.753 468.558 297.468 464.893C269.223 433.394 253.797 400.431 252.856 369.57C252.153 346.462 259.832 332.333 259.909 332.191" fill="#C2A9BC"/>
<path d="M244.404 323.406C242.852 326.126 207.276 391.003 284.199 476.791C286.155 478.973 288.944 479.963 291.655 479.715C293.495 479.546 295.299 478.805 296.783 477.477C300.447 474.191 300.753 468.558 297.468 464.893C269.223 433.394 253.797 400.431 252.856 369.57C252.153 346.462 259.832 332.333 259.909 332.191" stroke="#262324" stroke-width="2.66667" stroke-miterlimit="10" stroke-linecap="round" stroke-linejoin="round"/>
<path d="M281.028 422.965C281.028 422.965 246.491 426.115 248.278 439.821C249.687 450.637 256.636 466.057 260.099 473.349C255.743 475.737 243.175 480.4 238.951 484.549C228.971 494.351 239.396 506.584 239.396 506.584C273.999 512.425 304.514 475.308 304.514 475.308C290.923 448.971 281.028 422.965 281.028 422.965Z" fill="#BBD2DA" stroke="#262324" stroke-width="2.66667" stroke-miterlimit="10" stroke-linecap="round" stroke-linejoin="round"/>
<path d="M235.468 499.348C236.836 503.574 239.397 506.584 239.397 506.584C274 512.425 304.514 475.308 304.514 475.308C303.388 473.124 302.288 470.944 301.216 468.778C274.924 495.758 251.872 500.793 235.468 499.348Z" fill="white" stroke="#262324" stroke-width="2.66667" stroke-miterlimit="10" stroke-linecap="round" stroke-linejoin="round"/>
<path d="M246.087 449.404C246.087 449.404 231.475 425.179 230.086 416.456C228.695 407.733 240.671 404.069 240.671 404.069C240.671 404.069 239.73 414.392 252.853 410.828C258.541 409.283 259.809 406.611 259.739 404.435C259.678 402.495 258.555 400.949 258.555 400.949C258.103 396.889 271.462 395.069 275.035 398.371C281.589 404.421 293.755 433.889 287.143 440.328C278.227 449.013 258.009 457.16 246.087 449.404Z" fill="white" stroke="#262324" stroke-width="2.66667" stroke-miterlimit="10" stroke-linecap="round" stroke-linejoin="round"/>
<path d="M240.837 409.363C240.837 409.363 237.086 412.274 237.64 417.336C238.304 423.422 253.632 452.206 253.632 452.206" stroke="#262324" stroke-width="2.66667" stroke-miterlimit="10" stroke-linecap="round" stroke-linejoin="round"/>
<path d="M248.898 411.419C248.898 411.419 246.575 414.943 248.032 418.546C249.488 422.15 264.422 451.825 264.422 451.825" stroke="#262324" stroke-width="2.66667" stroke-miterlimit="10" stroke-linecap="round" stroke-linejoin="round"/>
<path d="M284.689 442.475C284.689 442.475 276.979 410.975 269.989 405.519C266.249 402.601 259.739 404.434 259.739 404.434" stroke="#262324" stroke-width="2.66667" stroke-miterlimit="10" stroke-linecap="round" stroke-linejoin="round"/>
<path d="M255.753 409.775C255.753 409.775 260.116 409.992 262.808 413.41C265.298 416.57 276.693 447.528 276.693 447.528" stroke="#262324" stroke-width="2.66667" stroke-miterlimit="10" stroke-linecap="round" stroke-linejoin="round"/>
<path d="M249.929 213.437C247.432 232.249 256.724 249.003 270.681 250.855C284.64 252.708 297.98 238.959 300.476 220.147C302.973 201.334 293.682 184.582 279.724 182.728C265.765 180.876 252.426 194.626 249.929 213.437Z" fill="white" stroke="#262324" stroke-width="2.66667" stroke-miterlimit="10" stroke-linecap="round" stroke-linejoin="round"/>
<path d="M272.556 222.136L285.764 221.065C286.607 208.269 281.396 197.529 273.468 196.477C264.971 195.349 256.576 205.777 254.719 219.768C252.863 233.76 258.245 246.016 266.743 247.144C274.171 248.129 281.517 240.287 284.491 228.953L272.556 222.136Z" fill="#262324"/>
<path d="M309.079 184.482C309.079 184.482 288.011 152.092 259.359 171.541C259.359 171.541 267.697 151.157 288.915 158.553C309.742 165.813 309.079 184.482 309.079 184.482Z" fill="#262324"/>
<path d="M170.993 202.961C168.495 221.773 177.787 238.526 191.745 240.378C205.703 242.231 219.043 228.482 221.539 209.67C224.037 190.857 214.746 174.105 200.787 172.251C186.829 170.399 173.49 184.149 170.993 202.961Z" fill="white" stroke="#262324" stroke-width="2.66667" stroke-miterlimit="10" stroke-linecap="round" stroke-linejoin="round"/>
<path d="M193.62 211.66L206.828 210.589C207.671 197.793 202.46 187.053 194.532 186.001C186.035 184.873 177.64 195.301 175.783 209.292C173.927 223.284 179.31 235.54 187.807 236.668C195.235 237.654 202.582 229.81 205.555 218.477L193.62 211.66Z" fill="#262324"/>
<path d="M226.808 168.681C226.808 168.681 202.309 143.275 176.084 165.891C176.084 165.891 182.969 144.675 204.213 147.612C226.061 150.633 226.808 168.681 226.808 168.681Z" fill="#262324"/>
<path d="M295.566 263.234C295.566 263.234 207.342 300.235 164.619 240.237" stroke="#262324" stroke-width="2.66667" stroke-miterlimit="10" stroke-linecap="round" stroke-linejoin="round"/>
<path d="M297.43 249.215C297.43 249.215 288.444 256.335 297.287 264.754C303.031 270.222 310.975 264.94 310.975 264.94" stroke="#262324" stroke-width="2.66667" stroke-miterlimit="10" stroke-linecap="round" stroke-linejoin="round"/>
<path d="M166.201 228.335C166.201 228.335 169.933 237.663 161.796 239.861C153.657 242.058 150.333 235.279 150.333 235.279" stroke="#262324" stroke-width="2.66667" stroke-miterlimit="10" stroke-linecap="round" stroke-linejoin="round"/>
<path d="M256.74 281.576C256.74 281.576 239.865 294.443 222.295 292.207C204.724 289.971 194.208 273.443 194.208 273.443" stroke="#262324" stroke-width="2.66667" stroke-miterlimit="10" stroke-linecap="round" stroke-linejoin="round"/>
<path d="M232.496 235.21C232.496 235.21 210.375 224.636 206.096 241.252C201.817 257.868 230.232 264.253 230.932 253.13" stroke="#262324" stroke-width="2.66667" stroke-miterlimit="10" stroke-linecap="round" stroke-linejoin="round"/>
</svg>
