<svg width="476" height="505" viewBox="0 0 476 505" fill="none" xmlns="http://www.w3.org/2000/svg">
<path d="M374.249 477.817C374.249 492.357 310.273 504.145 231.356 504.145C152.437 504.145 88.4609 492.357 88.4609 477.817C88.4609 463.277 152.437 451.489 231.356 451.489C310.273 451.489 374.249 463.277 374.249 477.817Z" fill="#262324"/>
<path d="M217.129 295.79C220.683 291.568 220.147 285.267 215.929 281.707C211.708 278.144 205.4 278.679 201.837 282.9C201.2 283.655 186.099 301.71 175.131 328.798C161.772 361.787 160.379 394.018 170.949 422.662C158.059 426.647 132.411 437.228 142.055 456.33C149.465 471.01 175.943 452.486 187.641 436.831C187.804 436.764 187.969 436.708 188.131 436.632C192.833 434.407 194.995 428.987 193.253 424.194C193.173 422.983 192.745 421.967 191.931 421.191C164.601 359.515 216.576 296.448 217.129 295.79Z" fill="#C2A9BC" stroke="#262324" stroke-width="2.66667" stroke-miterlimit="10" stroke-linecap="round" stroke-linejoin="round"/>
<path d="M192.726 339.025C202.446 313.606 216.84 296.134 217.129 295.79C220.682 291.569 220.146 285.268 215.929 281.708C211.708 278.144 205.4 278.678 201.837 282.9C201.2 283.656 186.098 301.71 175.13 328.797C174.94 329.269 174.776 329.74 174.589 330.21C180.841 332.708 186.866 335.897 192.726 339.025Z" fill="#262324"/>
<path d="M205.126 433.556C205.118 433.524 205.106 433.503 205.098 433.471C204.448 428.849 201.82 424.516 197.159 421.721C195.171 419.907 193.272 419.876 193.272 419.876C193.272 419.876 179.278 451.392 154.134 445.121C143.299 442.419 151.142 431.567 151.142 431.567C151.142 431.567 150.678 431.697 149.898 431.968H149.899C149.899 431.968 139.07 433.859 130.512 438.196C120.426 443.308 112.479 451.808 114.354 464.453C117.815 487.827 150.051 484.364 161.86 479.748C171.886 475.828 176.012 464.02 186.823 456.3C188.564 461.201 192.287 472.036 193.272 477.728C193.272 477.728 196.591 479.171 201.208 477.728C201.208 477.728 208.466 446.231 205.126 433.556Z" fill="#DE6848"/>
<path d="M205.126 433.556C205.118 433.524 205.106 433.503 205.098 433.471C204.448 428.849 201.82 424.516 197.159 421.721C195.171 419.907 193.272 419.876 193.272 419.876C193.272 419.876 179.278 451.392 154.134 445.121C143.299 442.419 151.142 431.567 151.142 431.567C151.142 431.567 150.678 431.697 149.898 431.968H149.899C149.899 431.968 139.07 433.859 130.512 438.196C120.426 443.308 112.479 451.808 114.354 464.453C117.815 487.827 150.051 484.364 161.86 479.748C171.886 475.828 176.012 464.02 186.823 456.3C188.564 461.201 192.287 472.036 193.272 477.728C193.272 477.728 196.591 479.171 201.208 477.728C201.208 477.728 208.466 446.231 205.126 433.556Z" stroke="#262324" stroke-width="2.66667" stroke-miterlimit="10" stroke-linecap="round" stroke-linejoin="round"/>
<path d="M114.603 456.042C114.603 456.042 116.192 473.357 141.441 474.078C166.689 474.799 171.019 459.921 185.157 451.489C199.297 443.058 206.483 443.099 205.127 433.555" stroke="#262324" stroke-width="2.66667" stroke-miterlimit="10" stroke-linecap="round" stroke-linejoin="round"/>
<path d="M283.609 422.663C294.179 394.017 292.786 361.788 279.429 328.797C268.459 301.711 253.358 283.656 252.721 282.9C249.162 278.683 242.865 278.149 238.645 281.704C234.423 285.257 233.881 291.563 237.429 295.788C237.963 296.425 289.961 359.503 262.627 421.191C261.813 421.967 261.385 422.983 261.303 424.195C259.565 428.988 261.725 434.408 266.429 436.632C266.589 436.708 266.753 436.764 266.915 436.831C278.614 452.485 305.093 471.009 312.503 456.331C322.147 437.228 296.501 426.647 283.609 422.663Z" fill="#C2A9BC" stroke="#262324" stroke-width="2.66667" stroke-miterlimit="10" stroke-linecap="round" stroke-linejoin="round"/>
<path d="M266.326 352.767C272.893 351.411 279.368 349.617 285.73 347.457C284.058 341.277 281.96 335.051 279.428 328.798C268.46 301.71 253.358 283.655 252.721 282.901C249.162 278.683 242.865 278.149 238.645 281.703C234.424 285.257 233.881 291.562 237.428 295.789C237.757 296.179 257.465 320.093 266.326 352.767Z" fill="#262324"/>
<path d="M249.432 433.556C249.44 433.524 249.452 433.503 249.46 433.471C250.111 428.849 252.738 424.516 257.399 421.721C259.387 419.907 261.286 419.876 261.286 419.876C261.286 419.876 275.28 451.392 300.424 445.121C311.259 442.419 303.416 431.567 303.416 431.567C303.416 431.567 303.88 431.697 304.66 431.968H304.659C304.659 431.968 315.488 433.859 324.046 438.196C334.132 443.308 342.079 451.808 340.206 464.453C336.743 487.827 304.507 484.364 292.698 479.748C282.672 475.828 278.546 464.02 267.735 456.3C265.994 461.201 262.271 472.036 261.286 477.728C261.286 477.728 257.967 479.171 253.35 477.728C253.35 477.728 246.092 446.231 249.432 433.556Z" fill="#DE6848"/>
<path d="M249.432 433.556C249.44 433.524 249.452 433.503 249.46 433.471C250.111 428.849 252.738 424.516 257.399 421.721C259.387 419.907 261.286 419.876 261.286 419.876C261.286 419.876 275.28 451.392 300.424 445.121C311.259 442.419 303.416 431.567 303.416 431.567C303.416 431.567 303.88 431.697 304.66 431.968H304.659C304.659 431.968 315.488 433.859 324.046 438.196C334.132 443.308 342.079 451.808 340.206 464.453C336.743 487.827 304.507 484.364 292.698 479.748C282.672 475.828 278.546 464.02 267.735 456.3C265.994 461.201 262.271 472.036 261.286 477.728C261.286 477.728 257.967 479.171 253.35 477.728C253.35 477.728 246.092 446.231 249.432 433.556Z" stroke="#262324" stroke-width="2.66667" stroke-miterlimit="10" stroke-linecap="round" stroke-linejoin="round"/>
<path d="M339.956 456.042C339.956 456.042 338.366 473.357 313.117 474.078C287.869 474.799 283.54 459.921 269.401 451.489C255.262 443.058 248.076 443.099 249.432 433.555" stroke="#262324" stroke-width="2.66667" stroke-miterlimit="10" stroke-linecap="round" stroke-linejoin="round"/>
<path d="M117.457 258.734C124.696 258.011 129.469 256.451 129.912 256.303C134.493 254.762 136.96 249.799 135.42 245.218C133.884 240.647 128.94 238.186 124.371 239.696C124.036 239.802 105.545 245.584 87.9227 236.319C74.5627 229.294 64.712 215.348 58.644 194.874C57.2707 190.238 52.3934 187.594 47.7654 188.968C43.1307 190.34 40.4867 195.212 41.86 199.847C49.3587 225.154 62.2054 242.684 80.0427 251.952C93.944 259.176 107.864 259.691 117.457 258.734Z" fill="#C2A9BC" stroke="#262324" stroke-width="2.66667" stroke-miterlimit="10" stroke-linecap="round" stroke-linejoin="round"/>
<path d="M95.5907 239.457C110.528 244.017 124.085 239.787 124.372 239.696C128.94 238.185 133.884 240.647 135.42 245.217C136.961 249.8 134.495 254.763 129.912 256.303C129.469 256.451 124.696 258.012 117.457 258.733C110.995 259.379 102.563 259.345 93.5 257.052C93.9693 251.167 94.88 245.32 95.5907 239.457Z" fill="#262324"/>
<path d="M64.1435 191.851C64.1435 191.851 74.6115 188.824 71.5221 200.603C67.7035 215.163 34.0088 219.876 32.2675 204.257C31.5835 198.135 64.1435 191.851 64.1435 191.851Z" fill="white" stroke="#262324" stroke-width="2.66667" stroke-miterlimit="10" stroke-linecap="round" stroke-linejoin="round"/>
<path d="M68.7577 157.031C68.7577 157.031 61.7937 165.847 61.991 150.406C62.2244 132.251 63.6977 122.407 52.407 123.264C42.079 124.047 45.7137 156.171 45.7137 156.171C45.7137 156.171 40.451 135.25 34.1697 129.368C27.8884 123.487 22.2724 128.496 21.1204 133.999C19.9684 139.503 30.8764 162.43 30.8764 162.43C30.8764 162.43 21.7857 150.144 15.0217 144.458C8.25903 138.77 2.95236 140.899 1.41636 148.236C-0.120972 155.575 20.1164 174.131 20.1164 174.131C24.679 198.066 34.1577 206.202 54.711 199.395C75.2644 192.588 73.3257 185.164 75.7777 176.619C78.2297 168.074 84.0177 164.351 84.0177 164.351C84.0177 164.351 94.1764 156.64 88.4377 151.984C78.4484 143.878 68.7577 157.031 68.7577 157.031Z" fill="white" stroke="#262324" stroke-width="2.66667" stroke-miterlimit="10" stroke-linecap="round" stroke-linejoin="round"/>
<path d="M54.6296 156.029C54.6296 156.029 39.2843 153.471 24.4883 167.743Z" fill="white"/>
<path d="M54.6296 156.029C54.6296 156.029 39.2843 153.471 24.4883 167.743" stroke="#262324" stroke-width="2.66667" stroke-miterlimit="10" stroke-linecap="round" stroke-linejoin="round"/>
<path d="M358.377 255.139C351.139 254.416 346.365 252.856 345.923 252.708C341.34 251.167 338.875 246.204 340.415 241.622C341.951 237.052 346.895 234.591 351.464 236.102C351.799 236.207 370.289 241.99 387.912 232.724C401.272 225.699 411.123 211.754 417.191 191.279C418.564 186.643 423.441 183.999 428.069 185.374C432.704 186.746 435.348 191.618 433.975 196.252C426.476 221.559 413.629 239.09 395.792 248.358C381.891 255.582 367.971 256.096 358.377 255.139Z" fill="#C2A9BC" stroke="#262324" stroke-width="2.66667" stroke-miterlimit="10" stroke-linecap="round" stroke-linejoin="round"/>
<path d="M380.244 235.863C365.307 240.424 351.75 236.192 351.463 236.103C346.894 234.591 341.951 237.052 340.415 241.623C338.874 246.205 341.34 251.168 345.923 252.708C346.366 252.857 351.139 254.417 358.376 255.139C364.84 255.784 373.272 255.751 382.335 253.457C381.866 247.572 380.955 241.725 380.244 235.863Z" fill="#262324"/>
<path d="M411.692 188.256C411.692 188.256 401.224 185.23 404.313 197.008C408.132 211.568 441.825 216.282 443.568 200.663C444.252 194.54 411.692 188.256 411.692 188.256Z" fill="white" stroke="#262324" stroke-width="2.66667" stroke-miterlimit="10" stroke-linecap="round" stroke-linejoin="round"/>
<path d="M407.077 153.436C407.077 153.436 414.041 162.252 413.844 146.811C413.61 128.656 412.137 118.812 423.428 119.67C433.756 120.452 430.121 152.576 430.121 152.576C430.121 152.576 435.384 131.655 441.665 125.774C447.946 119.892 453.562 124.902 454.714 130.404C455.866 135.908 444.958 158.835 444.958 158.835C444.958 158.835 454.049 146.55 460.813 140.863C467.576 135.175 472.882 137.304 474.418 144.642C475.956 151.98 455.718 170.536 455.718 170.536C451.156 194.471 441.677 202.607 421.124 195.8C400.57 188.994 402.509 181.57 400.057 173.024C397.605 164.479 391.817 160.756 391.817 160.756C391.817 160.756 381.658 153.046 387.396 148.39C397.385 140.282 407.077 153.436 407.077 153.436Z" fill="white" stroke="#262324" stroke-width="2.66667" stroke-miterlimit="10" stroke-linecap="round" stroke-linejoin="round"/>
<path d="M421.205 152.434C421.205 152.434 436.55 149.877 451.348 164.149Z" fill="white"/>
<path d="M421.205 152.434C421.205 152.434 436.55 149.877 451.348 164.149" stroke="#262324" stroke-width="2.66667" stroke-miterlimit="10" stroke-linecap="round" stroke-linejoin="round"/>
<path d="M149.423 307.9C193.609 341.156 258.507 339.391 304.422 317.26C336.642 301.732 367.746 270.766 373.337 219.435C385.537 107.439 272.018 76.6896 235.345 75.7762C175.963 74.2989 101.085 111.706 99.5341 200.583C98.7341 246.383 122.703 287.79 149.423 307.9Z" fill="#C2A9BC" stroke="#262324" stroke-width="2.66667" stroke-miterlimit="10" stroke-linecap="round" stroke-linejoin="round"/>
<path d="M326.636 108.814C294.451 84.8432 254.46 76.2512 235.344 75.7765C218.667 75.3605 200.765 78.0138 183.609 84.0125C206.535 100.671 255.049 125.44 326.636 108.814Z" fill="#262324"/>
<path d="M305.544 71.6017C305.544 71.6017 318.844 35.9297 347.026 49.9643C375.207 64.0003 384.644 55.9643 392.914 45.3083L392.416 61.4057L403.046 65.6377C403.046 65.6377 393.068 86.4737 367.731 82.4483C342.394 78.423 336.252 48.9683 312.358 71.899C288.463 94.8297 305.544 71.6017 305.544 71.6017Z" fill="#C2A9BC" stroke="#262324" stroke-width="2.66667" stroke-miterlimit="10" stroke-linecap="round" stroke-linejoin="round"/>
<path d="M284.026 48.2068C284.026 48.2068 355.249 66.0975 350.086 96.6842C345.951 121.18 194.647 113.006 190.705 63.2122C187.722 25.5455 284.026 48.2068 284.026 48.2068Z" fill="#DE6848" stroke="#262324" stroke-width="2.66667" stroke-miterlimit="10" stroke-linecap="round" stroke-linejoin="round"/>
<path d="M223.246 60.5759C223.246 60.5759 263.067 88.8546 319.623 83.0839C319.623 83.0839 340.977 15.5612 287.306 2.86524C233.634 -9.83209 223.246 60.5759 223.246 60.5759Z" fill="#DE6848" stroke="#262324" stroke-width="2.66667" stroke-miterlimit="10" stroke-linecap="round" stroke-linejoin="round"/>
<path d="M231.528 33.9397C225.15 47.6903 223.245 60.5757 223.245 60.5757C223.245 60.5757 263.066 88.8543 319.624 83.0837C319.624 83.0837 323.85 69.701 323.812 53.7343C284.398 58.7637 251.716 45.5983 231.528 33.9397Z" fill="#C2A9BC" stroke="#262324" stroke-width="2.66667" stroke-miterlimit="10" stroke-linecap="round" stroke-linejoin="round"/>
<path d="M242.359 69.0187C242.359 69.0187 250.726 29.4213 258.552 30.3227C266.38 31.2227 270.522 59.416 270.522 59.416C270.522 59.416 276.734 56.9026 283.599 62.692C283.599 62.692 305.339 37.9093 310.216 41.4173C315.094 44.9266 308.406 86.8293 300.983 91.9773C293.559 97.124 281.643 81.788 281.643 81.788C281.643 81.788 271.395 81.872 264.784 78.8373C264.784 78.8373 238.187 85.4333 242.359 69.0187Z" fill="#C2A9BC"/>
<path d="M242.359 69.0187C242.359 69.0187 250.726 29.4213 258.552 30.3227C266.38 31.2227 270.522 59.416 270.522 59.416C270.522 59.416 276.734 56.9026 283.599 62.692C283.599 62.692 305.339 37.9093 310.216 41.4173C315.094 44.9266 308.406 86.8293 300.983 91.9773C293.559 97.124 281.643 81.788 281.643 81.788C281.643 81.788 271.395 81.872 264.784 78.8373C264.784 78.8373 238.187 85.4333 242.359 69.0187Z" stroke="#262324" stroke-width="2.66667" stroke-miterlimit="10" stroke-linecap="round" stroke-linejoin="round"/>
<path d="M270.521 59.4153C270.521 59.4153 260.345 67.0873 264.784 78.8367" stroke="#262324" stroke-width="2.66667" stroke-miterlimit="10" stroke-linecap="round" stroke-linejoin="round"/>
<path d="M283.599 62.6923C283.599 62.6923 287.907 74.5297 281.643 81.7883" stroke="#262324" stroke-width="2.66667" stroke-miterlimit="10" stroke-linecap="round" stroke-linejoin="round"/>
<path d="M212.581 278.002C212.581 278.002 213.002 301.184 231.714 301.202C248.521 301.218 250.849 280.979 250.849 280.979L212.581 278.002Z" fill="#DE6848"/>
<path d="M211.202 260.252C211.202 260.252 224.554 235.127 232.029 257.282C232.029 257.282 239.27 234.746 252.566 261.222C252.566 261.222 248.553 275.895 234.783 277.863C221.014 279.83 211.202 260.252 211.202 260.252Z" fill="#DE6848"/>
<path d="M289.9 250.053C289.9 250.053 226.985 284.323 180.556 243.459" stroke="#262324" stroke-width="2.66667" stroke-miterlimit="10" stroke-linecap="round" stroke-linejoin="round"/>
<path d="M289.899 237.553C289.899 237.553 284.983 259.549 307.646 268.244" stroke="#262324" stroke-width="2.66667" stroke-miterlimit="10" stroke-linecap="round" stroke-linejoin="round"/>
<path d="M178.833 229.114C178.833 229.114 186.634 252.946 162.22 259.102" stroke="#262324" stroke-width="2.66667" stroke-miterlimit="10" stroke-linecap="round" stroke-linejoin="round"/>
<path d="M274.343 256.54C274.343 256.54 263.212 288.068 230.742 288.068C202.782 288.068 191.182 251.119 191.182 251.119C191.182 251.119 212.834 275.888 274.343 256.54Z" fill="#262324"/>
<path d="M274.343 256.54C274.343 256.54 263.212 288.068 230.742 288.068C202.782 288.068 191.182 251.119 191.182 251.119C191.182 251.119 212.834 275.888 274.343 256.54Z" stroke="#262324" stroke-width="2.66667" stroke-miterlimit="10" stroke-linecap="round" stroke-linejoin="round"/>
<path d="M200.435 269.531C194.07 260.315 191.182 251.119 191.182 251.119C191.182 251.119 222.256 274.597 274.343 256.54C274.343 256.54 272.239 262.492 267.2 269.223C253.499 274.22 228.883 279.629 200.435 269.531Z" fill="white" stroke="#262324" stroke-width="2.66667" stroke-miterlimit="10" stroke-linecap="round" stroke-linejoin="round"/>
<path d="M228.318 218.61C210.322 207.315 197.085 216.177 214.326 233.623" stroke="#262324" stroke-width="2.66667" stroke-miterlimit="10" stroke-linecap="round" stroke-linejoin="round"/>
<path d="M137.525 253.014C151.265 262.231 173.121 256.771 175.504 238.01C177.573 219.014 158.319 213.798 152.099 213.643C131.617 211.997 120.288 239.17 137.525 253.014Z" fill="#DE6848"/>
<path d="M304.231 261.898C319.218 271.952 343.059 265.995 345.658 245.531C347.915 224.81 326.913 219.12 320.129 218.951C297.786 217.155 285.429 246.796 304.231 261.898Z" fill="#DE6848"/>
<path d="M252.964 185.527C251.446 235.206 305.998 237.655 308.948 188.046C310.464 138.37 255.912 135.919 252.964 185.527Z" fill="white" stroke="#262324" stroke-width="2.66667" stroke-miterlimit="10" stroke-linecap="round" stroke-linejoin="round"/>
<path d="M308.911 182.852C308.911 182.852 316.978 190.741 326.814 180.118" stroke="#262324" stroke-width="2.66667" stroke-miterlimit="10" stroke-linecap="round" stroke-linejoin="round"/>
<path d="M308.911 193.907C308.911 193.907 316.263 202.15 323.754 193.95" stroke="#262324" stroke-width="2.66667" stroke-miterlimit="10" stroke-linecap="round" stroke-linejoin="round"/>
<path d="M287.396 195.232L301.754 192.8C300.857 157.727 269.049 159.935 267.641 194.344C265.849 226.734 295.268 234.596 301.113 201.558L287.396 195.232Z" fill="#262324"/>
<path d="M165.537 181.591C164.02 231.27 218.572 233.719 221.521 184.11C223.038 134.434 168.485 131.983 165.537 181.591Z" fill="white" stroke="#262324" stroke-width="2.66667" stroke-miterlimit="10" stroke-linecap="round" stroke-linejoin="round"/>
<path d="M165.536 181.591C165.536 181.591 156.511 190.741 146.675 180.118" stroke="#262324" stroke-width="2.66667" stroke-miterlimit="10" stroke-linecap="round" stroke-linejoin="round"/>
<path d="M166.214 192.432C166.214 192.432 157.227 202.15 149.735 193.95" stroke="#262324" stroke-width="2.66667" stroke-miterlimit="10" stroke-linecap="round" stroke-linejoin="round"/>
<path d="M199.969 191.297L214.328 188.865C213.43 153.791 181.622 155.999 180.214 190.409C178.422 222.798 207.841 230.661 213.686 197.622L199.969 191.297Z" fill="#262324"/>
<path d="M152.044 141.662C184.725 104.484 217.324 138.416 217.324 138.416C208.975 117.523 163.371 107.151 152.044 141.662Z" fill="#262324"/>
<path d="M252.333 145.817C285.014 108.64 317.613 142.572 317.613 142.572C309.264 121.678 263.66 111.306 252.333 145.817Z" fill="#262324"/>
</svg>
