<svg width="476" height="505" viewBox="0 0 476 505" fill="none" xmlns="http://www.w3.org/2000/svg">
<path d="M374.249 477.817C374.249 492.357 310.273 504.145 231.356 504.145C152.437 504.145 88.4609 492.357 88.4609 477.817C88.4609 463.277 152.437 451.489 231.356 451.489C310.273 451.489 374.249 463.277 374.249 477.817Z" fill="#262324"/>
<path d="M217.129 295.79C220.683 291.568 220.147 285.267 215.929 281.707C211.708 278.144 205.4 278.679 201.837 282.9C201.2 283.655 186.099 301.71 175.131 328.798C161.772 361.787 160.379 394.018 170.949 422.662C158.059 426.647 132.411 437.228 142.055 456.33C149.465 471.01 175.943 452.486 187.641 436.831C187.804 436.764 187.969 436.708 188.131 436.632C192.833 434.407 194.995 428.987 193.253 424.194C193.173 422.983 192.745 421.967 191.931 421.191C164.601 359.515 216.576 296.448 217.129 295.79Z" fill="#C2A9BC" stroke="#262324" stroke-width="2.66667" stroke-miterlimit="10" stroke-linecap="round" stroke-linejoin="round"/>
<path d="M192.726 339.025C202.446 313.606 216.84 296.134 217.129 295.79C220.682 291.569 220.146 285.268 215.929 281.708C211.708 278.144 205.4 278.678 201.837 282.9C201.2 283.656 186.098 301.71 175.13 328.797C174.94 329.269 174.776 329.74 174.589 330.21C180.841 332.708 186.866 335.897 192.726 339.025Z" fill="#262324"/>
<path d="M205.126 433.556C205.118 433.524 205.106 433.503 205.098 433.471C204.448 428.849 201.82 424.516 197.159 421.721C195.171 419.907 193.272 419.876 193.272 419.876C193.272 419.876 179.278 451.392 154.134 445.121C143.299 442.419 151.142 431.567 151.142 431.567C151.142 431.567 150.678 431.697 149.898 431.968H149.899C149.899 431.968 139.07 433.859 130.512 438.196C120.426 443.308 112.479 451.808 114.354 464.453C117.815 487.827 150.051 484.364 161.86 479.748C171.886 475.828 176.012 464.02 186.823 456.3C188.564 461.201 192.287 472.036 193.272 477.728C193.272 477.728 196.591 479.171 201.208 477.728C201.208 477.728 208.466 446.231 205.126 433.556Z" fill="#DE6848"/>
<path d="M205.126 433.556C205.118 433.524 205.106 433.503 205.098 433.471C204.448 428.849 201.82 424.516 197.159 421.721C195.171 419.907 193.272 419.876 193.272 419.876C193.272 419.876 179.278 451.392 154.134 445.121C143.299 442.419 151.142 431.567 151.142 431.567C151.142 431.567 150.678 431.697 149.898 431.968H149.899C149.899 431.968 139.07 433.859 130.512 438.196C120.426 443.308 112.479 451.808 114.354 464.453C117.815 487.827 150.051 484.364 161.86 479.748C171.886 475.828 176.012 464.02 186.823 456.3C188.564 461.201 192.287 472.036 193.272 477.728C193.272 477.728 196.591 479.171 201.208 477.728C201.208 477.728 208.466 446.231 205.126 433.556Z" stroke="#262324" stroke-width="2.66667" stroke-miterlimit="10" stroke-linecap="round" stroke-linejoin="round"/>
<path d="M114.603 456.042C114.603 456.042 116.192 473.357 141.441 474.078C166.689 474.799 171.019 459.921 185.157 451.489C199.297 443.058 206.483 443.099 205.127 433.555" stroke="#262324" stroke-width="2.66667" stroke-miterlimit="10" stroke-linecap="round" stroke-linejoin="round"/>
<path d="M283.609 422.663C294.179 394.017 292.786 361.788 279.429 328.797C268.459 301.711 253.358 283.656 252.721 282.9C249.162 278.683 242.865 278.149 238.645 281.704C234.423 285.257 233.881 291.563 237.429 295.788C237.963 296.425 289.961 359.503 262.627 421.191C261.813 421.967 261.385 422.983 261.303 424.195C259.565 428.988 261.725 434.408 266.429 436.632C266.589 436.708 266.753 436.764 266.915 436.831C278.614 452.485 305.093 471.009 312.503 456.331C322.147 437.228 296.501 426.647 283.609 422.663Z" fill="#C2A9BC" stroke="#262324" stroke-width="2.66667" stroke-miterlimit="10" stroke-linecap="round" stroke-linejoin="round"/>
<path d="M266.326 352.767C272.893 351.411 279.368 349.617 285.73 347.457C284.058 341.277 281.96 335.051 279.428 328.798C268.46 301.71 253.358 283.655 252.721 282.901C249.162 278.683 242.865 278.149 238.645 281.703C234.424 285.257 233.881 291.562 237.428 295.789C237.757 296.179 257.465 320.093 266.326 352.767Z" fill="#262324"/>
<path d="M249.432 433.556C249.44 433.524 249.452 433.503 249.46 433.471C250.111 428.849 252.738 424.516 257.399 421.721C259.387 419.907 261.286 419.876 261.286 419.876C261.286 419.876 275.28 451.392 300.424 445.121C311.259 442.419 303.416 431.567 303.416 431.567C303.416 431.567 303.88 431.697 304.66 431.968H304.659C304.659 431.968 315.488 433.859 324.046 438.196C334.132 443.308 342.079 451.808 340.206 464.453C336.743 487.827 304.507 484.364 292.698 479.748C282.672 475.828 278.546 464.02 267.735 456.3C265.994 461.201 262.271 472.036 261.286 477.728C261.286 477.728 257.967 479.171 253.35 477.728C253.35 477.728 246.092 446.231 249.432 433.556Z" fill="#DE6848"/>
<path d="M249.432 433.556C249.44 433.524 249.452 433.503 249.46 433.471C250.111 428.849 252.738 424.516 257.399 421.721C259.387 419.907 261.286 419.876 261.286 419.876C261.286 419.876 275.28 451.392 300.424 445.121C311.259 442.419 303.416 431.567 303.416 431.567C303.416 431.567 303.88 431.697 304.66 431.968H304.659C304.659 431.968 315.488 433.859 324.046 438.196C334.132 443.308 342.079 451.808 340.206 464.453C336.743 487.827 304.507 484.364 292.698 479.748C282.672 475.828 278.546 464.02 267.735 456.3C265.994 461.201 262.271 472.036 261.286 477.728C261.286 477.728 257.967 479.171 253.35 477.728C253.35 477.728 246.092 446.231 249.432 433.556Z" stroke="#262324" stroke-width="2.66667" stroke-miterlimit="10" stroke-linecap="round" stroke-linejoin="round"/>
<path d="M339.956 456.042C339.956 456.042 338.366 473.357 313.117 474.078C287.869 474.799 283.54 459.921 269.401 451.489C255.262 443.058 248.076 443.099 249.432 433.555" stroke="#262324" stroke-width="2.66667" stroke-miterlimit="10" stroke-linecap="round" stroke-linejoin="round"/>
<path d="M117.457 258.734C124.696 258.011 129.469 256.451 129.912 256.303C134.493 254.762 136.96 249.799 135.42 245.218C133.884 240.647 128.94 238.186 124.371 239.696C124.036 239.802 105.545 245.584 87.9227 236.319C74.5627 229.294 64.712 215.348 58.644 194.874C57.2707 190.238 52.3934 187.594 47.7654 188.968C43.1307 190.34 40.4867 195.212 41.86 199.847C49.3587 225.154 62.2054 242.684 80.0427 251.952C93.944 259.176 107.864 259.691 117.457 258.734Z" fill="#C2A9BC" stroke="#262324" stroke-width="2.66667" stroke-miterlimit="10" stroke-linecap="round" stroke-linejoin="round"/>
<path d="M95.5907 239.457C110.528 244.017 124.085 239.787 124.372 239.696C128.94 238.185 133.884 240.647 135.42 245.217C136.961 249.8 134.495 254.763 129.912 256.303C129.469 256.451 124.696 258.012 117.457 258.733C110.995 259.379 102.563 259.345 93.5 257.052C93.9693 251.167 94.88 245.32 95.5907 239.457Z" fill="#262324"/>
<path d="M64.1435 191.851C64.1435 191.851 74.6115 188.824 71.5221 200.603C67.7035 215.163 34.0088 219.876 32.2675 204.257C31.5835 198.135 64.1435 191.851 64.1435 191.851Z" fill="white" stroke="#262324" stroke-width="2.66667" stroke-miterlimit="10" stroke-linecap="round" stroke-linejoin="round"/>
<path d="M68.7577 157.031C68.7577 157.031 61.7937 165.847 61.991 150.406C62.2244 132.251 63.6977 122.407 52.407 123.264C42.079 124.047 45.7137 156.171 45.7137 156.171C45.7137 156.171 40.451 135.25 34.1697 129.368C27.8884 123.487 22.2724 128.496 21.1204 133.999C19.9684 139.503 30.8764 162.43 30.8764 162.43C30.8764 162.43 21.7857 150.144 15.0217 144.458C8.25903 138.77 2.95236 140.899 1.41636 148.236C-0.120972 155.575 20.1164 174.131 20.1164 174.131C24.679 198.066 34.1577 206.202 54.711 199.395C75.2644 192.588 73.3257 185.164 75.7777 176.619C78.2297 168.074 84.0177 164.351 84.0177 164.351C84.0177 164.351 94.1764 156.64 88.4377 151.984C78.4484 143.878 68.7577 157.031 68.7577 157.031Z" fill="white" stroke="#262324" stroke-width="2.66667" stroke-miterlimit="10" stroke-linecap="round" stroke-linejoin="round"/>
<path d="M54.6296 156.029C54.6296 156.029 39.2843 153.471 24.4883 167.743Z" fill="white"/>
<path d="M54.6296 156.029C54.6296 156.029 39.2843 153.471 24.4883 167.743" stroke="#262324" stroke-width="2.66667" stroke-miterlimit="10" stroke-linecap="round" stroke-linejoin="round"/>
<path d="M358.377 255.139C351.139 254.416 346.365 252.856 345.923 252.708C341.34 251.167 338.875 246.204 340.415 241.622C341.951 237.052 346.895 234.591 351.464 236.102C351.799 236.207 370.289 241.99 387.912 232.724C401.272 225.699 411.123 211.754 417.191 191.279C418.564 186.643 423.441 183.999 428.069 185.374C432.704 186.746 435.348 191.618 433.975 196.252C426.476 221.559 413.629 239.09 395.792 248.358C381.891 255.582 367.971 256.096 358.377 255.139Z" fill="#C2A9BC" stroke="#262324" stroke-width="2.66667" stroke-miterlimit="10" stroke-linecap="round" stroke-linejoin="round"/>
<path d="M380.244 235.863C365.307 240.424 351.75 236.192 351.463 236.103C346.894 234.591 341.951 237.052 340.415 241.623C338.874 246.205 341.34 251.168 345.923 252.708C346.366 252.857 351.139 254.417 358.376 255.139C364.84 255.784 373.272 255.751 382.335 253.457C381.866 247.572 380.955 241.725 380.244 235.863Z" fill="#262324"/>
<path d="M411.692 188.256C411.692 188.256 401.224 185.23 404.313 197.008C408.132 211.568 441.825 216.282 443.568 200.663C444.252 194.54 411.692 188.256 411.692 188.256Z" fill="white" stroke="#262324" stroke-width="2.66667" stroke-miterlimit="10" stroke-linecap="round" stroke-linejoin="round"/>
<path d="M407.077 153.436C407.077 153.436 414.041 162.252 413.844 146.811C413.61 128.656 412.137 118.812 423.428 119.67C433.756 120.452 430.121 152.576 430.121 152.576C430.121 152.576 435.384 131.655 441.665 125.774C447.946 119.892 453.562 124.902 454.714 130.404C455.866 135.908 444.958 158.835 444.958 158.835C444.958 158.835 454.049 146.55 460.813 140.863C467.576 135.175 472.882 137.304 474.418 144.642C475.956 151.98 455.718 170.536 455.718 170.536C451.156 194.471 441.677 202.607 421.124 195.8C400.57 188.994 402.509 181.57 400.057 173.024C397.605 164.479 391.817 160.756 391.817 160.756C391.817 160.756 381.658 153.046 387.396 148.39C397.385 140.282 407.077 153.436 407.077 153.436Z" fill="white" stroke="#262324" stroke-width="2.66667" stroke-miterlimit="10" stroke-linecap="round" stroke-linejoin="round"/>
<path d="M421.205 152.434C421.205 152.434 436.55 149.877 451.348 164.149Z" fill="white"/>
<path d="M421.205 152.434C421.205 152.434 436.55 149.877 451.348 164.149" stroke="#262324" stroke-width="2.66667" stroke-miterlimit="10" stroke-linecap="round" stroke-linejoin="round"/>
<path d="M149.423 307.9C193.609 341.156 258.507 339.391 304.422 317.26C336.642 301.732 367.746 270.766 373.337 219.435C385.537 107.439 272.018 76.6896 235.345 75.7762C175.963 74.2989 101.085 111.706 99.5341 200.583C98.7341 246.383 122.703 287.79 149.423 307.9Z" fill="#C2A9BC" stroke="#262324" stroke-width="2.66667" stroke-miterlimit="10" stroke-linecap="round" stroke-linejoin="round"/>
<path d="M326.636 108.814C294.451 84.8432 254.46 76.2512 235.344 75.7765C218.667 75.3605 200.765 78.0138 183.609 84.0125C206.535 100.671 255.049 125.44 326.636 108.814Z" fill="#262324"/>
<path d="M305.544 71.6017C305.544 71.6017 318.844 35.9297 347.026 49.9643C375.207 64.0003 384.644 55.9643 392.914 45.3083L392.416 61.4057L403.046 65.6377C403.046 65.6377 393.068 86.4737 367.731 82.4483C342.394 78.423 336.252 48.9683 312.358 71.899C288.463 94.8297 305.544 71.6017 305.544 71.6017Z" fill="#C2A9BC" stroke="#262324" stroke-width="2.66667" stroke-miterlimit="10" stroke-linecap="round" stroke-linejoin="round"/>
<path d="M284.026 48.2068C284.026 48.2068 355.249 66.0975 350.086 96.6842C345.951 121.18 194.647 113.006 190.705 63.2122C187.722 25.5455 284.026 48.2068 284.026 48.2068Z" fill="#DE6848" stroke="#262324" stroke-width="2.66667" stroke-miterlimit="10" stroke-linecap="round" stroke-linejoin="round"/>
<path d="M223.246 60.5759C223.246 60.5759 263.067 88.8546 319.623 83.0839C319.623 83.0839 340.977 15.5612 287.306 2.86524C233.634 -9.83209 223.246 60.5759 223.246 60.5759Z" fill="#DE6848" stroke="#262324" stroke-width="2.66667" stroke-miterlimit="10" stroke-linecap="round" stroke-linejoin="round"/>
<path d="M231.528 33.9397C225.15 47.6903 223.245 60.5757 223.245 60.5757C223.245 60.5757 263.066 88.8543 319.624 83.0837C319.624 83.0837 323.85 69.701 323.812 53.7343C284.398 58.7637 251.716 45.5983 231.528 33.9397Z" fill="#C2A9BC" stroke="#262324" stroke-width="2.66667" stroke-miterlimit="10" stroke-linecap="round" stroke-linejoin="round"/>
<path d="M242.359 69.0187C242.359 69.0187 250.726 29.4213 258.552 30.3227C266.38 31.2227 270.522 59.416 270.522 59.416C270.522 59.416 276.734 56.9026 283.599 62.692C283.599 62.692 305.339 37.9093 310.216 41.4173C315.094 44.9266 308.406 86.8293 300.983 91.9773C293.559 97.124 281.643 81.788 281.643 81.788C281.643 81.788 271.395 81.872 264.784 78.8373C264.784 78.8373 238.187 85.4333 242.359 69.0187Z" fill="#C2A9BC"/>
<path d="M242.359 69.0187C242.359 69.0187 250.726 29.4213 258.552 30.3227C266.38 31.2227 270.522 59.416 270.522 59.416C270.522 59.416 276.734 56.9026 283.599 62.692C283.599 62.692 305.339 37.9093 310.216 41.4173C315.094 44.9266 308.406 86.8293 300.983 91.9773C293.559 97.124 281.643 81.788 281.643 81.788C281.643 81.788 271.395 81.872 264.784 78.8373C264.784 78.8373 238.187 85.4333 242.359 69.0187Z" stroke="#262324" stroke-width="2.66667" stroke-miterlimit="10" stroke-linecap="round" stroke-linejoin="round"/>
<path d="M270.521 59.4153C270.521 59.4153 260.345 67.0873 264.784 78.8367" stroke="#262324" stroke-width="2.66667" stroke-miterlimit="10" stroke-linecap="round" stroke-linejoin="round"/>
<path d="M283.599 62.6923C283.599 62.6923 287.907 74.5297 281.643 81.7883" stroke="#262324" stroke-width="2.66667" stroke-miterlimit="10" stroke-linecap="round" stroke-linejoin="round"/>
<path d="M227.319 221.642C227.319 221.642 210.079 211.778 206.151 219.172C202.282 226.456 213.327 236.655 213.327 236.655" stroke="#262324" stroke-width="2.66667" stroke-miterlimit="10" stroke-linecap="round" stroke-linejoin="round"/>
<path d="M142.99 267.964C151.165 274.118 163.173 273.791 171.667 269.696C177.629 266.823 183.382 261.094 184.417 251.596C186.674 230.876 165.671 225.187 158.887 225.018C147.901 224.744 134.046 231.666 133.759 248.11C133.611 256.583 138.046 264.243 142.99 267.964Z" fill="#DE6848"/>
<path d="M299.082 273.036C307.257 279.189 319.265 278.862 327.759 274.768C333.721 271.894 339.475 266.165 340.509 256.668C342.766 235.948 321.763 230.258 314.979 230.089C303.993 229.816 290.139 236.737 289.851 253.181C289.703 261.654 294.138 269.314 299.082 273.036Z" fill="#DE6848"/>
<path d="M219.705 259.598C219.705 259.598 231.301 233.503 238.776 255.658C238.776 255.658 247.22 234.181 260.516 260.657C260.516 260.657 255.3 274.271 241.53 276.238C227.761 278.206 219.705 259.598 219.705 259.598Z" fill="#DE6848"/>
<path d="M219.705 282.531C219.705 282.531 231.301 256.437 238.776 278.591C238.776 278.591 246.017 256.055 259.314 282.531C259.314 282.531 255.3 297.205 241.53 299.171C227.761 301.139 219.705 282.531 219.705 282.531Z" fill="#DE6848"/>
<path d="M196.247 253.077C196.247 253.077 236.395 269.971 280.26 257.74C280.26 257.74 268.956 290.279 234.934 285.795C201.526 281.392 196.247 253.077 196.247 253.077Z" fill="white" stroke="#262324" stroke-width="2.66667" stroke-miterlimit="10" stroke-linecap="round" stroke-linejoin="round"/>
<path d="M283.579 244.065C283.579 244.065 274.245 258.621 289.753 268.851" stroke="#262324" stroke-width="2.66667" stroke-miterlimit="10" stroke-linecap="round" stroke-linejoin="round"/>
<path d="M189.185 263.709C189.185 263.709 202.703 252.927 191.306 238.255" stroke="#262324" stroke-width="2.66667" stroke-miterlimit="10" stroke-linecap="round" stroke-linejoin="round"/>
<path d="M209.046 257.209C209.046 257.209 205.576 266.709 207.2 272.691" stroke="#262324" stroke-width="2.66667" stroke-miterlimit="10" stroke-linecap="round" stroke-linejoin="round"/>
<path d="M223.317 260.656C223.317 260.656 218.379 270.644 220.051 280.428" stroke="#262324" stroke-width="2.66667" stroke-miterlimit="10" stroke-linecap="round" stroke-linejoin="round"/>
<path d="M254.271 284.096C254.271 284.096 259.313 276.384 255.731 262.804" stroke="#262324" stroke-width="2.66667" stroke-miterlimit="10" stroke-linecap="round" stroke-linejoin="round"/>
<path d="M239.51 261.993C239.51 261.993 235.773 279.324 238.254 286.12" stroke="#262324" stroke-width="2.66667" stroke-miterlimit="10" stroke-linecap="round" stroke-linejoin="round"/>
<path d="M270.01 260.657C270.01 260.657 270.404 268.79 268.493 275.314" stroke="#262324" stroke-width="2.66667" stroke-miterlimit="10" stroke-linecap="round" stroke-linejoin="round"/>
<path d="M251.964 188.559C251.027 209.395 262.798 226.849 278.258 227.545C293.718 228.241 307.01 211.915 307.948 191.079C308.886 170.243 297.114 152.788 281.655 152.092C266.195 151.396 252.902 167.723 251.964 188.559Z" fill="white" stroke="#262324" stroke-width="2.66667" stroke-miterlimit="10" stroke-linecap="round" stroke-linejoin="round"/>
<path d="M307.912 185.883C307.912 185.883 315.979 193.772 325.815 183.15" stroke="#262324" stroke-width="2.66667" stroke-miterlimit="10" stroke-linecap="round" stroke-linejoin="round"/>
<path d="M307.912 196.939C307.912 196.939 315.264 205.182 322.755 196.982" stroke="#262324" stroke-width="2.66667" stroke-miterlimit="10" stroke-linecap="round" stroke-linejoin="round"/>
<path d="M286.396 198.264L300.755 195.832C300.456 181.74 293.726 170.479 284.946 170.084C275.534 169.66 267.339 181.879 266.64 197.375C265.943 212.871 273.007 225.776 282.419 226.2C290.644 226.571 297.94 217.283 300.114 204.59L286.396 198.264Z" fill="#262324"/>
<path d="M316.314 144.694C283.633 107.516 251.034 141.448 251.034 141.448C251.034 141.448 263.473 116.879 292.638 122.874C311.228 126.695 316.314 144.694 316.314 144.694Z" fill="#262324"/>
<path d="M164.538 184.623C163.6 205.459 175.371 222.914 190.831 223.61C206.291 224.306 219.583 207.979 220.522 187.143C221.459 166.307 209.687 148.852 194.228 148.156C178.768 147.46 165.475 163.787 164.538 184.623Z" fill="white" stroke="#262324" stroke-width="2.66667" stroke-miterlimit="10" stroke-linecap="round" stroke-linejoin="round"/>
<path d="M164.537 184.623C164.537 184.623 155.512 193.772 145.676 183.149" stroke="#262324" stroke-width="2.66667" stroke-miterlimit="10" stroke-linecap="round" stroke-linejoin="round"/>
<path d="M165.214 195.464C165.214 195.464 156.227 205.181 148.735 196.981" stroke="#262324" stroke-width="2.66667" stroke-miterlimit="10" stroke-linecap="round" stroke-linejoin="round"/>
<path d="M198.97 194.328L213.328 191.896C213.03 177.804 206.299 166.543 197.519 166.148C188.107 165.724 179.912 177.943 179.214 193.439C178.516 208.935 185.58 221.84 194.992 222.264C203.218 222.635 210.514 213.347 212.687 200.654L198.97 194.328Z" fill="#262324"/>
<path d="M151.044 144.694C183.725 107.516 216.324 141.448 216.324 141.448C216.324 141.448 203.885 116.879 174.72 122.874C156.131 126.695 151.044 144.694 151.044 144.694Z" fill="#262324"/>
</svg>
