<svg width="32" height="28" viewBox="0 0 32 28" fill="none" xmlns="http://www.w3.org/2000/svg">
<path d="M32.0002 19.2583C32.0002 22.693 29.2158 25.4774 25.7811 25.4774C22.3464 25.4774 19.562 22.693 19.562 19.2583C19.562 15.8236 22.3464 13.0392 25.7811 13.0392C29.2158 13.0392 32.0002 15.8236 32.0002 19.2583ZM23.2406 19.2583C23.2406 20.6614 24.378 21.7988 25.7811 21.7988C27.1842 21.7988 28.3217 20.6614 28.3217 19.2583C28.3217 17.8552 27.1842 16.7177 25.7811 16.7177C24.378 16.7177 23.2406 17.8552 23.2406 19.2583Z" fill="#007BFF"/>
<path d="M17.696 19.2583C17.696 22.693 14.9116 25.4774 11.4769 25.4774C8.0422 25.4774 5.25781 22.693 5.25781 19.2583C5.25781 15.8236 8.0422 13.0392 11.4769 13.0392C14.9116 13.0392 17.696 15.8236 17.696 19.2583ZM8.93635 19.2583C8.93635 20.6614 10.0738 21.7988 11.4769 21.7988C12.88 21.7988 14.0175 20.6614 14.0175 19.2583C14.0175 17.8552 12.88 16.7177 11.4769 16.7177C10.0738 16.7177 8.93635 17.8552 8.93635 19.2583Z" fill="#007BFF"/>
<path fill-rule="evenodd" clip-rule="evenodd" d="M2.48779 23.6144C2.48779 23.5014 2.57938 23.4098 2.69237 23.4098H5.80737C5.92035 23.4098 6.01195 23.5014 6.01195 23.6144C6.01195 23.7273 5.92035 23.8189 5.80737 23.8189H2.69237C2.57938 23.8189 2.48779 23.7273 2.48779 23.6144Z" fill="#007BFF"/>
<path fill-rule="evenodd" clip-rule="evenodd" d="M16.8101 23.6144C16.8101 23.5014 16.9017 23.4098 17.0146 23.4098H20.1296C20.2426 23.4098 20.3342 23.5014 20.3342 23.6144C20.3342 23.7273 20.2426 23.8189 20.1296 23.8189H17.0146C16.9017 23.8189 16.8101 23.7273 16.8101 23.6144Z" fill="#007BFF"/>
<path fill-rule="evenodd" clip-rule="evenodd" d="M-1.78846e-08 25.2727C-8.00719e-09 25.1597 0.0915915 25.0681 0.204575 25.0681L5.80721 25.0681C5.9202 25.0681 6.01179 25.1597 6.01179 25.2727C6.01179 25.3857 5.9202 25.4773 5.80721 25.4773L0.204575 25.4773C0.0915915 25.4773 -2.77619e-08 25.3857 -1.78846e-08 25.2727Z" fill="#007BFF"/>
<path fill-rule="evenodd" clip-rule="evenodd" d="M14.3228 25.2727C14.3228 25.1597 14.4143 25.0681 14.5273 25.0681L20.13 25.0681C20.243 25.0681 20.3345 25.1597 20.3345 25.2727C20.3345 25.3857 20.243 25.4773 20.13 25.4773L14.5273 25.4773C14.4143 25.4773 14.3228 25.3857 14.3228 25.2727Z" fill="#007BFF"/>
<path fill-rule="evenodd" clip-rule="evenodd" d="M2.48779 26.9311C2.48779 26.8182 2.57938 26.7266 2.69237 26.7266L8.29501 26.7266C8.40799 26.7266 8.49958 26.8182 8.49958 26.9311C8.49958 27.0441 8.40799 27.1357 8.29501 27.1357L2.69237 27.1357C2.57938 27.1357 2.48779 27.0441 2.48779 26.9311Z" fill="#007BFF"/>
<path fill-rule="evenodd" clip-rule="evenodd" d="M16.8101 26.9311C16.8101 26.8182 16.9017 26.7266 17.0146 26.7266L22.6173 26.7266C22.7303 26.7266 22.8218 26.8182 22.8218 26.9311C22.8218 27.0441 22.7303 27.1357 22.6173 27.1357L17.0146 27.1357C16.9017 27.1357 16.8101 27.0441 16.8101 26.9311Z" fill="#007BFF"/>
<path d="M27.8144 12.3241C28.3139 12.3241 28.7232 11.9183 28.6774 11.4208C28.4674 9.14327 27.4684 6.99914 25.8378 5.36853C23.993 3.52379 21.491 2.48743 18.882 2.48743C16.2733 2.48743 13.7713 3.52379 11.9266 5.36853C10.296 6.99914 9.29697 9.14327 9.08701 11.4208C9.04115 11.9183 9.45044 12.3241 9.95 12.3241L18.882 12.3241H27.8144Z" fill="#007BFF"/>
<path d="M20.1256 1.80906C20.1256 2.55839 19.5688 3.16585 18.8819 3.16585C18.195 3.16585 17.6382 2.55839 17.6382 1.80906C17.6382 1.05973 18.195 0.452271 18.8819 0.452271C19.5688 0.452271 20.1256 1.05973 20.1256 1.80906ZM17.6382 1.80906C17.6382 1.05973 18.195 0.452271 18.8819 0.452271C19.5688 0.452271 20.1256 1.05973 20.1256 1.80906Z" fill="white"/>
<path fill-rule="evenodd" clip-rule="evenodd" d="M18.882 0.904525C18.4811 0.904525 18.0906 1.27165 18.0906 1.80905C18.0906 2.34645 18.4811 2.71358 18.882 2.71358C19.2829 2.71358 19.6735 2.34645 19.6735 1.80905C19.6735 1.27165 19.2829 0.904525 18.882 0.904525ZM17.186 1.80905C17.186 0.847787 17.9091 0 18.882 0C19.8549 0 20.578 0.847787 20.578 1.80905C20.578 2.77031 19.8549 3.6181 18.882 3.6181C17.9091 3.6181 17.186 2.77031 17.186 1.80905Z" fill="#007BFF"/>
<path d="M14.8654 5.54042C14.7556 5.35821 14.5192 5.29734 14.3408 5.41324C12.9924 6.28946 11.9341 7.53682 11.2973 9.00015C11.2104 9.19982 11.3152 9.4277 11.5195 9.50287V9.50287C11.7213 9.57709 11.9442 9.47431 12.0308 9.27753C12.6022 7.97933 13.5409 6.87072 14.7342 6.08482C14.915 5.96581 14.977 5.72579 14.8654 5.54042V5.54042Z" fill="white"/>
<path d="M16.437 4.83868C16.37 4.63668 16.1523 4.52561 15.953 4.60023C15.7395 4.68017 15.5294 4.76881 15.3233 4.86594C15.1278 4.9581 15.0567 5.19675 15.1602 5.38653V5.38653C15.262 5.57326 15.4948 5.64231 15.6875 5.55236C15.8528 5.47523 16.0209 5.4041 16.1914 5.33913C16.3926 5.2625 16.5048 5.04303 16.437 4.83868V4.83868Z" fill="white"/>
</svg>
